<?xml version="1.0" encoding="utf-8"?>
<!-- Generator: Adobe Illustrator 24.3.0, SVG Export Plug-In . SVG Version: 6.00 Build 0)  -->
<svg version="1.1" id="Layer_1" xmlns="http://www.w3.org/2000/svg" xmlns:xlink="http://www.w3.org/1999/xlink" x="0px" y="0px"
	 viewBox="0 0 420.4 174.7" style="enable-background:new 0 0 420.4 174.7;" xml:space="preserve">
<style type="text/css">
	.Drop_x0020_Shadow{fill:none;}
	.Round_x0020_Corners_x0020_2_x0020_pt{fill:#FFFFFF;stroke:#000000;stroke-miterlimit:10;}
	.Live_x0020_Reflect_x0020_X{fill:none;}
	.Bevel_x0020_Soft{fill:url(#SVGID_1_);}
	.Dusk{fill:#FFFFFF;}
	.Foliage_GS{fill:#FFDD00;}
	.Pompadour_GS{fill-rule:evenodd;clip-rule:evenodd;fill:#44ADE2;}
	.st0{opacity:0.53;fill:#8651A0;}
	.st1{opacity:0.53;}
	.st2{fill:#8651A0;}
	.st3{fill:#936AAA;}
</style>
<linearGradient id="SVGID_1_" gradientUnits="userSpaceOnUse" x1="-138.0017" y1="-235.2418" x2="-137.2946" y2="-234.5347">
	<stop  offset="0" style="stop-color:#DEDFE3"/>
	<stop  offset="0.1738" style="stop-color:#D8D9DD"/>
	<stop  offset="0.352" style="stop-color:#C9CACD"/>
	<stop  offset="0.5323" style="stop-color:#B4B5B8"/>
	<stop  offset="0.7139" style="stop-color:#989A9C"/>
	<stop  offset="0.8949" style="stop-color:#797C7E"/>
	<stop  offset="1" style="stop-color:#656B6C"/>
</linearGradient>
<rect class="st0" width="420.4" height="174.7"/>
<g class="st1">
	<polygon class="st2" points="63.2,0 0,105.2 0,174.7 105,0 	"/>
	<polygon class="st2" points="150,0 45.1,174.7 91.8,174.7 196.7,0 	"/>
	<polygon class="st2" points="241.8,0 136.8,174.7 186.3,174.7 291.2,0 	"/>
	<polygon class="st2" points="336.3,0 231.3,174.7 270.3,174.7 375.3,0 	"/>
	<polygon class="st3" points="105,0 0,174.7 45.1,174.7 150,0 	"/>
	<polygon class="st3" points="196.7,0 91.8,174.7 136.8,174.7 241.8,0 	"/>
	<polygon class="st3" points="291.2,0 186.3,174.7 231.3,174.7 336.3,0 	"/>
	<polygon class="st3" points="375.3,0 270.3,174.7 315.4,174.7 420.4,0 	"/>
</g>
</svg>
