<?xml version="1.0" encoding="utf-8"?>
<!-- Generator: Adobe Illustrator 24.3.0, SVG Export Plug-In . SVG Version: 6.00 Build 0)  -->
<svg version="1.1" id="Layer_1" xmlns="http://www.w3.org/2000/svg" xmlns:xlink="http://www.w3.org/1999/xlink" x="0px" y="0px"
	 viewBox="0 0 143.8 152.6" style="enable-background:new 0 0 143.8 152.6;" xml:space="preserve">
<style type="text/css">
	.st0{display:none;}
	.st1{display:inline;opacity:8.000000e-02;}
	.st2{fill:#7E7E7E;}
	.st3{display:inline;}
	.st4{fill:#698A7E;}
	.st5{opacity:8.000000e-02;fill:#698A7E;enable-background:new    ;}
	.st6{display:inline;fill:#6A8A80;}
	.st7{fill:none;}
	.st8{opacity:8.000000e-02;}
</style>
<g id="Layer_1_1_" class="st0">
	<g id="VNr6mR_1_" class="st1">
		<g>
			<path class="st2" d="M143.8,25.3c-0.7,5-1.4,10-2.2,15c-2.1,12.6-9.7,21.5-19.2,29.2c-6.8,5.5-13.5,11.2-20.3,16.6
				c-1.8,1.4-2.7,2.6-2.3,5.2c1.3,8.7-0.6,16.3-7.4,22.5c-4.9,4.5-9.1,9.7-13.7,14.4c-3.2,3.3-4.9,2.8-6-1.7
				c-1.6-6.9-2.9-13.8-4.4-20.7c-3.5-0.5-7,3.4-10.1-0.7c-5,8.4-9.7,16.3-14.4,24.3c-0.3-0.1-0.5-0.1-0.8-0.2
				c-0.3-3.3-0.7-6.6-1.1-10.8c-13.9,11.6-27.3,22.9-40.7,34.1c-0.1-0.1-0.2-0.2-0.4-0.3c6.7-11.4,13.4-22.8,20.4-34.8
				c-7.5,1.5-14.1,2.9-20.8,4.2c-0.1-0.2-0.3-0.4-0.4-0.6c9-7.6,18-15.1,27.9-23.3c-4.1,0-7.2,0-10.3,0c-0.1-0.3-0.1-0.5-0.2-0.8
				c6.8-3.9,13.5-7.7,19.4-11.1c0.2-3.8,0.3-6.9,0.5-10.6C32,74.2,26.5,73,20.9,71.8c-1.8-0.4-3.7-0.7-5.5-1.3
				c-2.8-0.8-3.3-2.5-1.3-4.5c6.7-6.3,13.4-12.6,20.1-18.9c3.7-3.5,8.4-4.1,13.1-3.5c6,0.8,9.9-1.1,13.5-6.1
				c5.4-7.4,11.9-14,17.7-21.1C86.1,7.1,96.4,3,108,1.3c3.3-0.5,6.5-0.9,9.8-1.3c4,0,8,0,12,0c3,1.2,6.1,2.1,8.8,3.8
				c3.6,2.2,4.3,6.3,5.1,10.2C143.8,17.7,143.8,21.5,143.8,25.3z M70.9,98.7c18.4-14.4,37-28,53.6-44c1.4-1.4,2.8-3,3.6-4.7
				c5.9-11.4,6.6-23.7,5.8-36.2c-0.2-2.7-1.8-4.4-4.9-4.3c-5.7,0.2-11.5,0.1-17.2,0.6c-10.8,1-20.3,4.7-27.4,13.5
				c-12.8,16-25.8,31.8-38.6,47.7c-0.3,0.4-0.4,0.9-0.7,1.4C56.4,78.7,65,87,70.9,98.7z M25.8,108.3c0.1,0.1,0.2,0.3,0.3,0.4
				c4.1-1.5,8.3-3,12.9-4.6c-1.2,3.5-2.1,6.3-3.2,9.9c4.1-2.7,7.5-4.8,11-7.1c0.1,1,0.2,1.7,0.3,2.8c3.4-3.5,6.5-6.6,9.7-9.9
				c-2.6-4.8-6.1-8.7-10.7-11.6c-0.8-0.6-2.4-0.8-3.2-0.5c-3,1.3-5.8,3-9.1,4.8c1.8,0.8,3.2,1.3,4.9,2
				C34.2,99.3,30,103.8,25.8,108.3z M66.8,100.8c-5.5-10.9-13.3-18.9-24.4-24.1c-0.4,1.6-0.8,2.9-1.1,4.4
				c10.5,3.8,17.5,10.9,21.2,21.2C64,101.8,65.2,101.4,66.8,100.8z"/>
			<path class="st2" d="M103.4,59.4c-10.7,0-19.5-8.6-19.5-19.2s8.8-19.4,19.4-19.5c10.6-0.1,19.4,8.7,19.4,19.4
				C122.9,50.7,114.2,59.4,103.4,59.4z M88.8,40.1c0,8.4,6.6,15.1,14.8,15c8.2-0.1,14.7-6.6,14.8-14.8c0.1-8.2-6.7-15-14.9-15
				C95.1,25.3,88.8,31.8,88.8,40.1z"/>
		</g>
	</g>
	<g id="VNr6mR_2_" class="st3">
		<g>
			<path class="st4" d="M143.8,24.6c-0.7,5-1.4,10-2.2,15c-2.1,12.6-9.7,21.5-19.2,29.2c-6.8,5.5-13.5,11.2-20.3,16.6
				c-1.8,1.4-2.7,2.6-2.3,5.2c1.3,8.7-0.6,16.3-7.4,22.5c-4.9,4.5-9.1,9.7-13.7,14.4c-3.2,3.3-4.9,2.8-6-1.7
				c-1.6-6.9-2.9-13.8-4.4-20.7c-3.5-0.5-7,3.4-10.1-0.7c-5,8.4-9.7,16.3-14.4,24.3c-0.3-0.1-0.5-0.1-0.8-0.2
				c-0.3-3.3-0.7-6.6-1.1-10.8C27.9,129.5,14.5,140.8,1.1,152c-0.1-0.1-0.2-0.2-0.4-0.3c6.7-11.4,13.4-22.8,20.4-34.8
				c-7.5,1.5-14.1,2.9-20.8,4.2c-0.1-0.2-0.3-0.4-0.4-0.6c9-7.6,18-15.1,27.9-23.3c-4.1,0-7.2,0-10.3,0c-0.1-0.3-0.1-0.5-0.2-0.8
				c6.8-3.9,13.5-7.7,19.4-11.1c0.2-3.8,0.3-6.9,0.5-10.6c-5.3-1.1-10.8-2.3-16.4-3.5c-1.8-0.4-3.7-0.7-5.5-1.3
				c-2.8-0.8-3.3-2.5-1.3-4.5c6.7-6.3,13.4-12.6,20.1-18.9c3.7-3.5,8.4-4.1,13.1-3.5c6,0.8,9.9-1.1,13.5-6.1
				c5.4-7.4,11.9-14,17.7-21.1c7.7-9.4,18-13.6,29.6-15.2c3.3-0.5,6.5-0.9,9.8-1.3c4,0,8,0,12,0c3,1.2,6.1,2.1,8.8,3.8
				c3.6,2.2,4.3,6.3,5.1,10.2C143.8,17.1,143.8,20.8,143.8,24.6z M70.9,98c18.4-14.4,37-28,53.6-44c1.4-1.4,2.8-3,3.6-4.7
				c5.9-11.4,6.6-23.7,5.8-36.2c-0.2-2.7-1.8-4.4-4.9-4.3c-5.7,0.2-11.5,0.1-17.2,0.6c-10.8,1-20.3,4.7-27.4,13.5
				c-12.8,16-25.8,31.8-38.6,47.7c-0.3,0.4-0.4,0.9-0.7,1.4C56.4,78,65,86.4,70.9,98z M25.8,107.7c0.1,0.1,0.2,0.3,0.3,0.4
				c4.1-1.5,8.3-3,12.9-4.6c-1.2,3.5-2.1,6.3-3.2,9.9c4.1-2.7,7.5-4.8,11-7.1c0.1,1,0.2,1.7,0.3,2.8c3.4-3.5,6.5-6.6,9.7-9.9
				c-2.6-4.8-6.1-8.7-10.7-11.6c-0.8-0.6-2.4-0.8-3.2-0.5c-3,1.3-5.8,3-9.1,4.8c1.8,0.8,3.2,1.3,4.9,2
				C34.2,98.7,30,103.2,25.8,107.7z M66.8,100.2c-5.5-10.9-13.3-18.9-24.4-24.1c-0.4,1.6-0.8,2.9-1.1,4.4
				c10.5,3.8,17.5,10.9,21.2,21.2C64,101.1,65.2,100.7,66.8,100.2z"/>
			<path class="st4" d="M103.4,58.7c-10.7,0-19.5-8.6-19.5-19.2s8.8-19.4,19.4-19.5c10.6-0.1,19.4,8.7,19.4,19.4
				C122.9,50.1,114.2,58.7,103.4,58.7z M88.8,39.4c0,8.4,6.6,15.1,14.8,15c8.2-0.1,14.7-6.6,14.8-14.9c0.1-8.2-6.7-15-14.9-15
				C95.1,24.7,88.8,31.1,88.8,39.4z"/>
		</g>
	</g>
</g>
<g id="Layer_2_1_" class="st0">
	<g class="st3">
		<path class="st5" d="M448.9,157.7h-16v16h-16v16h16v16h16v-16h16v-16h-16V157.7z"/>
		<path class="st5" d="M672.8,45.7v-80h-40v-30.1l21-41.9h-89.9l21,41.9v30.1h-20.5c-5.5-9.5-15.8-16-27.5-16h-128
			c-17.6,0-32,14.3-32,32h-40v-32h-120c-22.1,0-40,18-40,40v8h88v16h-88v8c0,22,17.9,40,40,40h120v-32h40c0,17.7,14.4,32,32,32h5.1
			l-26.5,84.8c-6.7,10.1-10.6,22.2-10.6,35.2c0,35.3,28.7,64,64,64c3.2,0,6.2-0.3,9.3-0.8l13,64.8h-11.2l-16,32h-19v48h256v-48h-19
			l-16-32h-13v-60.5L506,177.9l29-116.2h1.8c11.8,0,22-6.5,27.5-16h20.5v22.1l-21,41.9h89.9l-21-41.9V45.7H672.8z M194.2-18.3
			c3.3-9.3,12.2-16,22.6-16h104v16H194.2z M320.9,45.7h-104c-10.4,0-19.3-6.7-22.6-16h126.6V45.7z M336.9,13.7h-56v-16h96v16H336.9z
			 M392.9,181.7c0-26.5,21.5-48,48-48s48,21.5,48,48s-21.5,48-48,48S392.9,208.1,392.9,181.7z M503.4,194.9l52.8,31.7l-85.6,39.5
			l-5.1-25.5C484.7,232.6,499,215.6,503.4,194.9z M571.7,235.9l27.8,16.7l-120.8,53.7l-4.8-24l98.3-45.4L571.7,235.9z M656.8,373.7
			h-224v-16h224V373.7z M635.9,341.7H453.8l8-16h166.1L635.9,341.7z M510.5,309.7l98.3-43.7v43.7H510.5z M496.5,150.1
			c-11-19.4-31.8-32.5-55.6-32.5c-10.8,0-21,2.7-30,7.5l19.8-63.5h87.9L496.5,150.1z M552.8,29.7c0,8.8-7.2,16-16,16h-128
			c-8.8,0-16-7.2-16-16v-48c0-8.8,7.2-16,16-16h128c8.8,0,16,7.2,16,16V29.7z M627.9-90.3l-8,16h-22.1l-8-16H627.9z M600.8-58.3h16
			v24h-16V-58.3z M656.8-18.3v16h-88v-16H656.8z M568.8,13.7h88v16h-88V13.7z M589.8,93.7l8-16h22.1l8,16H589.8z M616.8,61.7h-16
			v-16h16V61.7z"/>
		<path class="st5" d="M440.9-18.3c-13.2,0-24,10.8-24,24s10.8,24,24,24s24-10.8,24-24S454.1-18.3,440.9-18.3z M440.9,13.7
			c-4.4,0-8-3.6-8-8s3.6-8,8-8s8,3.6,8,8S445.3,13.7,440.9,13.7z"/>
		<path class="st5" d="M504.9-18.3c-13.2,0-24,10.8-24,24s10.8,24,24,24s24-10.8,24-24S518.1-18.3,504.9-18.3z M504.9,13.7
			c-4.4,0-8-3.6-8-8s3.6-8,8-8s8,3.6,8,8S509.3,13.7,504.9,13.7z"/>
		<path class="st5" d="M344.3,257.8l12.9-15.5l-33-33l-15.5,12.9c-3.5-1.8-7.1-3.2-10.8-4.5l-1.8-20.1h-46.6l-1.8,20.1
			c-3.7,1.2-7.3,2.7-10.8,4.5l-15.5-12.9l-33,33l12.9,15.5c-1.8,3.5-3.2,7.1-4.5,10.8l-20.1,1.8V317l20.1,1.8
			c1.2,3.7,2.7,7.3,4.5,10.8L188.5,345l33,33l15.5-13c3.5,1.8,7.1,3.2,10.8,4.5l1.8,20.1h46.6l1.8-20.1c3.7-1.2,7.3-2.7,10.8-4.5
			l15.5,13l33-33l-12.9-15.5c1.8-3.5,3.2-7.1,4.5-10.8l20.1-1.8v-46.6l-20.1-1.8C347.5,264.8,346,261.2,344.3,257.8z M352.9,302.4
			l-16.6,1.5l-1.4,5.5c-1.5,6-3.9,11.8-7.1,17l-2.9,4.9l10.7,12.8l-12.3,12.3l-12.8-10.7l-4.9,2.9c-5.3,3.2-11,5.5-17,7.1L283,357
			l-1.5,16.6h-17.4l-1.5-16.6l-5.5-1.4c-6-1.5-11.8-3.9-17.1-7.1l-4.9-2.9l-12.8,10.7l-12.3-12.3l10.7-12.8l-2.9-4.9
			c-3.2-5.3-5.6-11-7.1-17l-1.4-5.5l-16.6-1.5V285l16.6-1.5l1.4-5.5c1.5-6,3.9-11.8,7.1-17l2.9-4.9l-10.7-12.8l12.3-12.3l12.8,10.7
			l4.9-2.9c5.3-3.2,11-5.6,17-7.1l5.5-1.4l1.5-16.6h17.4l1.5,16.6l5.5,1.4c6,1.5,11.8,3.9,17,7.1l4.9,2.9l12.8-10.7l12.3,12.3
			L324.8,256l2.9,4.9c3.2,5.3,5.5,11,7.1,17l1.4,5.5l16.6,1.5L352.9,302.4L352.9,302.4z"/>
		<path class="st5" d="M272.9,245.7c-26.5,0-48,21.5-48,48s21.5,48,48,48s48-21.5,48-48S299.3,245.7,272.9,245.7z M272.9,325.7
			c-17.6,0-32-14.4-32-32s14.4-32,32-32s32,14.4,32,32S290.5,325.7,272.9,325.7z"/>
		<path class="st5" d="M264.9,77.7h16v16h-16V77.7z"/>
		<path class="st5" d="M264.9,109.7h16v16h-16V109.7z"/>
		<path class="st5" d="M264.9,141.7h16v16h-16V141.7z"/>
	</g>
	<path class="st6" d="M-7.4-61.9v-23h-11.5v-8.7l6-12h-25.8l6,12v8.7h-5.9c-1.6-2.7-4.5-4.6-7.9-4.6h-36.8c-5.1,0-9.2,4.1-9.2,9.2
		h-11.5v-9.2h-34.5c-6.3,0-11.5,5.2-11.5,11.5v2.3h25.3v4.6h-25.3v2.3c0,6.3,5.2,11.5,11.5,11.5h34.5v-9.2h11.5
		c0,5.1,4.1,9.2,9.2,9.2h1.5L-89.4-33c-1.9,2.9-3.1,6.4-3.1,10.1c0,10.1,8.2,18.4,18.4,18.4c0.9,0,1.8-0.1,2.7-0.2l3.7,18.6h-3.2
		l-4.6,9.2H-81v13.8h73.5V23.1h-5.5l-4.6-9.2h-3.7V-3.5l-34.1-20.5l8.3-33.4h0.5c3.4,0,6.3-1.9,7.9-4.6h5.9v6.3l-6,12h25.8l-6-12
		v-6.3L-7.4-61.9L-7.4-61.9z M-144.9-80.3c0.9-2.7,3.5-4.6,6.5-4.6h29.9v4.6H-144.9z M-108.6-61.9h-29.9c-3,0-5.6-1.9-6.5-4.6h36.4
		C-108.6-66.5-108.6-61.9-108.6-61.9z M-104-71.1h-16.1v-4.6h27.6v4.6H-104z M-87.9-22.9c0-7.6,6.2-13.8,13.8-13.8
		s13.8,6.2,13.8,13.8S-66.5-9.1-74.1-9.1C-81.7-9.1-87.9-15.2-87.9-22.9z M-56.1-19l15.2,9.1L-65.5,1.4L-67-5.9
		C-61.5-8.2-57.4-13.1-56.1-19z M-36.5-7.3l8,4.8l-34.7,15.4L-64.6,6l28.2-13L-36.5-7.3z M-12.1,32.3h-64.3v-4.6h64.3
		C-12.1,27.7-12.1,32.3-12.1,32.3z M-18.1,23.1h-52.3l2.3-4.6h47.7L-18.1,23.1z M-54.1,13.9l28.2-12.6v12.6H-54.1z M-58.1-31.9
		c-3.2-5.6-9.1-9.3-16-9.3c-3.1,0-6,0.8-8.6,2.2l5.7-18.2h25.2L-58.1-31.9z M-41.9-66.5c0,2.5-2.1,4.6-4.6,4.6h-36.8
		c-2.5,0-4.6-2.1-4.6-4.6v-13.8c0-2.5,2.1-4.6,4.6-4.6h36.8c2.5,0,4.6,2.1,4.6,4.6C-41.9-80.3-41.9-66.5-41.9-66.5z M-20.4-101
		l-2.3,4.6H-29l-2.3-4.6H-20.4z M-28.1-91.8h4.6v6.9h-4.6V-91.8z M-12.1-80.3v4.6h-25.3v-4.6H-12.1z M-37.3-71.1h25.3v4.6h-25.3
		V-71.1z M-31.3-48.1l2.3-4.6h6.4l2.3,4.6H-31.3z M-23.5-57.3h-4.6v-4.6h4.6V-57.3z"/>
</g>
<g id="Layer_3" class="st0">
	<g class="st3">
		<rect x="22.6" y="12.4" class="st7" width="103.7" height="2.6"/>
		<rect x="15.5" y="102" class="st7" width="117.9" height="7.7"/>
		<path class="st7" d="M138.6,86.9c0-20.8,0-41.5,0-62.3c0-4.4-0.3-4.6-4.8-4.6c-20.7,0-41.3,0-61.9,0s-41.3,0-62,0
			c-4.5,0-4.8,0.3-4.8,4.6c0,20.8,0,41.5,0,62.3c0,4.2,0.5,4.7,4.8,4.7c41.3,0,82.6,0,123.9,0C138.1,91.6,138.6,91.1,138.6,86.9z
			 M69.4,44.3c-0.3,0.4-0.7,0.9-1.1,1.3c-9.6,9.6-19.2,19.1-28.9,28.7c-1.4,1.4-2,1.4-3.4,0c-5.4-5.5-10.8-11-16.1-16.6
			c-0.3-0.3-0.5-0.6-0.8-0.9c0-0.3,0-0.6,0-0.9c1.8-1.6,3.5-3.3,5.3-4.9c0.8-0.7,1.6-0.2,2.2,0.5c3.1,3.2,6.2,6.3,9.3,9.4
			c1.5,1.5,2,1.5,3.5,0c7.4-7.4,14.9-14.7,22.3-22.1c1.3-1.3,1.9-1.3,3.2,0c1.5,1.5,3,3.1,4.5,4.6C69.4,43.7,69.4,44,69.4,44.3z
			 M110.7,56.9c3.7,3.6,7.3,7.3,11,10.9c1.3,1.3,1.3,2,0,3.2c-1.9,1.9-3.8,3.8-5.7,5.7c-1.1,1.1-1.9,1.1-3,0
			c-3.7-3.7-7.5-7.4-11.2-11.1c-0.8-0.8-1.3-0.8-2.1,0c-3.5,3.5-7,7-10.5,10.4c-0.3,0.3-0.7,0.7-1,0.9c-0.9,0.7-1.7,0.8-2.4,0
			c-2.2-2.1-4.3-4.2-6.4-6.3c-0.9-0.9-0.8-1.7,0.2-2.7c3.8-3.8,7.5-7.5,11.4-11.2c0.8-0.8,0.8-1.2,0-2c-3.6-3.5-7.2-7.1-10.8-10.6
			c-1.7-1.7-1.7-2.2,0-3.9c1.6-1.6,3.2-3.2,4.8-4.7c2-2,2.3-2,4.3,0c3.5,3.5,7,7,10.5,10.5c0.8,0.8,1.2,0.8,2,0
			c3.7-3.7,7.4-7.4,11.2-11.1c1.2-1.2,1.9-1.2,3.1,0c2,2,3.9,3.9,5.9,5.9c0.4,0.4,0.6,0.9,1,1.5c-0.4,0.6-0.7,1.1-1.1,1.5
			c-3.7,3.7-7.3,7.4-11.1,11C109.8,55.6,109.8,56,110.7,56.9z"/>
		<path class="st5" d="M90.8,142.5c-12.7,0-25.3,0-38,0c-5.1,0-7.2-2.4-6.1-6.5H22.6v8.9h100.2V136H96.9
			C98,140.1,96,142.5,90.8,142.5z"/>
		<path class="st5" d="M61.8,38.8C54.4,46.1,47,53.5,39.5,60.8c-1.5,1.4-2,1.4-3.5,0c-3.1-3.1-6.2-6.3-9.3-9.4
			c-0.7-0.7-1.5-1.1-2.2-0.5c-1.8,1.6-3.5,3.2-5.3,4.9c0,0.3,0,0.6,0,0.9c0.2,0.3,0.5,0.6,0.8,0.9c5.4,5.5,10.7,11.1,16.1,16.6
			c1.4,1.4,2,1.4,3.4,0c9.6-9.6,19.3-19.1,28.9-28.7c0.4-0.4,0.7-0.8,1.1-1.3c0-0.3,0-0.6,0-0.9c-1.5-1.5-3-3.1-4.5-4.6
			C63.7,37.5,63.1,37.5,61.8,38.8z"/>
		<path class="st5" d="M121.7,43.7c0.4-0.4,0.7-0.9,1.1-1.5c-0.4-0.6-0.6-1.1-1-1.5c-1.9-2-3.9-3.9-5.9-5.9c-1.2-1.2-1.9-1.2-3.1,0
			c-3.7,3.7-7.5,7.4-11.2,11.1c-0.8,0.8-1.2,0.8-2,0c-3.5-3.5-7-7-10.5-10.5c-2-2-2.3-2-4.3,0c-1.6,1.6-3.2,3.2-4.8,4.7
			c-1.7,1.7-1.7,2.2,0,3.9c3.6,3.5,7.2,7.1,10.8,10.6c0.8,0.8,0.8,1.2,0,2c-3.8,3.7-7.6,7.5-11.4,11.2c-1,1-1.1,1.8-0.2,2.7
			c2.1,2.1,4.2,4.3,6.4,6.3c0.8,0.8,1.6,0.7,2.4,0c0.3-0.3,0.7-0.6,1-0.9c3.5-3.5,7.1-6.9,10.5-10.4c0.8-0.8,1.3-0.8,2.1,0
			c3.7,3.7,7.4,7.4,11.2,11.1c1.1,1.1,1.9,1.1,3,0c1.9-1.9,3.8-3.8,5.7-5.7c1.3-1.3,1.3-2,0-3.2c-3.7-3.6-7.3-7.3-11-10.9
			c-0.8-0.8-0.8-1.3,0-2.1C114.4,51.1,118.1,47.4,121.7,43.7z"/>
		<path class="st5" d="M134,122c3.3-0.1,6.5-1.5,9.7-2.3c0-36.6,0-73.3,0-109.9c-47.9,0-95.8,0-143.7,0c0,36.7,0,73.3,0,109.9
			c3.2,0.8,6.5,2.2,9.7,2.3c12.6,0.3,25.3,0.1,38,0.1c1.1,0,2.3,0,4.5,0c-1.7,4.4-3,8.1-4.7,11.7c-0.4,0.8-0.6,1.5-0.8,2.2h50.2
			c-0.2-0.7-0.4-1.4-0.8-2.2c-1.6-3.6-2.9-7.3-4.6-11.7c2.2,0,3.3,0,4.5,0C108.7,122.1,121.4,122.3,134,122z M22.6,12.4h103.7V15
			H22.6V12.4z M5.1,86.8c0-20.8,0-41.5,0-62.3c0-4.4,0.3-4.6,4.8-4.6c20.6,0,41.3,0,62,0s41.3,0,62,0c4.5,0,4.8,0.3,4.8,4.6
			c0,20.8,0,41.5,0,62.3c0,4.2-0.5,4.7-4.8,4.7c-41.3,0-82.6,0-123.9,0C5.6,91.6,5.1,91.1,5.1,86.8z M15.5,109.7V102h117.9v7.7H15.5
			z"/>
		<path class="st5" d="M52.9,142.5c12.6,0,25.3,0,38,0c5.1,0,7.2-2.4,6.1-6.5H46.7C45.7,140.1,47.8,142.5,52.9,142.5z"/>
	</g>
</g>
<g id="Layer_4">
	<g id="fNdCKC_1_" class="st8">
		<g>
			<path class="st4" d="M39,122.4c8.1-4.6,16.4-9.3,25.2-14.2c4.7,7.4,9.3,14.6,14,22.1c14.1-22.5,27-45.6,54.7-59
				c-0.1,10.6-2.4,20.4,2.1,29.9c-19.2,10.7-30.7,21.5-55,51.5c-6.4-5.7-12.2-11.8-19.1-16.9C54.2,130.8,46.4,126.8,39,122.4z"/>
			<path class="st4" d="M100.8,39.8c-23.9,0-47.5,0-71.3,0c0-3.4-0.1-6.6,0-9.8c0.1-2.3,2.1-2.9,4.3-2.9c4.5,0,8.9,0,13.4,0
				c1.4,0,2.8-0.1,4.5-0.2c0-5.5,0-10.7,0-15.9c0-7.7,5-11.6,14.6-11.6c8.3,0,13.3,4.5,13.3,11.8c0,5.1,0,10.3,0,16
				c5.2,0,10.2,0,15.3,0c5.2,0,6,0.8,6,5.3C100.8,34.8,100.8,37.2,100.8,39.8z M70.9,17.1c0.1-2.4-2.2-4.5-5-4.5
				c-2.8,0-5.1,1.9-5.1,4.4c-0.1,2.4,2.2,4.5,5,4.5C68.6,21.6,70.9,19.6,70.9,17.1z"/>
			<path class="st4" d="M46.9,13.3c0,2.7,0,5,0,7.8c-5.7,0-11.3,0-16.9,0c-2,0-4.1,0-6.1,0.1c-4,0.4-6.5,2.7-6.5,6.2
				c0,34.2,0,68.4,0,102.6c0,3.7,2.5,6.1,6.8,6.3c5,0.2,10,0.1,14.9,0.1c8,0,12.4,1.8,18.4,7.6c-1.2,0.1-2.1,0.2-3.1,0.2
				c-11.4,0-22.7,0-34.1,0c-8.4,0-11-2.4-11-9.6c0-37.2,0-74.4,0-111.6c0-7.3,2.6-9.6,10.9-9.7C29,13.3,37.7,13.3,46.9,13.3z"/>
			<path class="st4" d="M112.9,73.6c0-12.3,0-24.4,0-36.4c0-2.8,0.1-5.6,0-8.4c0-5.2-2.7-7.5-8.7-7.6c-6.3-0.1-12.7,0-19.3,0
				c0-2.6,0-4.9,0-7.8c1.4,0,2.9,0,4.3,0c7.3,0,14.6-0.1,21.8,0c6.8,0.1,9.7,2.8,9.7,8.7c0,13-0.4,26,0.2,39
				C121.2,66.9,119.4,70.9,112.9,73.6z"/>
			<path class="st4" d="M120.8,121.7c0,5.8,0.1,10.8,0,15.7c-0.1,3.6-2.9,6.4-7.6,6.7c-5,0.3-10.1,0.1-16.1,0.1
				c3.8-3.2,4.8-7.5,10.6-8.1c1.9-0.2,4.7-2.9,4.8-4.5C112.7,126.5,116.9,125,120.8,121.7z"/>
			<path class="st4" d="M99.1,73.1c-18.4,0-36.6,0-54.8,0c-3.4,0-6.9,0.1-10.3-0.1c-0.9,0-1.7-0.8-2.6-1.2c0.8-0.6,1.7-1.6,2.5-1.6
				c9.9-0.1,19.9-0.1,29.8-0.1c10.9,0,21.9,0.1,32.9,0C98.8,70.1,100.2,70.4,99.1,73.1z"/>
			<path class="st4" d="M99.2,81.9c-7.5,0-14.9,0-22.2,0c-14.2,0-28.3,0-42.5-0.1c-1,0-2-1-3-1.5c1-0.4,1.9-1.2,2.9-1.3
				c20.7-0.1,41.4-0.1,62.1-0.1C98.2,78.9,100.2,78.8,99.2,81.9z"/>
			<path class="st4" d="M31.8,90.6c-1-3.4,1.4-2.8,3.2-2.8c17.4,0,34.7,0,52.1,0c3.9,0,7.9,0,11.9,0c1.6,3-0.7,2.9-2.8,2.9
				c-15.2,0-30.4,0-45.6,0C44.4,90.6,38.2,90.6,31.8,90.6z"/>
			<path class="st4" d="M55.4,57.5c-7.3,0-14.7,0-22-0.1c-0.6,0-1.3-0.9-1.9-1.4c0.7-0.5,1.3-1.4,2-1.4c6.7-0.1,13.5-0.2,20.2,0
				c0.8,0,1.7,1.3,2.5,2C55.8,56.9,55.6,57.2,55.4,57.5z"/>
			<path class="st4" d="M55,64.2c-7.7,0-15.4,0-23.2,0c-0.8-1.8-0.5-2.8,1.9-2.8c6.5,0,12.9-0.1,19.4,0.1c1,0,1.9,1.1,2.9,1.7
				C55.7,63.6,55.4,63.9,55,64.2z"/>
		</g>
	</g>
</g>
</svg>
