<?xml version="1.0" encoding="utf-8"?>
<!-- Generator: Adobe Illustrator 24.3.0, SVG Export Plug-In . SVG Version: 6.00 Build 0)  -->
<svg version="1.1" id="Layer_1" xmlns="http://www.w3.org/2000/svg" xmlns:xlink="http://www.w3.org/1999/xlink" x="0px" y="0px"
	 viewBox="0 0 454.9 288.9" style="enable-background:new 0 0 454.9 288.9;" xml:space="preserve">
<style type="text/css">
	.st0{enable-background:new    ;}
	.st1{fill:#FAFBFC;}
	.st2{fill:#C32F42;}
</style>
<g class="st0">
	<path class="st1" d="M107.9,70.2c-2.8,1.4-9,2.9-17.1,2.9c-23,0-34.8-14.3-34.8-33.3C56,17.1,72.2,4.5,92.3,4.5
		c7.8,0,13.7,1.6,16.4,3l-3.1,11.9c-3.1-1.3-7.3-2.5-12.6-2.5c-11.9,0-21.2,7.2-21.2,22c0,13.3,7.9,21.7,21.3,21.7
		c4.5,0,9.6-1,12.5-2.2L107.9,70.2z"/>
	<path class="st1" d="M112.8,5.6h15.1v53.9h26.5v12.6h-41.6V5.6z"/>
	<path class="st1" d="M215.5,38.1c0,21.8-13.2,35-32.7,35c-19.7,0-31.3-14.9-31.3-33.9c0-19.9,12.7-34.8,32.4-34.8
		C204.3,4.5,215.5,19.8,215.5,38.1z M167.4,39c0,13,6.1,22.2,16.2,22.2c10.2,0,16-9.7,16-22.6c0-11.9-5.7-22.2-16.1-22.2
		C173.3,16.4,167.4,26.1,167.4,39z"/>
	<path class="st1" d="M235.4,5.6v38.3c0,11.4,4.3,17.3,12,17.3c7.9,0,12.2-5.5,12.2-17.3V5.6h15v37.3c0,20.5-10.4,30.3-27.7,30.3
		c-16.8,0-26.6-9.3-26.6-30.5V5.6H235.4z"/>
	<path class="st1" d="M282.8,6.5c5.5-0.9,12.7-1.4,20.3-1.4c12.6,0,20.8,2.3,27.2,7.1c6.9,5.1,11.3,13.3,11.3,25.1
		c0,12.7-4.6,21.5-11.1,26.9c-7,5.8-17.7,8.6-30.7,8.6c-7.8,0-13.3-0.5-17.1-1V6.5z M297.9,60.7c1.3,0.3,3.4,0.3,5.2,0.3
		c13.6,0.1,22.5-7.4,22.5-23.3c0.1-13.8-8-21.1-20.9-21.1c-3.4,0-5.5,0.3-6.8,0.6V60.7z"/>
</g>
<g class="st0">
	<path class="st2" d="M74.2,97.6v66.5H59.1V97.6H74.2z"/>
</g>
<g class="st0">
	<path class="st1" d="M138.4,138.6c-0.3-8-0.6-17.7-0.6-27.3h-0.3c-2.1,8.5-4.8,18-7.4,25.8l-8.1,26h-11.7l-7.1-25.8
		c-2.2-7.8-4.4-17.3-6-26H97c-0.4,9-0.7,19.2-1.2,27.5l-1.2,25.3H80.7l4.2-66.5h20l6.5,22.2c2.1,7.7,4.1,16,5.6,23.8h0.3
		c1.9-7.7,4.1-16.5,6.3-23.9l7.1-22.1h19.6l3.7,66.5h-14.7L138.4,138.6z"/>
	<path class="st1" d="M161.2,148.6c4,2.1,10.3,4.1,16.7,4.1c6.9,0,10.6-2.9,10.6-7.2c0-4.1-3.2-6.5-11.2-9.4
		c-11.1-3.8-18.3-10-18.3-19.6c0-11.3,9.5-20,25.2-20c7.5,0,13,1.6,17,3.4l-3.4,12.1c-2.7-1.3-7.4-3.2-13.9-3.2
		c-6.5,0-9.7,3-9.7,6.4c0,4.2,3.8,6.1,12.3,9.4c11.7,4.3,17.3,10.5,17.3,19.8c0,11.2-8.6,20.6-26.8,20.6c-7.6,0-15.1-2-18.9-4
		L161.2,148.6z"/>
</g>
<g id="_x38_piKwq.tif">
	<g>
		<g>
			<path class="st1" d="M314.5,122.1c1.3,0.1,2.5,0,3.7,0.2c6.4,1.1,10.8,5.4,13.1,12.2c2.4,7,1.7,13.9-2.1,20.1
				c-3.4,5.5-8.1,8.1-14,7.9c-2.6-0.1-5.3,0-7.9,0c-20.1,0-40.2,0-60.2,0c-5.9,0-11.1-2.1-15.3-7c-6.7-7.8-6.3-20,0.8-27.3
				c2.1-2.1,4.4-3.7,7-4.7c0.5-0.2,0.7-0.4,0.7-1c0.3-13.1,8.4-24.1,19.2-27.2c9.7-2.8,18.3-0.4,25.8,7.4c0.7,0.7,1.3,1.5,1.8,2.3
				c0.3,0.4,0.6,0.5,1,0.4c6.9-2.1,13.2-0.9,19,4c3.7,3.1,6.1,7.2,7.3,12.3C314.4,121.8,314.4,121.9,314.5,122.1z M282.6,118.6
				c-0.7-1,2.6-8.1-6.4-13.2c-6.4-3.7-16.1-4.8-21.2-0.7c-16.1,12.7-7.5,25.2-7.6,25.2c-0.4,0.1-6,0-10.2,5.6
				c-5.5,5.7-4.2,13.4,3,16.6c8.4,5.3,16.8,3.3,21.4,3.3c16.8,2,30.7,1.1,42.2-1.1c2.7,0,13.4,2.2,19.6-4.8
				c4.8-4.3,6.2-6.7,3.8-13.3c-2.3-6.3-8.1-10.7-14.7-8.4c-0.5,0.2-4.4,2.9-5,3.1c0.7-7.9,0.4-10.8-5.1-14.3
				C293.5,109.6,288.2,115.7,282.6,118.6z"/>
			<path class="st1" d="M262.5,105.5c0.4,0.7,6.2,1.8,6.6,2.5c-5.5,4.7-12.5,13-12.2,21.2c-0.6,0.1-2.9-2.5-3.5-2.4
				C251.6,121.4,256.3,110.3,262.5,105.5z"/>
		</g>
	</g>
</g>
<g id="Vduzhb_2_">
	<g>
		<path class="st1" d="M356.6,255.7c-2.9,0-5.8-0.1-8.7,0c-4.3,0.3-7.1,2.7-8.5,6.7c-1,2.8-1.7,5.7-2.7,8.5
			c-1.5,4.2-2.8,8.4-4.3,12.6c-0.2,0.6-0.5,0.8-1.1,0.8c-2.7,0-5.4,0-8.1,0c-0.7,0-1.1-0.1-0.8-0.9c2.6-7.7,4.8-15.5,7.7-23
			c2.8-7.2,8.5-11.2,16.3-11.5c6.8-0.3,13.6-0.1,20.4-0.1c1,0,1,0.3,0.7,1.1c-0.5,1.6-1,3.3-1.5,4.9c-0.2,0.7-0.6,1-1.3,0.9
			c-2.7,0-5.4,0-8,0C356.6,255.7,356.6,255.7,356.6,255.7z"/>
		<path class="st2" d="M364.1,284.2c-1.3,0-2.5-0.1-3.8,0c-1.2,0.1-1.4-0.2-1.1-1.4c1.3-4.2,2.5-8.4,3.8-12.6
			c1.2-3.9,2.4-7.9,3.5-11.8c0.3-0.9,0.7-1.2,1.6-1.1c2.5,0.1,5.1,0.1,7.6,0c1.4-0.1,1.4,0.4,1.1,1.5c-1.8,6-3.5,12-5.3,18
			c-0.6,2-1.2,4-1.7,6c-0.3,1-0.7,1.5-1.8,1.4C366.6,284.1,365.3,284.2,364.1,284.2L364.1,284.2z"/>
		<path class="st1" d="M351.6,284.2c-1.3,0-2.6-0.1-3.9,0c-0.9,0.1-1.2-0.2-0.9-1.2c1.3-4,2.4-8,3.6-11.9c0.5-1.5,0.9-3,1.3-4.5
			c0.2-0.7,0.5-1.1,1.3-1.1c2.7,0.1,5.4,0.1,8.1,0c0.9,0,1,0.3,0.8,1.1c-1.7,5.5-3.3,11.1-4.9,16.6c-0.2,0.7-0.5,1-1.3,0.9
			C354.4,284.2,353,284.3,351.6,284.2z"/>
		<path class="st1" d="M342.5,272.5c-1.2,0-2.4,0-3.5,0c-0.7,0-1.1-0.1-0.8-1c0.4-1.2,0.7-2.4,1.1-3.6c0.5-1.5,1.6-2.2,3-2.3
			c2.5-0.1,5,0,7.5,0c0.7,0,0.8,0.3,0.6,0.9c-0.4,1.3-0.8,2.6-1.3,3.8c-0.5,1.3-1.5,2.1-2.9,2.1C345,272.5,343.7,272.4,342.5,272.5
			L342.5,272.5z"/>
		<path class="st1" d="M360.4,257.3c1.2,0,2.4,0,3.7,0c0.7,0,1,0.2,0.7,0.9c-0.4,1.2-0.8,2.4-1.2,3.6c-0.5,1.5-1.6,2.3-3.2,2.3
			c-2.4,0.1-4.9,0-7.3,0.1c-0.7,0-0.8-0.2-0.6-0.9c0.4-1.2,0.7-2.4,1.1-3.6c0.5-1.5,1.5-2.3,3.1-2.4
			C357.9,257.3,359.2,257.3,360.4,257.3L360.4,257.3z"/>
		<path class="st2" d="M380.1,248.8c-0.6,1.7-1,3.4-1.6,4.9c-0.5,1.1-1.4,1.8-2.6,1.9c-2.5,0.1-5.1,0-7.6,0.1
			c-0.7,0-0.8-0.3-0.6-0.9c0.4-1.3,0.8-2.5,1.2-3.8c0.4-1.3,1.4-2.1,2.7-2.2C374.3,248.7,377.1,248.8,380.1,248.8z"/>
		<path class="st1" d="M406.8,264.5c0-0.9,0.1-1.6,0-2.4c-0.1-0.7,0.3-0.9,0.9-0.9s1.1,0,1.1,0.8c0,2.9,0,5.9,0,8.8
			c0,0.3,0.1,0.8-0.4,0.8s-1.2,0.3-1.4-0.2c-0.2-0.4-0.2-0.5-0.7-0.2c-2.2,1.3-4.3,0.4-4.9-2.1c-0.2-0.9-0.2-1.7,0-2.6
			C402.1,264,403.9,263.2,406.8,264.5z M403.5,267.9c0,1.4,0.7,2.2,1.7,2.2s1.7-0.9,1.7-2.2c0-1.4-0.7-2.4-1.7-2.4
			C404.1,265.5,403.5,266.4,403.5,267.9z"/>
		<path class="st1" d="M433.1,280.9c-0.7,0-1.3,0-2,0c-0.9,0-0.9,0.4-0.6,1c0.5,1,1.8,1.3,2.7,0.6c0.8-0.6,1.9-0.9,2.3-0.2
			c0.4,0.6-0.6,1.3-1.3,1.7c-1.5,0.9-3.8,0.6-5-0.6s-1.4-3.8-0.4-5.4c0.9-1.4,2.8-2,4.5-1.5c1.5,0.5,2.4,1.8,2.5,3.5
			c0,0.7-0.1,1-0.9,0.9C434.4,280.9,433.8,280.9,433.1,280.9L433.1,280.9z M432,279.6c0.6-0.2,1.6,0.4,1.7-0.5s-0.7-1.2-1.5-1.2
			c-0.7,0-1.5,0.3-1.5,1.1C430.6,280,431.6,279.3,432,279.6z"/>
		<path class="st1" d="M410.7,280.9c-0.7,0-1.3,0-2,0c-0.9,0-0.8,0.4-0.5,1c0.5,1,1.8,1.3,2.7,0.5c0.7-0.7,1.9-0.7,2.2-0.3
			c0.5,0.7-0.5,1.3-1.1,1.8c-1.7,1.2-4.4,0.7-5.5-1c-1.2-1.8-0.7-4.8,0.9-6c1.6-1.1,4.2-0.8,5.3,0.8c0.2,0.2,0.3,0.4,0.4,0.7
			c0.9,2,0.5,2.5-1.5,2.6C411.3,280.9,410.9,280.9,410.7,280.9L410.7,280.9z M409.7,279.6c0.5-0.3,1.5,0.4,1.6-0.5
			c0.1-0.8-0.8-1.1-1.6-1.1c-0.8,0-1.5,0.4-1.5,1.1C408.2,280.1,409.2,279.3,409.7,279.6z"/>
		<path class="st1" d="M389,253.8c0-1.5,0-2.9,0-4.3c0-0.6,0.2-0.8,0.8-0.8c1.9,0.1,3.8,0.1,5.8,0c0.7,0,0.9,0.2,0.9,0.9
			c0,0.6,0,1-0.8,1c-1.2-0.1-2.4,0-3.5,0c-0.9-0.1-1,0.4-0.9,1.1c0.1,0.6-0.2,1.4,0.9,1.3c0.9-0.1,1.9,0,2.8,0
			c0.7,0,1.1,0.1,1.1,0.9c0,0.8-0.3,1-1,0.9c-1-0.1-1.9,0-2.9,0c-0.6,0-0.9,0.2-0.8,0.8c0.1,0.8,0,1.6,0,2.4
			c0.1,0.9-0.2,1.2-1.1,1.2s-1.1-0.4-1.1-1.1C389.1,256.6,389,255.2,389,253.8L389,253.8z"/>
		<path class="st1" d="M421.1,255.3c0-2.5,1.6-4.1,4-4.1s4,1.7,4,4.3c-0.1,2.4-1.7,4-3.9,4C422.6,259.4,421.1,257.8,421.1,255.3z
			 M423.2,255.3c0,1.5,0.7,2.4,1.9,2.3c1,0,1.8-1,1.8-2.4c0-1.5-0.7-2.4-1.9-2.4C423.8,253,423.2,253.8,423.2,255.3z"/>
		<path class="st1" d="M447.7,268.2c0.1,0.9-0.2,1.9,0.3,2.9c0.2,0.4,0.1,0.7-0.3,0.6c-0.6-0.1-1.3,0.3-1.8-0.4
			c-0.4-0.6-0.7,0.1-1.1,0.3c-1.7,0.9-3.4,0.2-3.8-1.6c-0.2-1.3,0.3-2.2,1.5-2.5c0.7-0.2,1.5-0.3,2.2-0.5c0.5-0.1,1-0.2,1-0.8
			c0-0.7-0.7-0.7-1.2-0.7c-0.5-0.1-0.9,0.1-1.1,0.5c-0.5,0.9-1.5,0.7-1.9,0.3c-0.5-0.4,0.1-1.2,0.5-1.6c1.3-1.2,2.9-1.1,4.4-0.6
			c1.3,0.4,1.5,1.5,1.4,2.6C447.7,267.2,447.7,267.6,447.7,268.2z M444.1,270.4c0.9,0,1.7-0.9,1.7-1.8c0-0.4-0.1-0.6-0.5-0.5
			c-0.8,0.3-2.1,0-2.2,1.3C442.9,270.2,443.5,270.4,444.1,270.4z"/>
		<path class="st1" d="M404.9,255.5c-0.1,2.5-1.7,4-4.1,3.9c-2.3-0.1-3.8-1.7-3.8-4.2c0.1-2.6,1.7-4.2,4.2-4
			C403.5,251.3,405,253,404.9,255.5z M402.7,255.3c0-1.5-0.6-2.4-1.8-2.4c-1.1,0-1.9,0.9-1.8,2.4c0,1.4,0.7,2.3,1.8,2.3
			C402.1,257.7,402.7,256.9,402.7,255.3z"/>
		<path class="st1" d="M430.3,255.3c0-0.9,0-1.8,0-2.8c0-0.4-0.2-0.9,0.3-1s1.2-0.3,1.5,0.1c0.4,0.5,0.5,0.4,1,0.1
			c1.9-1.2,4.1,0,4.2,2.2c0.1,1.5,0,2.9,0,4.3c0,0.8-0.4,0.9-1,0.9c-0.7,0-1.1-0.1-1.1-1c0.1-1.3,0-2.5,0-3.8c0-0.9-0.4-1.5-1.3-1.4
			c-0.9,0-1.4,0.5-1.4,1.4c-0.1,1.3-0.1,2.5-0.1,3.8c0,0.8-0.3,1.1-1.1,1.1s-1.1-0.3-1-1.1C430.4,257.2,430.3,256.2,430.3,255.3
			L430.3,255.3z"/>
		<path class="st1" d="M400.1,281.1c0,0.7,0,1.4,0,2.1c0.1,0.9-0.3,1.2-1.2,1.2c-1,0.1-0.9-0.6-0.9-1.2c0-1.2,0-2.4,0-3.7
			c0-0.9-0.3-1.6-1.3-1.6c-1.1-0.1-1.5,0.7-1.6,1.6c-0.1,1.2-0.1,2.4,0,3.5c0,0.8-0.1,1.1-1.1,1.1s-1-0.5-1-1.2c0-1.8,0-3.7,0-5.5
			c0-0.4-0.3-1,0.4-1.1c0.5-0.1,1.2-0.3,1.5,0.3c0.2,0.4,0.3,0.3,0.6,0.1c2.4-1.4,4.4-0.3,4.4,2.6
			C400.1,280,400.1,280.6,400.1,281.1L400.1,281.1z"/>
		<path class="st1" d="M420.1,280.4c0-1,0-1.9,0-2.9c0-0.4-0.2-0.9,0.3-1s1.2-0.4,1.5,0.3c0.3,0.6,0.4,0.3,0.7,0.1
			c2.2-1.4,4.3-0.3,4.4,2.2c0.1,1.4,0,2.8,0.1,4.2c0.1,1-0.6,0.9-1.2,0.9c-0.7,0.1-0.9-0.2-0.9-0.9c0-1.2,0-2.4,0-3.7
			c0-0.9-0.3-1.6-1.3-1.6c-1.1-0.1-1.5,0.6-1.5,1.6c-0.1,1.2-0.1,2.4,0,3.7c0.1,0.9-0.4,0.9-1.1,1c-0.7,0-1-0.2-1-1
			C420.1,282.3,420.1,281.3,420.1,280.4L420.1,280.4z"/>
		<path class="st1" d="M439,255.3c0-0.9,0-1.7,0-2.6c0-0.4-0.3-1,0.3-1.2c0.5-0.1,1.3-0.4,1.7,0.3c0.3,0.4,0.3,0.3,0.6,0.1
			c1-0.8,2.1-0.7,3.2-0.2s1.3,1.6,1.3,2.7c0,1.3,0,2.6,0,3.9c0,0.9-0.5,1-1.1,1c-0.7,0-1-0.2-1-1c0.1-1.2,0-2.4,0-3.7
			c0-0.9-0.3-1.6-1.3-1.6c-0.9,0-1.5,0.6-1.5,1.5c-0.1,1.3-0.1,2.5,0,3.8c0,0.8-0.4,0.9-1,0.9s-1.1,0-1.1-0.9
			C439.1,257.3,439,256.3,439,255.3L439,255.3z"/>
		<path class="st1" d="M422.6,271.9c-1.3,0-2.4-0.1-3.2-1.1c-0.4-0.4-0.8-1.2-0.4-1.5c0.5-0.4,1.5-0.6,2,0.2
			c0.5,0.7,1.1,0.7,1.9,0.7c0.5,0,0.9-0.1,1-0.7c0.1-0.5-0.4-0.6-0.8-0.7c-0.8-0.2-1.6-0.5-2.4-0.7c-0.9-0.3-1.5-0.8-1.5-1.8
			c-0.1-0.9,0.3-1.7,1.1-2.2c1.2-0.8,3.5-0.7,4.6,0.2c0.5,0.4,1.1,1.2,0.7,1.6s-1.4,0.5-2-0.2c-0.2-0.2-0.4-0.5-0.6-0.5
			c-0.6-0.1-1.5-0.4-1.7,0.4c-0.3,0.8,0.6,0.8,1.1,0.9c0.6,0.2,1.3,0.3,1.9,0.5c1,0.3,1.7,0.9,1.7,2.1s-0.7,1.9-1.7,2.3
			C423.7,271.9,423.1,271.9,422.6,271.9z"/>
		<path class="st1" d="M393,267.8c0-0.9,0-1.9,0-2.8c0-0.4-0.2-0.9,0.3-1s1.3-0.3,1.6,0.1c0.3,0.5,0.4,0.4,0.8,0.1
			c2.1-1.3,4.3-0.1,4.4,2.4c0,1.4-0.1,2.7,0,4.1c0.1,0.9-0.5,0.9-1.1,1c-0.7,0.1-1-0.2-1-0.9c0.1-1.2,0-2.4,0-3.5
			c0-0.9-0.2-1.7-1.3-1.7c-1.1,0-1.5,0.7-1.5,1.7c0,1.1-0.1,2.3,0,3.4c0,0.8-0.1,1.1-1,1.1s-1.1-0.3-1.1-1.1
			C393.1,269.6,393,268.7,393,267.8L393,267.8z"/>
		<path class="st1" d="M417.5,267.7c0,1,0,1.9,0,2.9c0,0.4,0.2,1-0.5,1c-0.5,0-1.2,0.4-1.5-0.4c-0.2-0.6-0.4-0.1-0.6,0
			c-2.5,1.5-4.3,0.5-4.4-2.4c0-1.3,0-2.6,0-3.9c0-0.8,0.3-0.9,1-0.9s1.2,0.1,1.1,1c-0.1,1.3,0,2.5,0,3.8c0,0.8,0.3,1.4,1.2,1.4
			c0.9,0,1.5-0.4,1.5-1.3c0.1-1.3,0.1-2.6,0.1-3.9c0-0.9,0.4-1,1.1-1c0.8,0,1.1,0.2,1,1.1C417.4,265.9,417.5,266.8,417.5,267.7
			L417.5,267.7z"/>
		<path class="st1" d="M409.1,253.5c0.3-0.6,0.6-1,0.8-1.5c0.3-0.5,1.9-0.9,2.3-0.6c0.3,0.2,0.1,0.5,0,0.7c-0.5,0.8-1,1.5-1.6,2.3
			c-0.4,0.6-0.4,1.1,0,1.6c0.6,0.8,1.1,1.6,1.6,2.4c0.3,0.5,0.3,0.7-0.4,0.8c-1.1,0.1-2-0.1-2.4-1.3c-0.1-0.3-0.4-0.6-0.6-0.9
			c-0.3,0.5-0.7,0.9-0.9,1.4c-0.5,1.2-1.5,0.8-2.4,0.8c-0.5,0-0.3-0.5-0.1-0.7c0.5-0.8,1-1.5,1.6-2.2c0.5-0.6,0.6-1.1,0.1-1.8
			c-0.7-0.9-1.2-1.8-1.8-2.7C407.4,251.2,407.4,251.2,409.1,253.5z"/>
		<path class="st1" d="M415.3,255.6c0.1,0.7,0,1.7,1.1,2c0.7,0.2,1.3,0.1,1.7-0.7c0.1-0.3,0.2-0.6,0.6-0.6c0.5,0,1.1-0.3,1.5,0.2
			c0.3,0.4-0.1,0.9-0.4,1.3c-0.9,1.3-2.2,1.7-3.7,1.5c-1.4-0.2-2.3-1-2.6-2.4c-0.4-1.8-0.4-3.6,1.1-5c1.3-1.1,2.8-0.9,4.3-0.3
			c0.5,0.2,0.9,0.6,1.1,1.1c0.2,0.4,0.7,1,0.1,1.3c-0.5,0.3-1.4,0.4-1.8-0.1c-0.6-0.8-1.1-1.3-2-0.8c-0.9,0.4-0.8,1.3-0.9,2.2
			C415.3,255.3,415.3,255.4,415.3,255.6z"/>
		<path class="st1" d="M402,280.7c0-0.6,0-1.1,0-1.7c0-0.5,0.1-0.9-0.6-1.1s-0.7-1.1-0.2-1.3c0.9-0.3,0.9-0.7,0.8-1.4
			c-0.1-0.9,0.4-1,1.1-1c0.8,0,1,0.3,0.9,1c-0.1,0.6-0.1,1.3,0.9,1.2c0.4,0,0.4,0.3,0.4,0.7c0,0.4,0,0.8-0.5,0.7
			c-0.9-0.1-0.8,0.6-0.8,1.1c0,0.7,0,1.5,0,2.2s-0.2,1.4,0.9,1.5c0.6,0.1,0.3,0.6,0.3,1s-0.3,0.5-0.6,0.5c-1.9,0.3-2.7-0.4-2.7-2.3
			C402,281.5,402,281.1,402,280.7z"/>
		<path class="st1" d="M427.6,268c0-0.6,0-1.1,0-1.7c0-0.5,0-0.7-0.6-0.9c-0.7-0.3-0.7-1.1-0.1-1.3c0.9-0.2,0.8-0.7,0.7-1.3
			c-0.1-0.9,0.3-1,1.1-1c0.8,0,1,0.3,0.9,1c-0.1,0.6-0.1,1.2,0.9,1.2c0.5,0,0.4,0.5,0.4,0.8s-0.1,0.6-0.5,0.7c-0.2,0-0.5,0-0.6,0.1
			c-0.6,0.5-0.1,4.5,0.6,4.6c0.6,0.1,0.5,0.5,0.5,0.9c0,0.5-0.3,0.6-0.7,0.7c-1.8,0.2-2.6-0.5-2.6-2.3
			C427.6,269,427.6,268.5,427.6,268L427.6,268z"/>
		<path class="st1" d="M437.4,280.6c0-0.6,0-1.1,0-1.7c0-0.5,0-0.8-0.6-0.9c-0.8-0.2-0.8-1.1-0.2-1.3c0.9-0.3,0.9-0.7,0.8-1.3
			c-0.1-0.8,0.3-1,1-1s1.1,0.1,1,0.9c-0.1,0.6-0.2,1.3,0.8,1.3c0.4,0,0.5,0.3,0.5,0.7c0,0.3,0.1,0.8-0.5,0.8c-0.9,0-0.8,0.5-0.8,1.1
			c0,0.8,0,1.7,0,2.5c0,0.6,0,1.1,0.8,1.2c0.6,0.1,0.4,0.6,0.4,0.9c0.1,0.5-0.3,0.6-0.7,0.6c-1.9,0.1-2.6-0.3-2.6-2.1
			C437.4,281.6,437.3,281.1,437.4,280.6C437.3,280.6,437.3,280.6,437.4,280.6z"/>
		<path class="st1" d="M434.1,264.8c0.4-0.3,0.6-0.6,0.9-0.7c0.4-0.2,0.9-0.5,1.3-0.2s0.2,0.9,0.2,1.3c0,0.7-0.5,0.6-0.9,0.7
			c-1,0.1-1.5,0.7-1.5,1.7c-0.1,1.1-0.1,2.2-0.1,3.3c0,0.8-0.3,1-1,0.9c-0.7,0-1.1-0.1-1.1-0.9c0-1.9,0-3.8,0-5.6
			c0-0.5-0.3-1.2,0.5-1.2C433.2,263.9,434,263.7,434.1,264.8z"/>
		<path class="st1" d="M389,279c0-1.5,0.1-3,0-4.4c-0.1-1,0.5-0.9,1.1-0.9c0.7,0,1,0.1,1,0.9c-0.1,2.9-0.1,5.8,0,8.7
			c0,0.9-0.4,0.9-1.1,1c-0.8,0-1.1-0.2-1-1C389.1,281.8,389,280.4,389,279z"/>
		<path class="st1" d="M389,266.5c0-1.4,0.1-2.8,0-4.2c0-0.8,0.2-1.1,1-1c0.7,0,1.1,0,1.1,1c-0.1,2.8-0.1,5.6,0,8.4
			c0,0.9-0.5,0.9-1.1,0.9c-0.8,0.1-1.1-0.2-1-1C389.1,269.2,389,267.9,389,266.5L389,266.5z"/>
		<path class="st1" d="M451.6,266.5c0,1.5,0,2.9,0,4.3c0,0.8-0.4,0.8-1,0.8c-0.5,0-1.2,0.2-1.1-0.8c0-2.9,0-5.8,0-8.8
			c0-1,0.6-0.7,1.1-0.8c0.6,0,1.1,0,1,0.9C451.6,263.6,451.6,265.1,451.6,266.5L451.6,266.5z"/>
		<path class="st1" d="M416.5,277.5c0.5-0.4,0.7-0.7,1-0.9c0.4-0.3,0.9-0.5,1.3-0.3c0.5,0.3,0.2,1,0.2,1.5c0,0.6-0.5,0.5-0.9,0.5
			c-1.1,0.1-1.5,0.8-1.5,1.8c0,1.1-0.1,2.2,0,3.3c0.1,0.8-0.4,0.8-1,0.8s-1.1,0.1-1.1-0.8c0.1-1.9,0-3.8,0-5.8
			c0-0.5-0.3-1.2,0.6-1.2C415.8,276.4,416.7,276.1,416.5,277.5z"/>
		<path class="st1" d="M439.6,267.8c0,0.9,0,1.7,0,2.6c0,0.7,0,1.2-1,1.3c-1.1,0-1.1-0.5-1.1-1.3c0-1.9,0.1-3.8,0-5.6
			c0-0.9,0.5-0.9,1.1-0.9c0.7,0,1.1,0.1,1.1,0.9C439.5,265.8,439.6,266.9,439.6,267.8L439.6,267.8z"/>
		<path class="st1" d="M438.5,263c-0.7,0.1-1-0.1-1-0.9s0.3-1,1.1-1c0.7,0,1,0.2,1,0.9C439.6,262.9,439.2,263.1,438.5,263z"/>
	</g>
</g>
</svg>
