<?xml version="1.0" encoding="utf-8"?>
<!-- Generator: Adobe Illustrator 24.3.0, SVG Export Plug-In . SVG Version: 6.00 Build 0)  -->
<svg version="1.1" id="Layer_1" xmlns="http://www.w3.org/2000/svg" xmlns:xlink="http://www.w3.org/1999/xlink" x="0px" y="0px"
	 viewBox="0 0 760.3 179.4" style="enable-background:new 0 0 760.3 179.4;" xml:space="preserve">
<style type="text/css">
	.st0{fill:#796484;}
	.st1{fill:none;stroke:#301F3D;stroke-width:10;stroke-miterlimit:10;}
	.st2{fill:#301F3D;}
</style>
<rect class="st0" width="760.3" height="179.4"/>
<g>
	<g id="XwxrBe_1_">
		<g>
			<path class="st1" d="M357,131.5c-1.8,2.9-3,5-4.6,7.5c-17.8-11.1-27.8-26.9-28.7-47.4c-1.1-24.4,9.4-43.4,31-54.9
				c23.5-12.5,45.8-8.6,66.7,7.7c2.5-2.7,5-5.5,7.5-8.3c-18.6-20.5-62.1-28.6-94-0.8c-30.2,26.3-36.2,84.8,11.4,115.2
				c-1.2,2.5-2.4,5-4.2,8.7c9.8-2.3,18.5-4.3,28.5-6.7C366,145.4,361.7,138.7,357,131.5z"/>
			<path class="st2" d="M349.8,85.9c0,2.9,0,5.1,0,8.1c7.8,0,15.5-0.1,23.1,0.1c2.5,0.1,5.1,0.8,7.4,1.8c3.8,1.6,7.1,1.4,9.6-1.9
				c2.5-3.2,1.5-6.2-0.7-9.3c-1.3-1.8-2.2-4.2-2.3-6.4c-0.2-10.9-0.1-21.9,0-32.8c0-3.2-0.4-5.3-5.2-3.8c0,7.9,0,16.1,0,24.3
				c0,4,0,7.9,0,11.9c0,6.4-1.5,7.8-8.1,7.9C365.8,85.9,357.9,85.9,349.8,85.9z"/>
			<path class="st2" d="M440.7,46.8c-4.4,3.2-7.4,5.4-10,7.3c3.3,7.5,6.3,14.5,9.6,21.9c3.2-0.8,6.8-1.8,11.8-3.1
				C448.3,64.2,444.7,56,440.7,46.8z"/>
			<path class="st2" d="M447,117.9c-3.7-2.6-6.9-4.8-10.1-7.1c-3.2,5.3-6.2,10.2-9.5,15.6c2.7,2.4,5.6,4.9,9.1,8.1
				C440.1,128.8,443.4,123.5,447,117.9z"/>
			<path class="st2" d="M453.5,86.4c-4.8,0-8.3,0-12.2,0c-0.6,4.6-1.3,9-1.6,13.4c-0.1,1.2,1.1,3,2.2,3.7c2.3,1.5,5,2.5,8.7,4.3
				C451.6,100.5,452.5,93.8,453.5,86.4z"/>
			<path class="st2" d="M407.8,155.1c5.9-3.3,11.2-6.3,17-9.6c-2.7-3.7-4.8-6.6-7.1-9.8c-4.8,2.6-9.3,5.2-14.4,8
				C404.7,147.2,406.1,150.8,407.8,155.1z"/>
			<path class="st2" d="M392.1,146.7c-13.1,0.3-13.9,0.9-15.4,11.9c5.7,0,11.4,0,17.5,0c-0.3-2.2-0.4-3.6-0.6-5
				C393.2,151.4,392.7,149.2,392.1,146.7z"/>
		</g>
	</g>
	<circle class="st2" cx="431.9" cy="91.4" r="3"/>
	<circle class="st2" cx="333.9" cy="91.4" r="3"/>
	<circle class="st2" cx="383.2" cy="139.8" r="3"/>
	<circle class="st2" cx="384.3" cy="38.2" r="3"/>
</g>
</svg>
