<?xml version="1.0" encoding="utf-8"?>
<!-- Generator: Adobe Illustrator 24.3.0, SVG Export Plug-In . SVG Version: 6.00 Build 0)  -->
<svg version="1.1" id="Layer_1" xmlns="http://www.w3.org/2000/svg" xmlns:xlink="http://www.w3.org/1999/xlink" x="0px" y="0px"
	 viewBox="0 0 496 496" style="enable-background:new 0 0 496 496;" xml:space="preserve">
<style type="text/css">
	.st0{fill:#9D9E9E;}
</style>
<path class="st0" d="M272,264h-16v16h-16v16h16v16h16v-16h16v-16h-16V264z"/>
<path class="st0" d="M-29,216v-80h-40v-30.1L-48,64h-89.9l20.9,41.9V136h-20.5c-5.5-9.5-15.8-16-27.5-16h-128c-17.6,0-32,14.4-32,32
	h-40v-32h-120c-22,0-40,17.9-40,40v8h88v16h-88v8c0,22.1,18,40,40,40h120v-32h40c0,17.6,14.4,32,32,32h5.1l-26.5,84.8
	C-321.1,326.9-325,339-325,352c0,35.3,28.7,64,64,64c3.2,0,6.2-0.3,9.3-0.8l12.9,64.8h-11.2l-16,32H-285v48h256v-48h-19l-16-32h-13
	v-60.5l-118.8-71.3l29-116.2h1.8c11.8,0,22-6.5,27.5-16h20.5v22.1l-21,41.9h89.9L-69,238.1V216H-29z M-507.6,152
	c3.3-9.3,12.2-16,22.6-16h104v16H-507.6z M-381,216h-104c-10.4,0-19.3-6.7-22.6-16H-381V216z M-365,184h-56v-16h96v16H-365z
	 M-309,352c0-26.5,21.5-48,48-48s48,21.5,48,48s-21.5,48-48,48S-309,378.5-309,352z M-198.4,365.3l52.8,31.7l-85.6,39.5l-5.1-25.5
	C-217.2,403-202.8,386-198.4,365.3z M-130.1,406.3l27.8,16.7l-120.8,53.7l-4.8-24l98.3-45.4L-130.1,406.3z M-45,544h-224v-16h224
	V544z M-66,512h-182.1l8-16h166.1L-66,512z M-191.3,480l98.3-43.7V480H-191.3z M-205.4,320.5c-11-19.4-31.8-32.5-55.6-32.5
	c-10.8,0-21,2.7-30,7.5l19.8-63.5h87.9L-205.4,320.5z M-149,200c0,8.8-7.2,16-16,16h-128c-8.8,0-16-7.2-16-16v-48
	c0-8.8,7.2-16,16-16h128c8.8,0,16,7.2,16,16V200z M-74,80l-8,16h-22.1l-8-16H-74z M-101,112h16v24h-16V112z M-45,152v16h-88v-16H-45
	z M-133,184h88v16h-88V184z M-112,264l8-16h22.1l8,16H-112z M-85,232h-16v-16h16V232z"/>
<path class="st0" d="M234.9,125.3c-8.8,0-16,7.2-16,16c0,8.8,7.2,16,16,16c8.8,0,16-7.2,16-16C250.9,132.5,243.8,125.3,234.9,125.3z
	 M234.9,146.7c-2.9,0-5.3-2.4-5.3-5.3s2.4-5.3,5.3-5.3s5.3,2.4,5.3,5.3S237.9,146.7,234.9,146.7z"/>
<path class="st0" d="M234.9,162.7c-8.8,0-16,7.2-16,16c0,8.8,7.2,16,16,16s16-7.2,16-16C250.9,169.8,243.8,162.7,234.9,162.7z
	 M234.9,184c-2.9,0-5.3-2.4-5.3-5.3s2.4-5.3,5.3-5.3s5.3,2.4,5.3,5.3S237.9,184,234.9,184z"/>
<path class="st0" d="M-85.6-84.6l12.9-15.5l-33-33l-15.5,13c-3.5-1.8-7.1-3.2-10.8-4.5l-1.8-20.1h-46.6l-1.8,20.1
	c-3.7,1.2-7.3,2.7-10.8,4.5l-15.5-13l-33,33l12.9,15.5c-1.8,3.5-3.2,7.1-4.5,10.8L-253-72v46.6l20.1,1.8c1.2,3.7,2.7,7.3,4.5,10.8
	l-12.9,15.5l33,33l15.5-13c3.5,1.8,7.1,3.2,10.8,4.5l1.8,20.1h46.6l1.8-20.1c3.7-1.2,7.3-2.7,10.8-4.5l15.5,13l33-33l-12.9-15.5
	c1.8-3.5,3.2-7.1,4.5-10.8l20.1-1.8V-72l-20.1-1.8C-82.3-77.5-83.8-81.1-85.6-84.6z M-77-40l-16.6,1.5L-95-33
	c-1.5,6-3.9,11.7-7.1,17l-2.9,4.9l10.7,12.8l-12.3,12.3l-12.8-10.7l-4.9,2.9c-5.3,3.2-11,5.5-17.1,7.1l-5.5,1.4l-1.5,16.6h-17.4
	l-1.5-16.6l-5.5-1.4c-6-1.5-11.8-3.9-17.1-7.1l-4.9-2.9L-207.4,14l-12.3-12.3l10.7-12.8l-2.9-4.9c-3.2-5.3-5.6-11-7.1-17l-1.4-5.5
	L-237-40v-17.4l16.6-1.5l1.4-5.5c1.5-6,3.9-11.8,7.1-17l2.9-4.9l-10.7-12.8l12.3-12.3l12.8,10.7l4.9-2.9c5.3-3.2,11-5.5,17-7.1
	l5.5-1.4l1.5-16.6h17.4l1.5,16.6l5.5,1.4c6,1.5,11.8,3.9,17.1,7.1l4.9,2.9l12.8-10.7l12.3,12.3L-105-86.3l2.9,4.9
	c3.2,5.3,5.6,11,7.1,17l1.4,5.5l16.6,1.5L-77-40L-77-40z"/>
<path class="st0" d="M96,352c-26.5,0-48,21.5-48,48s21.5,48,48,48s48-21.5,48-48S122.5,352,96,352z M96,432c-17.7,0-32-14.4-32-32
	s14.3-32,32-32s32,14.4,32,32S113.7,432,96,432z"/>
<path class="st0" d="M88,184h16v16H88V184z"/>
<path class="st0" d="M88,216h16v16H88V216z"/>
<path class="st0" d="M88,248h16v16H88V248z"/>
<g id="tlNi4l.tif">
	<g>
		<path class="st0" d="M458.4,465.1c-138.2,0-276.4,0-414.6,0c-2.1-6.4-5.9-12.7-5.9-19.1c-0.4-104.9-0.3-209.7-0.3-314.6
			c0-5.5,0-11,0-15.3c-8.8-2.2-15.5-3.9-22.2-5.5c0-9.5,0-18.9,0-28.4c7.1-1.6,14.2-3.2,22.2-4.9c0-5.7,0-11.3,0-16.9
			c0-22.3,0-22.3,21.8-22.3c74.2,0,148.5,0,222.7,0c5.5,0,11,0,16,0c1.6-8.3,2.8-14.6,4-21c35,0,70,0,105.1,0
			c1.5,6.7,2.9,13.4,4.6,21c11.9,0,23.6,0.5,35.3-0.1c12.8-0.7,17.4,4.2,17.3,17.3c-0.4,131.2-0.2,262.4-0.5,393.5
			C464.1,454.1,460.4,459.6,458.4,465.1z M57.4,444.8c129.3,0,257.9,0,387,0c0-129.4,0-258.1,0-387.3c-11.8,0-22.4,0-34.4,0
			c3.4,15.6-4.2,22-18.2,21.5c-0.7,9.1-1.3,16.8-2,25.7c-6.6,0-11.7,0-16.9,0c-43.1,0-86.1-0.1-129.2,0.1c-5.5,0-11.4,0.6-16.4,2.5
			c-9.8,3.8-17.3,1.8-24.2-5.7c-2-2.2-5.2-4.7-7.8-4.8c-18.7-0.4-37.5-0.2-55.5-0.2c-4.1,13.1,0.7,16,11.3,15.9
			c73.4-0.3,146.7-0.1,220.1-0.3c10.4,0,20.6-1.4,18.8,14.5c-0.2,2.1,3.6,4.9,5.9,7c11.9,10.7,11.4,22-1.3,31.9
			c-2,1.6-3.8,3.5-3.5,3.2c3.4,9.5,6.1,16.9,9.3,25.5c7.7,0,16.4-1.1,24.6,0.5c4.1,0.8,7.2,6.5,10.5,10.3c0.2,0.3-2.5,3-3.9,4.6
			c-2.4-3.2-4.8-6.4-7.6-10.1c-7.7,0-16.4,0-25.5,0c0,10.7,0,20.3,0,34.9c8.3-5.1,13.7-8.4,20.6-12.7c-0.5,4.1-0.9,8.3-1.4,12.5
			c-7.4,0.6-13.4,1.1-19.4,1.6c0,5.6,0,10.2,0,15.9c10.4,0,20.2,0,32.3,0c-0.3,6.5-0.6,11.8-0.8,17.2c-2.9-3.5-5.8-7-9.4-11.3
			c-6,0-13.8,0-23.2,0c4.4,18.2-4.6,24-19.7,21.8c0,7.2,0,12.6,0,18.8c3.9-0.4,6.6-1,9.4-1c2.6,0,5.3,0.2,7.6,1
			c0.6,0.2,0.7,4.5,0.1,4.8c-2.2,1-4.9,1.6-7.3,1.4c-4.6-0.4-9.1-1.4-14.3-2.2c-0.7-7.5-1.3-14.8-2-22.5c-18.8,0-36.6,0-54.4,0
			c-1.3,4.7-2.4,8.5-3.5,12.4c-7.7,0.5-14.4,0.9-21.2,1.4c-0.1-1.5-0.1-2.9-0.2-4.4c6.2,0,12.3,0,18.5,0c0.6-1.8,1.1-3.5,1.7-5.3
			c-3.4-1.7-6.9-4.8-10.2-4.7c-10.8,0.6-13.8-4.2-13.6-14.4c0.6-23.1,0.4-46.3,0.1-69.5c-0.1-10.2-1.5-20.6,12.4-23.9
			c-22.2-17.2-22.2-18.8-4.6-41.2c1.3-1.7-1.8-10.2-3.5-10.4c-8.6-1.1-17.4-0.5-25.8-0.5c0,67.4,0,132.4,0,198.2
			c20.4,0,39.8,0.3,59.1-0.3c3.3-0.1,6.4-4.2,9.8-5.7c6.9-3,14.3-8.1,20.9-7.3c5.1,0.7,12.2,8.9,12.7,14.3
			c0.5,6.1-5.3,12.7-8.5,19.1c-2.2,4.5-6.1,8.8-6.6,13.4c-1.1,8.9-0.5,17.9-0.1,26.9c0.1,2.5,2.3,4.9,3.6,7.3
			c1.1-0.2,2.1-0.4,3.2-0.6c0.9-5.6,1.8-11.2,2.9-17.7c5.4,0,10.1,0,14.9,0c0.1,1,0.2,2,0.3,3c-4,0.9-8,1.8-16.6,3.8
			c8.2,12.8,25.7,5.4,39.4,12.8c12.1,6.6,5.9,31.9,7.4,33.3c3.5,3-100.7-0.9-101.4,1.9c0,0.1-9.3-29.7,2.2-35.1
			c8.7-4.1,21-2.3,25.5-2.7c0-5.9,0-11,0-16.1c-3.2-1.2-6.5-2.5-12.4-4.9c14.5-3.4,15.3-2.7,16.5,7c0.6,5,2.8,9.7,4.2,14.6
			c1.8-5.1,4.3-10.1,5.1-15.3c0.9-6.5,0.4-13.2,0.1-19.8c-0.2-3.1-0.5-7.4-2.4-8.9c-10.2-8.1-18.7-18.6-34.9-15.4
			c-12.3,2.4-25.5-0.3-38.2,0.7c-12.3,1-15-4-14.9-15.4c0.5-57.7,0.2-115.3,0.2-173c0-5.5,0-11.1,0-18c-39.1,0-76.4,0-113.6,0.1
			c-1.7,0-3.7,0.8-5.2,1.7c-6,3.9-11.9,8.1-19.3,13.2c9.1,27.4,35.5,18.5,57.1,21c0,11.4,0,21.1,0,32.1c19.2-3.1,19.5,8,19.1,21.3
			c-0.7,26.9,0.1,53.9-0.3,80.8c-0.5,36.1,6.6,31.1-32.7,31.8c-9.5,0.2-12.1-3.7-12-12.7c0.4-32.6,0.2-65.2,0.2-97.9
			c0-19.8,0-19.8,18.4-26.1c-0.3-7.1-0.6-14.4-1-21.4c-32.2-4.4-50.1,5-46.8,23.7c15.9,1.8,15.9,1.8,15.9,17.7
			c0,28.8,0.4,57.7-0.1,86.5c-0.5,34.5,6.8,29.3-31.2,30.2c-10.1,0.2-13-3.5-12.9-13.2c0.5-33.6,0.6-67.1,0-100.7
			c-0.2-12.8,0.5-23,21-19.9c-3.9-6.2-5.4-10.3-8.3-12.9c-12.8-11.5-12.7-20.9,0.3-33c2.7-2.5,3.7-6.6,6.1-11c-12.1,0-21.2,0-30.6,0
			c0,84.4,0,167.7,0,250.9c1.9,0.4,3,1,3.7,0.7c1.6-0.7,3.3-1.6,4.5-2.9c13.9-15.7,20.9-15.8,35-0.5c1.6,1.8,4.9,3.8,6.5,3.3
			c1.8-0.6,3.5-4.1,3.6-6.4c0.4-11.3,0.5-22.7,0.2-34c-0.3-9,3-12.8,12.4-12.6c30.3,0.4,60.6,0.3,90.9,0c9.4-0.1,12.2,3.8,12.1,12.8
			c-0.4,26.9-0.5,53.9,0,80.8c0.2,9.9-3.3,13.4-13.1,13.3c-29.8-0.4-59.6-0.5-89.4,0c-10.3,0.2-13.2-4.4-12.8-13.7
			c0.4-10.2,0.1-20.5,0.1-30.6c-3.4-0.4-5.3-1.2-6.1-0.6c-2.5,1.9-4.6,4.2-6.7,6.6c-8.2,9-18.9,9.8-27.6,2.6
			c-6-5-12.7-9.3-21.1-15.4c0-82.6,0-168.1,0-253.6c-1,0.6-2,1.1-2.9,1.7c-4.8-5.5-9.6-10.9-14.2-16.2
			C57.4,225,57.4,334.2,57.4,444.8z M300.4,57.8c-82.8,0-163,0-244.5,0c0.5,7.5,0.9,13.9,1.3,20.3c1.1-13.9,9.2-15.5,20.2-14.9
			c12.3,0.7,24.6,0.2,36.9,0.2c22.6,0,22.6,0,24.5,21.8c0.1,0.8,1,1.6,2.4,3.7c15.1,0,31.1,0.6,47.1-0.4c4.9-0.3,10.7-4,14-7.9
			c8.7-10.4,18.8-11.9,29.5-3.6c4.1,3.1,9.5,6.3,14.4,6.4c23.2,0.7,46.3,0.4,69.5,0.2c3,0,6.1-1.2,9.1-1.8
			C312.6,76.4,293.4,81.9,300.4,57.8z M126.1,75.5c-18.2,0-35.5,0-53.5,0c1.4,13.9-6.3,16.4-17.5,15.1C50,90,44.6,89.8,39.6,90.7
			c-4.2,0.8-8,3.5-12,5.4c3.8,2.1,7.3,5.3,11.3,6.2c5,1.1,10.4,0.7,15.5,0.2c11.5-1.3,19.6,1.4,18.5,15.1c18.2,0,35.5,0,53.2,0
			C126.1,103.2,126.1,89.7,126.1,75.5z M343.2,267.7c29.3,0,43.2-12.5,43.2-38.7c0-29.3-12.8-42.7-40.7-42.7
			c-31.8,0-45.9,11.9-45.9,38.7C299.7,255.5,312.2,267.7,343.2,267.7z M238.2,91.1c0,1.4-0.1,2.9-0.1,4.3c47.7,0,95.4,0,143.4,0
			c0-6,0-11.3,0-16.4c-18-2.5-18-2.5-27.3-23.5c-3,11.7-0.5,27.3-20.2,22c1.4,13.6-6.5,14.4-15.9,13.7c-6.1-0.4-12.3-0.1-18.4-0.1
			C279.2,91.1,258.7,91.1,238.2,91.1z M177.7,310.6c9.9-7.6,10.4-102.7,0-112.8C177.7,236.3,177.7,272.9,177.7,310.6z M340.9,173.8
			c0.6-1.1,1.2-2.2,1.9-3.2c-3.2-2.1-6.5-4-9.5-6.3c-9.3-7.2-10.3-18.5-3-27.3c3.6-4.3,6.6-9.1,9.9-13.7c-6-1.3-12-2.6-18-3.7
			c-1.8-0.3-3.9-0.5-5.6,0c-3.6,1.1-7.1,2.8-10.6,4.2c2.1,3.2,3.6,7.1,6.3,9.6c12.1,10.8,11.6,23.5-1.7,32.8
			c-2.2,1.5-4.2,3.5-9.3,7.7C317.3,173.8,329.1,173.8,340.9,173.8z M346.8,170.1c0.2,1.1,0.5,2.1,0.7,3.2c12.3,0,24.6,0,38.1,0
			c-1.7-2.9-2.1-4.6-3.1-5.2c-19.8-11.2-21-21-5-36.1c2.6-2.5,3.1-7.2,5-11.9c-12.8,0-23,0-37.9,0c4.8,6.4,7.1,10.6,10.5,13.7
			c10,9.1,10.5,22.1,0.4,30.3C352.9,166.3,349.8,168.1,346.8,170.1z M312.3,29c0,13.1,0,24.6,0,36c9.8,0,18.5,0,27,0
			c0-12.6,0-24.1,0-36C329.8,29,321.5,29,312.3,29z M397.9,65.4c0-12.5,0-24,0-36.1c-9.4,0-18.1,0-27.4,0c0,12.3,0,23.8,0,36.1
			C379.6,65.4,387.9,65.4,397.9,65.4z M107.2,309.2c1.1,0.4,2.1,0.8,3.2,1.1c1.4-2.9,3.8-5.8,4-8.8c3.8-41.1,0.5-97-7.2-102.8
			C107.2,236.3,107.2,272.7,107.2,309.2z M125.4,199.8c-1.2-0.3-2.3-0.6-3.5-0.9c-1.3,3.5-3.7,6.9-3.7,10.4
			c-0.3,30.1-0.3,60.1,0,90.2c0,3.3,2.9,6.6,4.5,9.9c1.4-3.4,4-6.9,4.1-10.3c0.3-30.1,0.2-60.1,0.1-90.2
			C126.9,205.9,125.9,202.9,125.4,199.8z M164.2,309.3c1.1,0.4,2.3,0.8,3.4,1.2c1.4-2.9,4.1-5.7,4.1-8.6c0.3-31.6,0.3-63.2,0-94.8
			c0-2.8-2.9-5.5-4.4-8.3c-1,0.4-2,0.9-3.1,1.3C164.2,236.5,164.2,272.9,164.2,309.3z M318.5,150.3c-7.2-5.7-11.5-11.6-14.9-11.1
			c-4.5,0.6-8.4,6.2-12.5,9.6c3.3,3.9,6.4,10.5,10.1,10.9C305.4,160,310.2,155,318.5,150.3z M361.1,149.1c-8.4-5.1-13-10.1-17.4-9.9
			c-3.5,0.2-9.6,6.7-9.5,10.3c0.1,3.8,6.2,10.3,9.7,10.3C348.3,159.8,352.8,154.5,361.1,149.1z M401.6,149
			c-7.6-5.1-12-10.4-15.8-9.9c-4.2,0.5-7.7,6.2-11.5,9.6c3.9,3.9,7.2,9.9,11.8,11.1C389.2,160.5,394.1,154.5,401.6,149z M132,158.2
			c-7.3-5.1-11.7-10.4-15.5-10.1c-4,0.4-7.4,6.3-11.1,9.8c3.8,3.9,7.1,10,11.5,11C120.1,169.7,124.9,163.6,132,158.2z M124.3,387.7
			c-7-5.6-11-11.2-15-11.2c-3.9,0-7.9,5.7-11.8,8.9c3.5,4.1,6.4,10.4,10.7,11.5C111.6,397.8,116.7,392.3,124.3,387.7z M234.1,90.5
			c-7.3-5.3-12.1-11.2-15.2-10.4c-4.4,1.2-9.7,6.8-10.5,11.3c-0.5,2.7,6.4,9.2,10.5,9.6C222.6,101.4,226.9,95.8,234.1,90.5z
			 M351.1,305.7c-5.1,7.6-10.9,12.5-10,15.7c1.2,4.4,7.4,7.4,11.4,11c3.3-3.8,8.9-7.5,9.1-11.6C361.9,317.1,356.5,313,351.1,305.7z"
			/>
		<path class="st0" d="M343.5,254.4c-4.2,0-8.4,0-12.7,0c-2.5,0-5.5,1.1-7.5,0.1c-18.2-9.6-7.9-26.7-9.9-40.5
			c-1.5-10.3,6.2-14.1,15-14.6c10.3-0.6,20.7-0.2,31.1-0.1c9.4,0.1,13.2,5.6,13.3,14.3c0.1,7.3-0.2,14.6-0.2,21.9
			c0,15.9-2.6,18.5-18.7,18.7c-3.5,0-7,0-10.5,0C343.4,254.2,343.4,254.3,343.5,254.4z"/>
	</g>
</g>
</svg>
