<?xml version="1.0" encoding="utf-8"?>
<!-- Generator: Adobe Illustrator 24.3.0, SVG Export Plug-In . SVG Version: 6.00 Build 0)  -->
<svg version="1.1" id="Layer_1" xmlns="http://www.w3.org/2000/svg" xmlns:xlink="http://www.w3.org/1999/xlink" x="0px" y="0px"
	 viewBox="0 0 225 225" style="enable-background:new 0 0 225 225;" xml:space="preserve">
<style type="text/css">
	.st0{display:none;}
	.st1{display:inline;}
	.st2{opacity:8.000000e-02;}
	.st3{fill:#7E7E7E;}
	.st4{fill:#698A7E;}
	.st5{opacity:8.000000e-02;fill:#698A7E;enable-background:new    ;}
	.st6{fill:#6A8A80;}
	.st7{fill:none;}
	.st8{fill:#FFFFFF;}
	.st9{fill:#9D9E9E;}
	.st10{fill:#73B256;}
	.st11{fill:#D33B2F;}
	.st12{fill:#000102;}
	.st13{fill:#683AAF;stroke:#EEE4F9;stroke-width:3;stroke-miterlimit:10;}
	.st14{fill:#683AAF;}
</style>
<g id="Layer_1_4_">
	<g id="Layer_1_3_" class="st0">
		<g id="Layer_1_2_" class="st1">
			<g id="Layer_1_1_">
				<g id="VNr6mR_1_" class="st2">
					<g>
						<path class="st3" d="M551.1,99.7c-0.7,5-1.4,10-2.2,15c-2.1,12.6-9.7,21.5-19.2,29.2c-6.8,5.5-13.5,11.1-20.3,16.6
							c-1.8,1.4-2.7,2.6-2.3,5.2c1.3,8.7-0.6,16.3-7.4,22.6c-4.9,4.5-9.1,9.7-13.7,14.4c-3.2,3.3-4.9,2.8-6-1.6
							c-1.6-6.9-2.9-13.8-4.4-20.7c-3.5-0.5-6.9,3.4-10.1-0.7c-4.9,8.4-9.7,16.3-14.4,24.3c-0.3-0.1-0.5-0.1-0.8-0.2
							c-0.3-3.3-0.7-6.6-1.1-10.8c-13.9,11.6-27.3,22.9-40.7,34.1c-0.1-0.1-0.2-0.2-0.4-0.3c6.7-11.4,13.4-22.8,20.4-34.8
							c-7.5,1.5-14.1,2.9-20.8,4.2c-0.1-0.2-0.3-0.4-0.4-0.6c9-7.6,18-15.1,27.9-23.3c-4.1,0-7.2,0-10.3,0c-0.1-0.3-0.1-0.5-0.2-0.8
							c6.8-3.9,13.5-7.7,19.4-11.1c0.2-3.8,0.3-6.9,0.5-10.6c-5.3-1.1-10.8-2.3-16.4-3.5c-1.8-0.4-3.7-0.7-5.5-1.3
							c-2.8-0.8-3.3-2.5-1.3-4.5c6.7-6.3,13.4-12.6,20.1-18.9c3.7-3.5,8.4-4.1,13.1-3.5c6,0.8,9.9-1.1,13.5-6.1
							c5.4-7.4,11.9-14,17.7-21.1c7.7-9.4,18-13.6,29.6-15.2c3.3-0.5,6.5-0.9,9.8-1.3c4,0,8,0,12,0c3,1.2,6.1,2.1,8.8,3.8
							c3.6,2.2,4.3,6.3,5.1,10.2C551.1,92.1,551.1,95.9,551.1,99.7z M478.3,173.1c18.4-14.4,37-28.1,53.6-44c1.4-1.4,2.8-3,3.6-4.7
							c5.9-11.4,6.6-23.7,5.8-36.2c-0.2-2.7-1.8-4.4-4.9-4.3c-5.7,0.2-11.5,0.1-17.2,0.6c-10.8,1-20.3,4.7-27.4,13.5
							c-12.8,16-25.8,31.8-38.7,47.7c-0.3,0.4-0.4,0.9-0.7,1.4C463.7,153.1,472.3,161.4,478.3,173.1z M433.1,182.7
							c0.1,0.1,0.2,0.3,0.3,0.4c4.1-1.5,8.3-3,12.9-4.6c-1.2,3.5-2.1,6.3-3.2,9.9c4.1-2.6,7.5-4.8,11-7.1c0.1,1,0.2,1.7,0.3,2.9
							c3.4-3.5,6.5-6.6,9.7-9.9c-2.6-4.8-6.1-8.7-10.7-11.6c-0.8-0.6-2.4-0.9-3.2-0.5c-3,1.3-5.8,3-9.1,4.8c1.8,0.8,3.2,1.3,4.9,2
							C441.5,173.7,437.3,178.2,433.1,182.7z M474.1,175.2c-5.6-10.9-13.3-18.9-24.4-24.1c-0.4,1.6-0.8,2.9-1.1,4.4
							c10.5,3.8,17.5,10.9,21.2,21.2C471.3,176.2,472.5,175.8,474.1,175.2z"/>
						<path class="st3" d="M510.8,133.8c-10.7,0-19.5-8.6-19.5-19.2s8.8-19.4,19.4-19.5s19.4,8.7,19.4,19.4
							C530.2,125.1,521.6,133.8,510.8,133.8z M496.1,114.5c0,8.4,6.6,15.1,14.8,15s14.7-6.6,14.8-14.8s-6.7-15-14.9-15
							C502.4,99.7,496.1,106.2,496.1,114.5z"/>
					</g>
				</g>
				<g id="VNr6mR_2_">
					<g>
						<path class="st4" d="M551.1,99c-0.7,5-1.4,10-2.2,15c-2.1,12.6-9.7,21.5-19.2,29.2c-6.8,5.5-13.5,11.1-20.3,16.6
							c-1.8,1.4-2.7,2.6-2.3,5.2c1.3,8.7-0.6,16.3-7.4,22.6c-4.9,4.5-9.1,9.7-13.7,14.4c-3.2,3.3-4.9,2.8-6-1.6
							c-1.6-6.9-2.9-13.8-4.4-20.7c-3.5-0.5-6.9,3.4-10.1-0.7c-4.9,8.4-9.7,16.3-14.4,24.3c-0.3-0.1-0.5-0.1-0.8-0.2
							c-0.3-3.3-0.7-6.6-1.1-10.8c-13.9,11.6-27.3,22.9-40.7,34.1c-0.1-0.1-0.2-0.2-0.4-0.3c6.7-11.4,13.4-22.8,20.4-34.8
							c-7.5,1.5-14.1,2.9-20.8,4.2c-0.1-0.2-0.3-0.4-0.4-0.6c9-7.6,18-15.1,27.9-23.3c-4.1,0-7.2,0-10.3,0c-0.1-0.3-0.1-0.5-0.2-0.8
							c6.8-3.9,13.5-7.7,19.4-11.1c0.2-3.8,0.3-6.9,0.5-10.6c-5.3-1.1-10.8-2.3-16.4-3.5c-1.8-0.4-3.7-0.7-5.5-1.3
							c-2.8-0.8-3.3-2.5-1.3-4.5c6.7-6.3,13.4-12.6,20.1-18.9c3.7-3.5,8.4-4.1,13.1-3.5c6,0.8,9.9-1.1,13.5-6.1
							c5.4-7.4,11.9-14,17.7-21.1c7.7-9.4,18-13.6,29.6-15.2c3.3-0.5,6.5-0.9,9.8-1.3c4,0,8,0,12,0c3,1.2,6.1,2.1,8.8,3.8
							c3.6,2.2,4.3,6.3,5.1,10.2C551.1,91.5,551.1,95.2,551.1,99z M478.3,172.4c18.4-14.4,37-28.1,53.6-44c1.4-1.4,2.8-3,3.6-4.7
							c5.9-11.4,6.6-23.7,5.8-36.2c-0.2-2.7-1.8-4.4-4.9-4.3c-5.7,0.2-11.5,0.1-17.2,0.6c-10.8,1-20.3,4.7-27.4,13.5
							c-12.8,16-25.8,31.8-38.7,47.7c-0.3,0.4-0.4,0.9-0.7,1.4C463.7,152.4,472.3,160.8,478.3,172.4z M433.1,182.1
							c0.1,0.1,0.2,0.3,0.3,0.4c4.1-1.5,8.3-3,12.9-4.6c-1.2,3.5-2.1,6.3-3.2,9.9c4.1-2.6,7.5-4.8,11-7.1c0.1,1,0.2,1.7,0.3,2.9
							c3.4-3.5,6.5-6.6,9.7-9.9c-2.6-4.8-6.1-8.7-10.7-11.6c-0.8-0.6-2.4-0.9-3.2-0.5c-3,1.3-5.8,3-9.1,4.8c1.8,0.8,3.2,1.3,4.9,2
							C441.5,173.1,437.3,177.6,433.1,182.1z M474.1,174.6c-5.6-10.9-13.3-18.9-24.4-24.1c-0.4,1.6-0.8,2.9-1.1,4.4
							c10.5,3.8,17.5,10.9,21.2,21.2C471.3,175.5,472.5,175.1,474.1,174.6z"/>
						<path class="st4" d="M510.8,133.1c-10.7,0-19.5-8.6-19.5-19.2s8.8-19.4,19.4-19.5s19.4,8.7,19.4,19.4
							C530.2,124.5,521.6,133.1,510.8,133.1z M496.1,113.8c0,8.4,6.6,15.1,14.8,15s14.7-6.6,14.8-14.8s-6.7-15-14.9-15
							C502.4,99.1,496.1,105.5,496.1,113.8z"/>
					</g>
				</g>
			</g>
			<g id="Layer_2_1_">
				<g>
					<path class="st5" d="M856.2,232.1h-16v16h-16v16h16v16h16v-16h16v-16h-16V232.1z"/>
					<path class="st5" d="M1080.2,120.1v-80h-40V9.9l21-41.9h-89.9l21,41.9V40h-20.5c-5.5-9.5-15.8-16-27.5-16h-128
						c-17.6,0-32,14.3-32,32h-40V24h-120c-22.1,0-40,18-40,40v8h88v16h-88v8c0,22,17.9,40,40,40h120v-32h40c0,17.7,14.4,32,32,32
						h5.1l-26.5,84.8c-6.7,10.1-10.6,22.2-10.6,35.2c0,35.3,28.7,64,64,64c3.2,0,6.2-0.3,9.3-0.8l13,64.8h-11.2l-16,32h-19v48h256
						v-48h-19l-16-32h-13v-60.5l-119-71.2l29-116.2h1.8c11.8,0,22-6.5,27.5-16h20.5v22.1l-21,41.9h89.9l-21-41.9v-22.1
						C1040.2,120.1,1080.2,120.1,1080.2,120.1z M601.6,56.1c3.3-9.3,12.2-16,22.6-16h104v16H601.6z M728.2,120.1h-104
						c-10.4,0-19.3-6.7-22.6-16h126.6V120.1z M744.2,88.1h-56v-16h96v16H744.2z M800.2,256.1c0-26.5,21.5-48,48-48s48,21.5,48,48
						s-21.5,48-48,48S800.2,282.5,800.2,256.1z M910.8,269.3l52.8,31.7L878,340.5l-5.1-25.5C892,307,906.4,290,910.8,269.3z
						 M979.1,310.3l27.8,16.7l-120.8,53.7l-4.8-24l98.3-45.4L979.1,310.3z M1064.2,448.1h-224v-16h224V448.1z M1043.2,416.1H861.1
						l8-16h166.1L1043.2,416.1z M917.9,384.1l98.3-43.7v43.7H917.9z M903.8,224.5c-11-19.4-31.8-32.5-55.6-32.5
						c-10.8,0-21,2.7-30,7.5L838,136h88L903.8,224.5z M960.2,104.1c0,8.8-7.2,16-16,16h-128c-8.8,0-16-7.2-16-16v-48
						c0-8.8,7.2-16,16-16h128c8.8,0,16,7.2,16,16V104.1z M1035.2-15.9l-8,16h-22.1l-8-16H1035.2z M1008.2,16.1h16v24h-16
						L1008.2,16.1L1008.2,16.1z M1064.2,56.1v16h-88v-16C976.2,56.1,1064.2,56.1,1064.2,56.1z M976.2,88.1h88v16h-88L976.2,88.1
						L976.2,88.1z M997.1,168.1l8-16h22.1l8,16H997.1z M1024.2,136.1h-16v-16h16V136.1z"/>
					<path class="st5" d="M848.2,56.1c-13.2,0-24,10.8-24,24s10.8,24,24,24s24-10.8,24-24S861.4,56.1,848.2,56.1z M848.2,88.1
						c-4.4,0-8-3.6-8-8s3.6-8,8-8s8,3.6,8,8S852.6,88.1,848.2,88.1z"/>
					<path class="st5" d="M912.2,56.1c-13.2,0-24,10.8-24,24s10.8,24,24,24s24-10.8,24-24S925.4,56.1,912.2,56.1z M912.2,88.1
						c-4.4,0-8-3.6-8-8s3.6-8,8-8s8,3.6,8,8S916.6,88.1,912.2,88.1z"/>
					<path class="st5" d="M751.6,332.2l12.9-15.5l-33-33l-15.5,13c-3.5-1.8-7.1-3.2-10.8-4.5l-1.8-20.1h-46.6l-1.8,20.1
						c-3.7,1.2-7.3,2.7-10.8,4.5l-15.5-13l-33,33l12.9,15.5c-1.8,3.5-3.2,7.1-4.5,10.8l-20.1,1.8v46.6l20.1,1.8
						c1.2,3.7,2.7,7.3,4.5,10.8l-12.9,15.5l33,33l15.5-13c3.5,1.8,7.1,3.2,10.8,4.5l1.8,20.1h46.6l1.8-20.1
						c3.7-1.2,7.3-2.7,10.8-4.5l15.5,13l33-33L751.6,404c1.8-3.5,3.2-7.1,4.5-10.8l20.1-1.8v-46.6l-20.1-1.8
						C754.9,339.2,753.4,335.6,751.6,332.2z M760.2,376.8l-16.6,1.5l-1.4,5.5c-1.5,6-3.9,11.8-7.1,17l-2.9,4.9l10.7,12.8l-12.3,12.3
						l-12.8-10.7l-4.9,2.9c-5.3,3.2-11,5.5-17,7.1l-5.5,1.4l-1.5,16.6h-17.4l-1.5-16.6l-5.5-1.4c-6-1.5-11.8-3.9-17-7.1l-4.9-2.9
						l-12.8,10.7l-12.3-12.3l10.7-12.8l-2.9-4.9c-3.2-5.3-5.5-11-7.1-17l-1.4-5.5l-16.6-1.5v-17.4l16.6-1.5l1.4-5.5
						c1.5-6,3.9-11.8,7.1-17l2.9-4.9l-10.7-12.8l12.3-12.3l12.8,10.7l4.9-2.9c5.3-3.2,11-5.5,17-7.1l5.5-1.4l1.5-16.6h17.4l1.5,16.6
						l5.5,1.4c6,1.5,11.8,3.9,17,7.1l4.9,2.9l12.8-10.7l12.3,12.3l-10.7,12.8l2.9,4.9c3.2,5.3,5.5,11,7.1,17l1.4,5.5l16.6,1.5V376.8
						L760.2,376.8z"/>
					<path class="st5" d="M680.2,320.1c-26.5,0-48,21.5-48,48s21.5,48,48,48s48-21.5,48-48S706.7,320.1,680.2,320.1z M680.2,400.1
						c-17.6,0-32-14.4-32-32s14.4-32,32-32s32,14.4,32,32S697.8,400.1,680.2,400.1z"/>
					<path class="st5" d="M672.2,152.1h16v16h-16V152.1z"/>
					<path class="st5" d="M672.2,184.1h16v16h-16V184.1z"/>
					<path class="st5" d="M672.2,216.1h16v16h-16V216.1z"/>
				</g>
				<path class="st6" d="M399.9,12.5v-23h-11.5v-8.6l6-12h-25.8l6,12v8.6h-5.8c-1.6-2.7-4.5-4.6-7.9-4.6h-36.8
					c-5.1,0-9.2,4.1-9.2,9.2h-11.5v-9.2h-34.5c-6.3,0-11.5,5.2-11.5,11.5v2.3h25.3v4.6h-25.3v2.3c0,6.3,5.2,11.5,11.5,11.5h34.5V7.9
					h11.5c0,5.1,4.1,9.2,9.2,9.2h1.5L318,41.4c-1.9,2.9-3.1,6.4-3.1,10.1c0,10.1,8.2,18.4,18.4,18.4c0.9,0,1.8-0.1,2.7-0.2l3.7,18.6
					h-3.2l-4.6,9.2h-5.5v13.8h73.5V97.5h-5.5l-4.6-9.2h-3.7V70.9L352,50.5l8.3-33.4h0.5c3.4,0,6.3-1.9,7.9-4.6h5.9v6.4l-6,12h25.8
					l-6-12v-6.4L399.9,12.5L399.9,12.5z M262.4-5.9c0.9-2.7,3.5-4.6,6.5-4.6h29.9v4.6H262.4z M298.8,12.5h-29.9
					c-3,0-5.6-1.9-6.5-4.6h36.4V12.5z M303.4,3.3h-16.1v-4.6h27.6v4.6H303.4z M319.5,51.5c0-7.6,6.2-13.8,13.8-13.8
					c7.6,0,13.7,6.2,13.7,13.8s-6.1,13.8-13.8,13.8C325.6,65.3,319.5,59.2,319.5,51.5z M351.2,55.4l15.2,9.1l-24.6,11.3l-1.5-7.3
					C345.8,66.2,350,61.3,351.2,55.4z M370.8,67.1l8,4.8l-34.7,15.4l-1.4-6.9l28.3-13L370.8,67.1z M395.3,106.7H331v-4.6h64.3V106.7
					z M389.3,97.5H337l2.3-4.6H387L389.3,97.5z M353.3,88.3l28.2-12.5v12.5H353.3z M349.2,42.5c-3.2-5.6-9.1-9.3-16-9.3
					c-3.1,0-6,0.8-8.6,2.2l5.7-18.2h25.2L349.2,42.5z M365.4,7.9c0,2.5-2.1,4.6-4.6,4.6H324c-2.5,0-4.6-2.1-4.6-4.6V-5.9
					c0-2.5,2.1-4.6,4.6-4.6h36.8c2.5,0,4.6,2.1,4.6,4.6V7.9z M387-26.6l-2.3,4.6h-6.4l-2.3-4.6H387z M379.2-17.4h4.6v6.9h-4.6V-17.4
					z M395.3-5.9v4.6H370v-4.6H395.3z M370,3.3h25.3v4.6H370V3.3z M376,26.3l2.3-4.6h6.4l2.3,4.6H376z M383.8,17.1h-4.6v-4.6h4.6
					V17.1z"/>
			</g>
			<g id="Layer_3">
				<g>
					<rect x="429.9" y="86.8" class="st7" width="103.7" height="2.6"/>
					<rect x="422.8" y="176.4" class="st7" width="117.9" height="7.7"/>
					<path class="st7" d="M545.9,161.3c0-20.8,0-41.5,0-62.3c0-4.4-0.3-4.6-4.8-4.6c-20.6,0-41.3,0-61.9,0s-41.3,0-62,0
						c-4.5,0-4.8,0.3-4.8,4.6c0,20.8,0,41.5,0,62.3c0,4.2,0.5,4.7,4.8,4.7c41.3,0,82.6,0,123.9,0
						C545.5,165.9,545.9,165.5,545.9,161.3z M476.8,118.7c-0.3,0.4-0.7,0.9-1.1,1.3c-9.6,9.6-19.2,19.1-28.9,28.7
						c-1.4,1.4-2,1.4-3.4,0c-5.4-5.5-10.8-11.1-16.1-16.6c-0.3-0.3-0.5-0.6-0.8-0.9c0-0.3,0-0.6,0-0.9c1.7-1.6,3.5-3.3,5.3-4.9
						c0.8-0.6,1.6-0.2,2.2,0.5c3.1,3.1,6.2,6.3,9.3,9.4c1.5,1.5,2,1.5,3.5,0c7.4-7.4,14.9-14.7,22.3-22.1c1.3-1.3,1.9-1.3,3.2,0
						c1.5,1.5,3,3.1,4.5,4.6C476.8,118.1,476.8,118.4,476.8,118.7z M518,131.3c3.7,3.6,7.4,7.3,11,10.9c1.3,1.3,1.3,2,0,3.2
						c-1.9,1.9-3.8,3.8-5.7,5.7c-1.1,1.1-1.9,1.1-3,0c-3.7-3.7-7.5-7.4-11.1-11.1c-0.8-0.8-1.3-0.8-2.1,0c-3.5,3.5-7,7-10.5,10.4
						c-0.3,0.3-0.6,0.6-1,0.9c-0.9,0.7-1.6,0.8-2.4,0c-2.2-2.1-4.3-4.2-6.4-6.4c-0.9-0.9-0.8-1.7,0.2-2.7c3.8-3.8,7.5-7.5,11.4-11.2
						c0.8-0.8,0.8-1.2,0-2c-3.6-3.5-7.2-7.1-10.8-10.6c-1.7-1.7-1.7-2.2,0-3.9c1.6-1.6,3.2-3.2,4.8-4.7c2-2,2.3-2,4.3,0
						c3.5,3.5,7,6.9,10.5,10.5c0.8,0.8,1.2,0.8,2,0c3.7-3.7,7.4-7.4,11.1-11.1c1.2-1.2,1.9-1.2,3.1,0c2,2,3.9,3.9,5.9,5.9
						c0.4,0.4,0.6,0.9,1,1.5c-0.4,0.6-0.7,1.1-1.1,1.5c-3.7,3.7-7.4,7.4-11.1,11C517.2,129.9,517.2,130.4,518,131.3z"/>
					<path class="st5" d="M498.2,216.9c-12.7,0-25.3,0-38,0c-5.1,0-7.2-2.4-6.1-6.5h-24.2v8.9h100.2v-8.9h-25.9
						C505.4,214.5,503.3,216.9,498.2,216.9z"/>
					<path class="st5" d="M469.2,113.2c-7.4,7.3-14.9,14.7-22.3,22.1c-1.5,1.4-2,1.4-3.5,0c-3.1-3.1-6.2-6.3-9.3-9.4
						c-0.7-0.7-1.5-1.1-2.2-0.5c-1.8,1.6-3.5,3.2-5.3,4.9c0,0.3,0,0.6,0,0.9c0.2,0.3,0.5,0.6,0.8,0.9c5.4,5.5,10.7,11.1,16.1,16.6
						c1.4,1.4,2,1.4,3.4,0c9.6-9.6,19.3-19.1,28.9-28.7c0.4-0.4,0.7-0.8,1.1-1.3c0-0.3,0-0.6,0-0.9c-1.5-1.5-3-3.1-4.5-4.6
						C471,111.9,470.4,111.9,469.2,113.2z"/>
					<path class="st5" d="M529.1,118.1c0.4-0.4,0.7-0.9,1.1-1.5c-0.4-0.6-0.6-1.1-1-1.5c-1.9-2-3.9-3.9-5.9-5.9
						c-1.2-1.2-1.9-1.2-3.1,0c-3.7,3.7-7.5,7.4-11.1,11.1c-0.8,0.8-1.2,0.8-2,0c-3.5-3.5-7-7-10.5-10.5c-2-2-2.3-2-4.3,0
						c-1.6,1.6-3.2,3.2-4.8,4.7c-1.7,1.7-1.7,2.2,0,3.9c3.6,3.6,7.2,7.1,10.8,10.6c0.8,0.8,0.8,1.2,0,2c-3.8,3.7-7.6,7.5-11.4,11.2
						c-1,1-1.1,1.8-0.2,2.7c2.1,2.1,4.2,4.3,6.4,6.4c0.8,0.8,1.6,0.7,2.4,0c0.4-0.3,0.7-0.6,1-0.9c3.5-3.5,7.1-6.9,10.5-10.4
						c0.8-0.8,1.3-0.8,2.1,0c3.7,3.7,7.4,7.4,11.1,11.1c1.1,1.1,1.9,1.1,3,0c1.9-1.9,3.8-3.8,5.7-5.7c1.3-1.3,1.3-2,0-3.2
						c-3.7-3.6-7.3-7.3-11-10.9c-0.8-0.8-0.8-1.3,0-2.1C521.7,125.5,525.4,121.8,529.1,118.1z"/>
					<path class="st5" d="M541.3,196.4c3.3-0.1,6.5-1.5,9.7-2.3c0-36.6,0-73.3,0-109.9c-47.9,0-95.8,0-143.7,0
						c0,36.7,0,73.3,0,109.9c3.2,0.8,6.5,2.2,9.7,2.3c12.6,0.3,25.3,0.1,38,0.1c1.1,0,2.3,0,4.5,0c-1.7,4.4-3,8.1-4.7,11.7
						c-0.4,0.8-0.6,1.5-0.8,2.2h50.2c-0.2-0.7-0.4-1.4-0.8-2.2c-1.6-3.6-2.9-7.3-4.6-11.7c2.2,0,3.4,0,4.5,0
						C516,196.5,528.7,196.7,541.3,196.4z M429.9,86.8h103.7v2.6H429.9V86.8z M412.5,161.2c0-20.8,0-41.5,0-62.3
						c0-4.4,0.3-4.6,4.8-4.6c20.7,0,41.3,0,62,0s41.3,0,61.9,0c4.5,0,4.8,0.3,4.8,4.6c0,20.8,0,41.5,0,62.3c0,4.2-0.5,4.7-4.8,4.7
						c-41.3,0-82.6,0-123.9,0C412.9,165.9,412.5,165.5,412.5,161.2z M422.8,184.1v-7.7h117.9v7.7H422.8z"/>
					<path class="st5" d="M460.2,216.9c12.7,0,25.3,0,38,0c5.1,0,7.2-2.4,6.1-6.5h-50.2C453,214.5,455.1,216.9,460.2,216.9z"/>
				</g>
			</g>
			<g id="Layer_4">
				<g id="fNdCKC_1_">
					<g>
						<path class="st4" d="M446.3,196.8c8.1-4.6,16.4-9.3,25.2-14.2c4.7,7.4,9.3,14.6,14,22.1c14.1-22.5,27-45.6,54.7-59
							c-0.1,10.6-2.4,20.4,2.1,29.9c-19.1,10.6-30.7,21.5-55,51.5c-6.4-5.7-12.2-11.8-19.1-16.9
							C461.5,205.2,453.8,201.2,446.3,196.8z"/>
						<path class="st4" d="M508.1,114.2c-23.9,0-47.5,0-71.3,0c0-3.4-0.1-6.6,0-9.8c0.1-2.3,2.1-2.9,4.3-2.9c4.5,0,8.9,0,13.4,0
							c1.4,0,2.8-0.1,4.5-0.2c0-5.5,0-10.7,0-15.9c0-7.7,5-11.6,14.6-11.6c8.3,0,13.3,4.5,13.3,11.8c0,5.1,0,10.3,0,16
							c5.2,0,10.2,0,15.3,0c5.2,0.1,6,0.8,6,5.3C508.2,109.2,508.1,111.6,508.1,114.2z M478.3,91.5c0.1-2.4-2.2-4.5-5-4.5
							s-5.1,1.9-5.1,4.4c-0.1,2.4,2.2,4.5,5,4.5C475.9,96,478.2,94,478.3,91.5z"/>
						<path class="st4" d="M454.2,87.7c0,2.7,0,5,0,7.8c-5.7,0-11.3,0-16.9,0c-2,0-4.1-0.1-6.1,0.1c-4,0.4-6.5,2.7-6.5,6.2
							c0,34.2,0,68.4,0,102.6c0,3.7,2.5,6.1,6.8,6.3c5,0.2,9.9,0.1,14.9,0.1c8,0,12.4,1.8,18.4,7.6c-1.2,0.1-2.1,0.2-3.1,0.2
							c-11.4,0-22.7,0-34.1,0c-8.4,0-11-2.4-11-9.6c0-37.2,0-74.4,0-111.6c0-7.3,2.6-9.6,10.9-9.7C436.4,87.7,445.1,87.7,454.2,87.7
							z"/>
						<path class="st4" d="M520.2,147.9c0-12.3,0-24.4,0-36.4c0-2.8,0.1-5.6,0-8.4c0-5.2-2.7-7.5-8.7-7.6c-6.4-0.1-12.7,0-19.3,0
							c0-2.6,0-4.9,0-7.8c1.4,0,2.9,0,4.3,0c7.3,0,14.6-0.1,21.8,0c6.8,0.1,9.7,2.8,9.7,8.7c0,13-0.4,26,0.2,39
							C528.5,141.3,526.7,145.3,520.2,147.9z"/>
						<path class="st4" d="M528.1,196.1c0,5.8,0.1,10.8,0,15.7c-0.1,3.6-2.9,6.4-7.6,6.7c-5,0.3-10.1,0.1-16.1,0.1
							c3.8-3.2,4.9-7.5,10.6-8.1c1.9-0.2,4.7-2.9,4.8-4.5C520,200.9,524.3,199.4,528.1,196.1z"/>
						<path class="st4" d="M506.4,147.5c-18.4,0-36.6,0-54.8,0c-3.4,0-6.9,0.1-10.3-0.1c-0.9,0-1.7-0.8-2.6-1.2
							c0.8-0.6,1.7-1.6,2.5-1.6c9.9-0.1,19.9-0.1,29.8-0.1c10.9,0,21.9,0.1,32.9,0C506.1,144.5,507.5,144.8,506.4,147.5z"/>
						<path class="st4" d="M506.5,156.3c-7.5,0-14.9,0-22.2,0c-14.2,0-28.3,0-42.5-0.1c-1,0-2-1-3-1.5c1-0.4,1.9-1.2,2.9-1.3
							c20.7-0.1,41.4-0.1,62.1-0.1C505.6,153.3,507.6,153.2,506.5,156.3z"/>
						<path class="st4" d="M439.1,165c-1-3.4,1.4-2.9,3.2-2.9c17.4,0,34.7,0,52.1,0c3.9,0,7.9,0,11.9,0c1.6,3-0.7,2.9-2.8,2.9
							c-15.2,0-30.4,0-45.6,0C451.7,165,445.5,165,439.1,165z"/>
						<path class="st4" d="M462.7,131.9c-7.3,0-14.7,0-22-0.1c-0.6,0-1.3-0.9-1.9-1.4c0.7-0.5,1.3-1.4,2-1.4
							c6.7-0.1,13.5-0.1,20.2,0c0.8,0,1.7,1.3,2.5,2C463.2,131.3,462.9,131.6,462.7,131.9z"/>
						<path class="st4" d="M462.4,138.6c-7.7,0-15.4,0-23.2,0c-0.8-1.8-0.5-2.8,1.9-2.8c6.5,0.1,12.9-0.1,19.4,0.1
							c1,0,1.9,1.1,2.9,1.7C463.1,137.9,462.7,138.3,462.4,138.6z"/>
					</g>
				</g>
			</g>
			<g id="Layer_5">
				<g id="_x34_hK3Jt_1_" class="st2">
					<g>
						<path class="st4" d="M427.1,227c-6.8-0.2-13.8-4.1-17.7-12.2c-4-8.3-3.3-16.7,2.6-23.7c6.2-7.4,13.4-14.1,20.3-21
							c0.9-0.9,2.7-1.1,4.1-1.3c5.9-0.9,8.9-3.8,9.4-9.9c0.4-4.1,3.3-6.1,6.1-8.1c0.6-0.5,2.7,0.1,3.4,0.9
							c8.9,8.7,17.7,17.5,26.3,26.5c0.8,0.9,0.9,3.7,0.1,4.8c-1.9,2.7-4.2,5-8.2,5c-4.3,0-7.6,4.2-8.5,8.5c-0.5,2.3-1.5,4.9-3.1,6.6
							c-5.4,5.9-11.1,11.4-16.8,17.1C440.8,224.5,435.6,227,427.1,227z M444.3,182.9c-1-1.2-1.7-2.9-2.7-3c-1.5-0.2-3.6,0.2-4.7,1.2
							c-5.7,5.4-11.1,11.1-16.6,16.7c-1.7,1.8-2.5,3.8-0.6,5.7c2.1,2.2,4.1,1.2,5.9-0.6c5.4-5.5,10.9-11,16.2-16.5
							C442.8,185.4,443.4,184.2,444.3,182.9z M432.6,215.6c1-0.4,1.9-0.6,2.4-1.1c6.2-6.2,12.5-12.4,18.4-18.9
							c0.7-0.8,0.4-3.7-0.5-4.5s-3.7-0.9-4.6-0.1c-6.3,6-12.3,12.1-18.2,18.5c-0.7,0.8-0.7,2.9-0.3,4.1
							C430.2,214.4,431.7,214.9,432.6,215.6z"/>
						<path class="st4" d="M483.4,129.3c-2.4,2-4.6,4-8,6.8c-1.9-2.3-4.2-5.1-6.6-7.8c-1.8-2.1-4.1-3-6.3-0.7
							c-2.1,2.2-1.1,4.5,0.9,6.4c2.6,2.4,5.2,4.7,8,7.2c-2.9,2.7-5,4.7-8.2,7.6c-0.8-1.2-1.8-2.9-3-4.3c-4.6-5.4-10.4-7.5-17.5-7.4
							c-18.1,0.4-32.1-14.2-31.3-32.4c0.1-1.9,0.5-3.7,1-6.4c1.7,1.1,3,1.6,4,2.5c3.2,3.1,6.3,6.3,9.5,9.4
							c4.9,4.7,10.2,4.5,14.9-0.3c8.9-8.9,11.3-13.3-0.1-23.6c-2-1.8-3.9-3.7-5.7-5.8c-0.8-0.9-1.9-2.4-1.7-3.3
							c0.2-0.8,2-1.6,3.1-1.9c15.2-3.4,31.7,6.8,35.6,22.2c0.8,3.1,1.2,6.5,0.9,9.7c-0.7,7.8,1.7,14.1,7.7,19.1
							C481.5,127.2,482.3,128.1,483.4,129.3z"/>
						<path class="st4" d="M470.2,154.5c1.5-1.9,2.4-3.2,3.5-4.4c12-12.1,23.9-24.4,36.1-36.3c3.7-3.6,6-7.2,5-12.4
							c-0.7-4.1,1-6.4,4.8-8.1c6.9-3.1,13.6-6.6,20.2-10.2c3.2-1.8,5.1-0.6,7.3,1.7c2.1,2.2,3.8,3.9,1.9,7.3
							c-3.9,7.3-7.5,14.7-11,22.2c-1.2,2.6-2.8,4-5.6,3.5c-6.5-1.1-10.9,1.7-15.4,6.5c-11.2,12-22.9,23.5-34.5,35.1
							c-1.2,1.2-4.1,2.6-5,2C474.9,159.7,472.8,157,470.2,154.5z"/>
						<path class="st4" d="M492.3,162.3c2.1,2.2,4.5,4.8,6.9,7.2c10.4,10.5,20.9,20.9,31.3,31.4c0.7,0.7,1.4,1.3,2,2
							c1.8,1.9,4,2.6,6,0.6s1.4-4.2-0.5-6.1c-2.9-2.9-5.8-5.8-8.6-8.6c-9.7-9.7-19.4-19.3-29.1-29c-1-1-2-2.1-3-3.1
							c2.2-2.3,4.3-4.3,6.6-6.6c0.2,0.1,0.7,0.3,1,0.7c13.7,13.7,27.4,27.4,41.1,41.1c4,4,5.3,8.9,3.7,14.2
							c-1.6,5.4-5.5,9.1-11.1,9.2c-3.4,0.1-7.7-0.8-10-2.9c-14.8-14.1-29.1-28.7-43.8-43.3C487.4,166.8,489.7,164.8,492.3,162.3z"/>
					</g>
				</g>
				<g id="vwK9Yq_1_">
					<g>
						<path class="st4" d="M325.4-80.6c3,0.9,6.1,1.7,9.1,2.6c0,0.2,0,0.3,0.1,0.5c-12.8,2.6-25.6,5.2-38.6,7.9
							c0.2,5.8,0.3,11.5,0.9,17.1c0.1,1,2.5,1.9,4.2,3.1c0-6.2,0-11.7,0-17.5c4.4-0.9,8.8-1.9,13.2-2.8c8.7-1.8,17.4-3.6,26.1-5.3
							c1.1-0.2,2.3-0.2,3.4,0.1c3.7,0.9,7.4,1.9,10.6,2.8c0,7.2,0.1,14.3,0,21.3c-0.1,7.9-0.5,15.8-0.7,23.7c0,1.4-0.3,2.2-1.8,2.7
							c-12.2,4.4-24.3,9-36.5,13.4c-0.9,0.3-2.3,0.1-3.1-0.4c-7.7-5.4-15.3-10.8-22.9-16.3c-0.7-0.5-1.3-1.4-1.4-2.2
							c-0.8-14.4-1.6-28.9-2.3-43.6c3.3-0.6,6.6-1.2,9.8-1.8c9.5-1.6,18.9-3.2,28.4-4.9c0.2,0,0.4-0.2,0.6-0.3
							C324.8-80.6,325.1-80.6,325.4-80.6z M256.9-26.6c0.4,0,0.8,0,1-0.1c10.2-3.7,20.4-7.4,30.5-11.1c0.7-0.2,1.3-1.4,1.3-2.2
							c0.2-6.1,0.4-12.2,0.5-18.3c0.1-6.2,0-12.3,0-18.6c-0.5,0.1-1.1,0.1-1.7,0.3c-10,2.4-20,4.9-30,7.3c-1.5,0.4-2,0.9-2,2.5
							c0.1,12.7,0.1,25.5,0.2,38.2C256.8-28.1,256.8-27.4,256.9-26.6z M264.1-90.8c3.1,0.9,6.1,1.7,9.2,2.6c0,0.2,0.1,0.3,0.1,0.5
							c-12.8,2.6-25.6,5.3-38.7,7.9c0.2,5.8,0.3,11.5,0.9,17.1c0.1,1,2.5,1.9,4.2,3.1c0-6.2,0-11.7,0-17.5c4.4-0.9,8.8-1.9,13.2-2.8
							c8.7-1.8,17.4-3.6,26.1-5.3c1.1-0.2,2.3-0.2,3.4,0.1c3.7,0.9,7.4,1.9,10.6,2.8c0,7.2,0.1,14.3,0,21.3
							c-0.1,7.9-0.5,15.8-0.7,23.7c0,1.4-0.3,2.2-1.8,2.7c-12.2,4.4-24.3,9-36.5,13.4c-0.9,0.3-2.3,0.1-3.1-0.4
							c-7.7-5.4-15.3-10.8-22.9-16.3c-0.7-0.5-1.3-1.4-1.4-2.2c-0.8-14.4-1.6-28.9-2.3-43.6c3.3-0.6,6.6-1.2,9.8-1.8
							c9.5-1.6,18.9-3.2,28.4-4.9c0.2,0,0.4-0.2,0.6-0.3C263.5-90.8,263.8-90.8,264.1-90.8z"/>
						<path class="st4" d="M365.6-23.6c-0.4,3.2-0.7,6.4-1.1,9.6c-0.1,0.8-0.6,1.9-1.1,2.2c-2.9,1.5-5.9,2.7-9,4.1
							c0-2.3,0-4.3,0-6.6c-4.9,2.2-9.7,4.3-14.5,6.4c-1,0.4-1.9,1.1-3,1.3c-3.3,0.8-4.5,2.8-4,6c0.4,2.1-0.6,3.2-2.6,3.9
							c-3,1.2-5.9,2.6-9,4.1c0-2.4,0-4.4,0-6.9c-1.5,0.6-2.9,1.2-4.2,1.7c-5.8,2.6-11.5,5.2-17.3,7.6c-1.9,0.8-3,1.8-2.5,3.9
							c0.8,3.6-1.2,5-4.2,6.8c-6.4,3.9-11,2.9-16.8-1.8c-17.1-13.9-34.8-27.1-52.4-40.4c-2.4-1.8-2.3-4.1-2.7-6.5
							c-0.3-1.6-0.4-3.3-0.6-4.9c0-0.6,0-1.2,0-1.8c3.7-1.3,7.4-2.7,11.2-3.7c0.9-0.2,2.2,0.4,3.1,1c19.4,13.4,38.8,26.7,58,40.3
							c3.7,2.6,6.5,2.9,10.1,0.1c-3.5-2.4-7-4.8-10.9-7.5c4.5-1.6,8.5-3,12.6-4.4c0.5-0.2,1.3,0.2,1.8,0.6c1.8,1.1,3.7,2,5.2,3.4
							c3.1,2.8,6.1,2.5,9.4-0.1c-3.2-2-6.3-4-9.7-6.2c3.9-1.6,7.5-3.1,11.2-4.4c0.8-0.3,1.9-0.1,2.7,0.3c1.6,0.8,3.1,1.8,4.5,2.9
							c2.9,2.6,5.6,2.2,8.6-0.2c-2.7-1.8-5.4-3.6-8.5-5.6c3.6-1.4,6.7-2.7,9.9-3.8c0.6-0.2,1.5,0.1,2.2,0.4c1.5,0.7,3.1,1.4,4.4,2.4
							c2.8,2.1,5.4,1.8,8.3-0.4c-2.7-1.6-5.2-3.4-7.8-4.7c-2.1-1-2.9-2.4-2.5-4.7c0.3-1.7,0.3-3.5,0.5-5.8c7.1,3.6,14,7.2,20.9,10.7
							C365.6-24,365.6-23.8,365.6-23.6z M254.7-10c-0.8,4.5-0.2,7.8,3.9,10.2c4.1,2.5,7.8,5.8,11.6,8.7c1.8,1.3,3.6,2.6,5.5,4.1
							c0.7-4.7,0.2-8.1-4.2-10.8C265.7-1.4,260.4-5.8,254.7-10z M244-11c0.3-0.1,0.6-0.3,0.9-0.4c-0.5-2.3-0.3-5.6-1.8-6.9
							c-5.2-4.5-10.9-8.3-17.2-12.9c0.6,3.1,0.2,6.2,1.6,7.5C232.7-19.2,238.4-15.2,244-11z"/>
						<path class="st4" d="M248.5-44.2c0.3,3.7,0.5,6.8,0.7,10.6c-3.7-2.5-7-4.7-10.8-7.2C242-42.1,245.1-43.1,248.5-44.2z"/>
						<path class="st4" d="M417.5-67.9c1.8,3.2,3.4,6.1,5.2,9.2c-1,0.4-1.8,0.7-3.4,1.3c0,5.5,0,11.3,0,17.1c0,3.9,0,3.9-4.4,4.7
							c0-6.8,0-13.6,0-20.5c-0.9,0-1.8,0-3,0C413.8-60.1,415.5-63.9,417.5-67.9z"/>
						<path class="st4" d="M442.3-58.6c-3.2,0.2-3.2,2.2-3.3,4.4c0,4.7-0.4,9.5-0.3,14.2c0.1,2.9-1,4.2-3.8,4.1c0-6.7,0-13.4,0-20.3
							c-0.6-0.1-1.4-0.2-2.6-0.4c1.7-3.6,3.3-7.1,5.2-11.1C439.3-64.4,440.7-61.7,442.3-58.6z"/>
						<path class="st4" d="M489.6-50c-0.5,1-0.8,2.5-1.6,2.8c-8.6,3.2-17.2,6.2-25.8,9.2c-0.9-2.5-0.2-3.7,2.2-4.4
							c8.2-2.5,16.3-5.3,24.4-8.1C489.1-50.3,489.4-50.2,489.6-50z"/>
					</g>
				</g>
			</g>
			<g id="Layer_6">
				<g id="g8cFVo_1_" class="st2">
					<g>
						<path class="st4" d="M363.3,10.1c-2.1,1.4-4.1,2.9-6.2,4.1c-3,1.7-7.4,2.4-8.9,4.9c-1.6,2.6-0.6,6.9-0.6,10.4
							c0,8.6-0.1,17.1,0,25.7c0,2.7-0.8,4.3-3.2,5.6c-12.6,6.9-25.1,14-37.7,20.8c-1.5,0.8-3.8,1.1-5.4,0.6c-18-5.4-36-10.9-54-16.4
							c-2.6-0.8-3.5-2.3-3.5-4.9c0.1-11.3,0-22.6,0.1-34c0-2.2-0.6-3.3-2.8-3.7c-3.6-0.7-7.1-1.6-10.6-2.7c-1.7-0.5-3.2-1.6-4.7-2.4
							c0-0.8,0-1.6,0-2.5c5.9-8.1,11.7-16.2,17.7-24.1c0.9-1.2,2.4-2.3,3.8-2.8c13.1-4.9,26.1-9.7,39.2-14.4
							c1.3-0.5,2.8-0.7,4.1-0.5c16.9,2.4,33.8,5,50.8,7.4c2.6,0.4,4.2,1.4,5.6,3.5c5.3,7.6,10.8,15.2,16.3,22.9
							C363.3,8.4,363.3,9.2,363.3,10.1z M250.7,25.8c0,10.8,0.1,20.9-0.1,31.1c0,2.1,0.7,2.9,2.7,3.5c12.5,3.7,24.9,7.6,37.3,11.4
							c3.1,0.9,6.2,1.8,9.4,2.8c0-20.1,0-39.8,0-59.9c-0.5,0.6-0.8,0.9-1,1.2c-3.6,5.3-7.2,10.6-10.7,16c-1.3,2-2.9,3-5.4,2.1
							c-2.1-0.7-4.3-1.1-6.5-1.7C268,30.2,259.6,28,250.7,25.8z M307.6,19.4c-0.1,0.1-0.3,0.1-0.4,0.2c0,17.8,0,35.6,0,53.7
							c1.2-0.6,2.2-1.1,3.2-1.6c8.4-4.6,16.6-9.5,25.1-13.8c4-2,5.5-4.3,5.3-8.8c-0.4-8.8-0.1-17.6-0.1-26.8c-1.2,0.5-2,0.8-2.8,1.2
							c-6.2,3-12.5,6-18.7,8.9c-3.5,1.7-4.9,1.2-6.5-2.3C310.9,26.5,309.3,23,307.6,19.4z M297.7,5.4c-0.6-0.2-1-0.5-1.3-0.5
							c-15.5-2.9-31-5.7-46.5-8.5c-0.8-0.1-2.1,0.6-2.6,1.3c-3.1,4-6,8.2-9,12.3c-1,1.4-2,2.9-3.2,4.5c15.7,4.1,30.9,8,46.2,11.9
							c0.8,0.2,2.4-0.1,2.8-0.7C288.6,19.1,293.1,12.3,297.7,5.4z M318.1,25.3c12.3-6,24.4-11.8,36.6-17.6
							c-4.6-6.5-8.8-12.5-13.1-18.7c-11.3,5.2-22.3,10.3-33.4,15.4C311.6,11.5,314.7,18.2,318.1,25.3z M260.6-9
							c0.8,0.4,1.1,0.6,1.3,0.6c12.6,2.3,25.2,4.7,37.9,6.8c2,0.3,4.3,0.2,6.1-0.6c7.5-3.3,15-6.9,22.4-10.4
							c0.5-0.2,0.8-0.6,1.5-1.1c-11.3-1.7-22.1-3.4-33-4.9c-2.8-0.4-5.9-1.3-8.4-0.5C279.2-16.2,270.2-12.6,260.6-9z"/>
					</g>
				</g>
				<path class="st4" d="M538.3,172.3c4.5,1.1,8.6,2.2,12.8,3.2c-1.8-5.8-3.6-11.5-5.5-17.2c-2-6.2-4.2-12.3-6.2-18.4
					c-0.6-1.8-1.4-2.7-3.5-3.3c-12.5-3.4-25.1-6.9-37.6-10.4c5.7-5.3,9.5-12.8,9.3-21.4c0.2-16.5-13.8-29.2-29.1-29.2
					c-15.2,0-29.1,12.6-29.1,29.2c0,9.3,4.3,17.3,10.8,22.5c-11.8,5.7-23.6,11.2-35.3,17.1c-1.8,0.9-3.6,2.8-4.4,4.6
					c-4.4,9.8-8.4,19.7-12.6,29.6c-0.2,0.5-0.5,0.9-0.8,1.4c0,0.2,0,0.4,0,0.5c4.2,1.1,8.5,2.2,12.6,3.5c0.8,0.2,1.7,1.4,1.7,2.2
					c0.2,4.5,0.1,9,0.1,13.5c0,4.3,1.9,7.1,6.4,8.4c21.3,6.5,42.6,12.9,63.9,19.4c0.2,0.1,0.3,0.2,0.4,0.3c0.6,0,1.2,0,1.7,0
					c2.3-1.2,4.8-2.2,6.8-3.8c10.8-8.5,21.4-17.1,32.1-25.6c3.6-2.9,5.4-6.2,5.3-10.7C538.2,182.8,538.3,177.7,538.3,172.3z
					 M538.5,153.7c0.1,0,0.3-0.1,0.4-0.1c1.7,4.9,3.5,9.8,5.4,15.3c-2.2-0.5-4-1-5.9-1.4C538.5,162.8,538.5,158.3,538.5,153.7z
					 M456.4,107.9c2.2-2.2,4.4-4.4,6.8-6.9c2.7,2.7,5.4,5.4,8.2,8.3c2.7-2.7,5.4-5.3,8-8c4.6-4.6,9.1-9.2,13.7-13.8
					c0.9-0.9,1.5-1,2.4,0c1.4,1.5,2.8,3,4.4,4.4c1.2,1.1,1.2,1.8,0.1,2.9c-8.5,8.5-17,17-25.5,25.5c-1.2,0.6-2.4,1.2-3.7,1.8
					C465.8,117.2,461.1,112.5,456.4,107.9z M464.2,130.1c2.8,1.7,6,2.9,9.2,3.5c0,7.1,0,14.1,0,21.3c-13.7-3.2-27.2-6.3-41.4-9.5
					C443,140.1,453.6,135.1,464.2,130.1z M414,177.4c4.2-9.9,8.3-19.7,12.2-29.1c21.1,5.6,41.9,11.2,63.1,16.9
					c-3,10.5-5.9,20.6-8.9,31.1C458.2,190.1,436.3,183.8,414,177.4z M491.6,221.9c-7.6-2.3-14.9-4.5-22.3-6.8
					c-13.3-4.1-26.7-8.2-40-12.1c-1.9-0.6-2.5-1.4-2.5-3.2c0.1-4.5,0-9,0-13.9c19.1,5.4,37.8,10.8,57,16.2c2.5-8.6,5-17.1,7.4-25.6
					c0.1,0,0.2,0,0.4,0C491.6,191.5,491.6,206.5,491.6,221.9z M491.1,160.1c-3.6-0.9-7.2-2-10.7-3.2c-0.8-0.3-1.7-1.2-1.7-1.9
					c-0.1-6.9-0.1-13.9-0.1-21c0.1,0,0.2,0,0.2,0c5.6,0,11-1.8,15.6-4.8c11.9,3.1,23.8,6.2,35.9,9.4c-3.2,1.9-5.9,3.5-8.7,5.1
					c-8.9,5.3-17.7,10.6-26.7,15.8C494,160.2,492.3,160.4,491.1,160.1z M533.1,188.7c0,1.2-0.5,2.7-1.4,3.5
					c-11.1,9.4-22.3,18.6-33.4,27.9c-0.3,0.3-0.7,0.5-1.3,1.1c-0.1-1.2-0.1-2.1-0.1-2.9c0-16.9,0-33.9-0.1-50.8c0-2,0.6-3.2,2.5-4.3
					c10.4-6,20.8-12.2,31.1-18.3c0.7-0.4,1.4-0.8,2.6-1.4c0.1,1.1,0.2,1.9,0.2,2.8C533.2,160.4,533.2,174.6,533.1,188.7z"/>
				<g id="CxAPH4_1_">
					<g>
						<path class="st8" d="M333.1,133.7c-5.3-1.3-11.3-2.6-17.2-4.2c-1.5-0.4-2.8-1.7-4.2-2.6c0.9-1.4,1.6-3.3,2.9-4.3
							c11.2-8.4,22.5-16.7,33.7-25c15-11.1,30-22.1,45-33.2c2.4-1.8,4.6-2.7,7.7-1.8c4.4,1.2,9,1.7,14.6,2.7
							c-4,3.3-7.4,6.1-10.8,8.8c-22.1,17.7-44.2,35.3-66.3,53.1C336.6,128.7,335.2,131,333.1,133.7z"/>
						<path class="st8" d="M373.6,57.8c-11.7,7.9-22.4,15.2-33.1,22.4c-17.4,11.7-34.8,23.4-52.1,35.2c-2,1.4-3.4,3.6-5.6,5.8
							c-4.7-1.1-10.2-2.4-15.6-3.9c-1.4-0.4-2.6-1.6-3.9-2.4c1-1.4,1.7-3.2,3-4c18.9-12.1,37.9-24,56.9-36
							c9.3-5.9,18.7-11.6,27.8-17.6c3.3-2.2,6.4-3,10.2-1.9C365,56.4,368.7,56.8,373.6,57.8z"/>
						<path class="st8" d="M235.9,109.6c-3.8-0.9-8.6-2-13.4-3.4c-1.3-0.4-2.4-1.7-3.6-2.5c0.9-1.2,1.6-2.9,2.8-3.6
							c11.1-6.3,22.4-12.4,33.6-18.6c18.2-10,36.4-20,54.5-30.2c4.6-2.6,9.1-4.5,14.5-2.5c2.6,0.9,5.5,1.1,9.6,1.8
							c-2.4,1.5-3.8,2.4-5.3,3.3c-28.9,16.8-57.8,33.6-86.7,50.4C240.1,105.3,238.6,107.2,235.9,109.6z"/>
						<path class="st8" d="M415.3,71.8c0.4,7.9,0.8,14.2-6.4,20.1c-23.7,19.4-46.7,39.8-69.7,59.9c-3.4,2.9-6.2,3.8-10.6,2.4
							c-9.7-3.1-9.8-2.8-9.8-13c0-2.3,0-4.6,0-7.6c5.5,1.2,10.7,3.7,15.2,2.8c4.4-0.8,8.1-5.2,12.8-8.5c0,4.6,0,8.4,0,13.4
							c9.6-8.1,18.2-15.5,27.6-23.5c-5.2-1.4-9.6-2.5-15.6-4.1c6.5-3.4,9.2-9.4,16.3-10.1c3.2-0.3,6.1-4.2,9.8-6.9
							c0,4.2,0,7.6,0,12.2c7.8-6.6,14.6-12.5,22.4-19c-4.8-1-8.8-1.9-13.3-2.8C399.1,78.9,408.4,77.6,415.3,71.8z"/>
						<path class="st8" d="M391.5,61.4c-19.3,13.8-38,27.2-56.6,40.5c-8.6,6.2-17.4,12.3-25.9,18.6c-1.8,1.3-3.1,3.4-5.3,5.8
							c-2.3-0.6-5.8-1.3-9.2-2.4c-1.3-0.4-3.3-1.5-3.4-2.5c-0.2-1.2,1-3,2.2-3.8c6.6-4.7,13.4-9.2,20.1-13.9
							c19.5-13.3,39.3-26.5,58.6-40.4C378.4,58.7,384.1,58.6,391.5,61.4z"/>
						<path class="st8" d="M255.5,114.5c-2.1-0.5-5.4-1.1-8.5-2.2c-1.3-0.4-2.4-1.7-3.6-2.7c1-1.2,1.7-2.8,2.9-3.5
							c19.8-11.8,39.7-23.5,59.6-35.3c8.4-5,16.9-10,25.3-15c8.1-4.8,8.1-4.8,19-2c-2,1.3-3.4,2.2-4.8,3.1
							c-27.8,17.3-55.7,34.5-83.5,51.8C259.8,110,258.2,112,255.5,114.5z"/>
						<path class="st8" d="M284.9,125.1c0,4.6,0,8.6,0,12.7c4.8-0.3,7.1-6.9,13.3-4.9c-4.2,3.1-7.7,5.9-11.4,8.3
							c-1.2,0.8-3.1,1-4.5,0.7c-4.7-1-9.3-2.5-14-3.4c-3.4-0.6-4.8-2.1-4.6-5.6c0.2-4.1,0.1-8.3,0.1-12.9
							C270.8,121.6,277.6,123.3,284.9,125.1z"/>
						<path class="st8" d="M246.9,120.4c-4.8,3-8.6,6.9-12.9,7.7s-9.2-1.5-13.8-2.7c-0.4-0.1-0.7-1.4-0.8-2.2c-0.1-4.6,0-9.3,0-13.9
							c0.3,0,0.4-0.1,0.6-0.1c4.1,1.1,9.5,1.1,11.9,3.8c2.2,2.4,1.1,7.8,1.5,12.1c3.8-1.9,7.2-3.7,10.8-5.4
							C244.5,119.5,245.2,119.9,246.9,120.4z"/>
					</g>
				</g>
			</g>
			<g id="Layer_7">
				<g id="_x37_vCEl6_1_" class="st2">
					<g>
						<path class="st4" d="M528.4,131.1c0,8.7,0.1,17.4-0.1,26.1c-0.1,2.5,0.7,3.7,3,4.6c5.7,2.3,11.3,4.9,17.1,7.3
							c2,0.8,2.8,2,2.7,4.1c-0.1,4.3,0.1,8.6-0.1,12.8c-0.1,1.2-1,2.7-2,3.3c-2.3,1.4-4.8,2.4-7.3,3.2c-1.2,0.4-3,0.3-4-0.4
							c-6-4.3-11.1-0.6-16.1,1.9c-0.8,0.4-1.1,2.5-1,3.8c0.3,2.9-0.7,4.7-3.5,5.5c-1.4,0.4-2.8,0.9-4,1.7c-4.1,2.5-8,2.4-12.3,0.2
							c-1.4-0.8-3.8-0.5-5.4,0.1c-3.6,1.3-7.1,3.1-10.7,4.5c-2.1,0.8-3.3,1.9-2.9,4.3c0.6,3.4-0.9,5.4-4.2,6.1
							c-0.3,0.1-0.7,0.2-1,0.4c-5.8,4.5-11,1.2-16-1.6c-1.1-0.6-1.6-3.1-1.6-4.6c0.1-2.5-0.8-3.6-3-4.7c-3.7-1.8-7-2.6-10.9-0.3
							c-2.9,1.8-11.1-0.1-13.2-2.9c-0.8-1-0.7-2.7-0.7-4.1c-0.2-3.7-3.8-6.4-7.4-5.2c-0.2,0.1-0.5,0.2-0.7,0.3
							c-5,3.5-9.9,2.1-14.4-0.9c-1-0.7-2.1-2.1-2.1-3.3c-0.2-4.4-0.3-8.8,0-13.2c0.1-1.2,1.3-2.7,2.4-3.4c1.8-1.2,3.9-2.2,6-2.7
							c4.7-1.1,5.5-4,5.5-8.5c-0.2-20.2,0-40.4-0.2-60.5c0-2.8,1-4.1,3.4-5.2c16.1-6.8,32.1-13.8,48.2-20.5c1.5-0.6,3.8-0.6,5.4,0.1
							c15.8,6.6,31.4,13.5,47.1,20.1c3.1,1.3,4.4,2.9,4.3,6.4C528.2,114.2,528.4,122.7,528.4,131.1z M524.9,105.5
							c-1.2,0.3-2.1,0.5-2.8,0.8c-14.5,6.2-28.9,12.5-43.4,18.6c-2.2,0.9-2.6,2.4-2.6,4.5c0.1,19.9,0,39.8,0.1,59.8
							c0,0.9,0.2,1.8,0.3,3c0.9-0.2,1.5-0.3,2-0.6c14.6-6.3,29.1-12.6,43.7-18.8c2.4-1,2.8-2.4,2.8-4.8c-0.1-19.4,0-38.9,0-58.3
							C524.9,108.5,524.9,107.2,524.9,105.5z M423.7,105.2c0,22.1,0,43.3,0.1,64.6c0,1,1.4,2.4,2.5,2.9c14,6.1,28,12.1,42,18.1
							c3.3,1.4,4.2,0.8,4.2-2.7c0-19.7,0-39.3,0.1-59c0-2.4-0.9-3.4-2.9-4.2c-8.6-3.6-17.1-7.3-25.7-11
							C437.4,111.1,430.9,108.3,423.7,105.2z M451.2,113c6.1,2.6,11.6,4.7,16.8,7.4c4.2,2.2,7.9,2.5,12.2,0.1c3.6-2,7.5-3.3,11.3-5
							c9.9-4.3,19.7-8.5,30-13c-1-0.6-1.6-1.1-2.2-1.3c-6-2.6-11.9-5.3-18-7.7c-1.6-0.6-3.8-0.5-5.4,0.1c-4.5,1.7-8.9,3.7-13.4,5.7
							C472.3,103.8,462.2,108.3,451.2,113z M494.1,90.5c-6.2-2.7-11.5-5.1-16.9-7.2c-1.7-0.6-4.1-0.8-5.7-0.1
							c-13.7,5.6-27.2,11.5-40.8,17.3c-1.1,0.5-2.2,1.1-4,1.9c5.4,2.4,10.2,4.1,14.7,6.5c3.7,1.9,6.9,1.8,10.5-0.1
							c3.2-1.7,6.6-2.9,10-4.4C472.3,100,482.7,95.4,494.1,90.5z M547.5,174.8c-0.7,0-1.1-0.1-1.4,0c-24.2,10.3-48.4,20.6-72.5,31
							c-0.8,0.3-1.7,1.5-1.8,2.3c-0.2,3.2-0.1,6.5-0.1,9.9c6.1-1.2,6.2-1.3,6.3-6.5c0-2.2,0.9-3.3,2.8-4.1
							c7.2-3.1,14.5-6.2,21.7-9.4c4.5-2,6.2-3.6,6.2,3.8c0,0.2,0.2,0.4,0.4,0.6c4.5-1.3,9-2.3,7.9-8.9c-0.1-0.8,1.5-2.3,2.7-2.8
							c5.2-2.4,10.4-4.5,15.7-6.8c5.6-2.4,5.6-2.4,6.6,3.7c0,0.2,0.3,0.3,1.1,0.9c1.4-1.2,3.9-2.3,4.2-3.9
							C548,181.5,547.5,178.1,547.5,174.8z M543.9,171.8c0-0.3,0.1-0.6,0.1-0.9c-3-1-6.1-3.1-8.9-2.8c-2.8,0.3-6.9,1.1-7.1,5.7
							c0,0.5-1.3,1-2.1,1.3c-16.5,7.1-32.9,14.2-49.4,21.2c-0.9,0.4-2.1,0.9-2.7,0.6c-4.7-2.5-7.9,1.3-11.8,2.8
							c3.7,0.7,6.1,4.7,10.7,2.7c15.5-6.8,31.2-13.4,46.7-20.1C527.5,178.8,535.7,175.3,543.9,171.8z M468.2,218.1
							c0-2.7-0.2-5.2,0.1-7.6c0.3-2.9-0.7-4.3-3.4-5.4c-16.4-6.9-32.6-14.1-49-21.1c-1.8-0.8-3.7-1.4-6-2.3c0,3,0.2,5.5-0.1,7.9
							c-0.5,3.7,1.4,4.9,4.7,5.4c0.1-0.8,0.1-1.4,0.1-2c0.2-4.1,0.8-4.5,4.5-2.9c4,1.7,7.9,3.6,12,5.1c2.5,1,3.8,2.4,3.4,5.2
							c-0.7,3.9,1.5,5.1,4.9,5.4c0.1-0.6,0.2-1.1,0.2-1.6c0.3-4.7,0.7-5,4.9-3.2c5.1,2.2,10.3,4.3,15.3,6.7c1.2,0.6,2.5,2.6,2.4,3.7
							C461.6,215.8,463.9,217.4,468.2,218.1z M452.8,188.6c-5.8-4-9.1-3.8-14.8,0.6C443.1,193.8,447.9,191.6,452.8,188.6z
							 M440.4,183.4c-5.4-4.1-8.6-4-14.6,0.5C430.8,188.4,435.6,186.4,440.4,183.4z M413.7,178.5c5.2,4.8,9.8,2.3,14.5-0.3
							C423.3,174.2,421.2,174.3,413.7,178.5z M464.9,193.7c-6.2-3.9-9.4-3.7-14.6,0.8C455.4,199.3,460.1,196.6,464.9,193.7z"/>
						<path class="st4" d="M439.9,123.5c0.9,0.3,1.8,0.6,2.7,1c4.6,1.9,9.2,3.7,13.6,6c1.1,0.6,2.2,2.8,2,3.9
							c-0.4,2-2.3,2.6-4.3,1.7c-5-2.2-10.1-4.1-15-6.5c-1-0.5-1.8-2.4-1.9-3.8c-0.1-1.2,0.8-2.5,1.3-3.7
							C438.9,122.6,439.4,123,439.9,123.5z"/>
					</g>
				</g>
			</g>
			<g id="Layer_8">
				<g id="KC6iOP_1_">
					<g>
						<path class="st4" d="M407.3,184.1c1.9-0.3,3.8-0.6,6-0.9c0-1.2,0.1-2.6,0.2-4.4c-1.9-0.2-3.7-0.4-5.7-0.6
							c0.3-2,0.5-3.7,0.8-5.7c2.2,0,4.2,0,6.5,0c0-1.8,0-3.2,0-4.9c-1.7-0.1-3.4-0.2-5.9-0.4c2.2-5.6,4.1-10.6,6.2-15.5
							c0.4-0.9,1.8-1.1,2.7-1.1c3.4-0.1,6.8-0.1,10.5-0.1c0.7-13.5,1.4-26.6,2.1-39.9c-3.4-1.2-1.8-5-2.1-8.2
							c9.8,0,19.4-0.7,28.9,0.2c7,0.7,12,7.2,14.6,16.5c4,14.4,7.3,29.1,11.2,43.6c1.2,4.4,3.2,8.4,5.2,12c0.8,1.4,2.8,1.3,4.8,2.1
							c0-2.4,0-3.8,0-5.2c0-16.7,0.7-33.6-0.3-50.2c-0.5-8.2-1.1-16.3-1.4-24.6c-0.1-2.7-1.1-5.4-1.8-8.7c4.7,0,8.6,0,12.8,0
							c0,3.9,0,7.6,0,11.7c1.7,0.2,3.2,0.3,5,0.5c0,10.1-1.3,52-4.8,51.4c0,9.4,0,17.7,0,26c1.4,0.2,2.7,0.3,3.9,0.5
							c0,10.6,0,20.8,0,31.2c-1.1-0.1-1.9-0.2-2.8-0.3c-0.7-16.9-6.8-26.6-15.7-25.6c-10,1.1-14.7,11.4-13.5,29.7
							c-2.3-0.3-5.2,2.2-5.6-4c-9.6,0-18.9,0-28.3,0c-1.3-14.9-6.3-22.7-14.2-22.5c-7.8,0.2-12.6,7.9-13.8,22.3
							c-2.1,1.1-3.3-0.1-3.8-3.1c-0.7-3.8-1.2-7.6-1.8-11.4C407.3,191.1,407.3,187.6,407.3,184.1z M472,187.8c-3.4,0-6.8,0.1-10.2,0
							c-1.2,0-2.5-0.1-3.5-0.9c-6.1-4.5-12.2-9.1-18.2-13.8c-0.7-0.6-1.5-2.1-1.6-3.2c-0.4-8.3-0.6-16.7-0.8-25.1c0-1,0.6-2.7,1.1-3
							c3-1.7,5.8,0.3,6.7,4.8c0.7,3.7,1.2,7.6,1.8,11.8c0.9,0,1.8,0,2.7,0c7.2,0.1,8.6,1.9,9.6,12.5c0.3,3.1,0.8,6.3,1.1,9.4
							c4.5,0,8.7,0,13.3,0c-3.7-9.2-7.2-18-10.8-27c0.8-1,1.6-1.9,2.2-2.7c-0.4-1.4-0.8-2.5-1.2-3.7c0.9-0.9,1.6-1.6,2.2-2.2
							c0.8,1.3,1.3,2.2,1.8,3.2c1-0.8,1.9-1.4,2.8-2.1c1.9,3.2,3.8,6.2,5.6,9.1c0.3-0.2,0.6-0.4,0.8-0.7c-3.3-11.4-6.4-22.9-10-34.1
							c-1.7-5.2-5.1-9.2-8.9-9.6c-7.7-0.8-15.5-0.2-23.5-0.2c-1,20.2-2.1,40.4-2.9,60.6c-0.1,1.1,0.9,2.8,1.7,3.4
							c5.4,4.3,11,8,16.3,12.6c5.5,4.7,11.1,7.1,17.5,6.3C470.2,192.7,471.7,192.1,472,187.8z M495.2,101.7
							c-0.2,0.6-0.5,1.2-0.7,1.8c1.7,1.1,3.3,2.3,5,3.4c0.2-0.6,0.4-1.3,0.7-1.9C498.5,103.9,496.8,102.8,495.2,101.7z M499.3,100.7
							c0.2-0.6,0.5-1.1,0.7-1.7c-1.2-2.2-3.2-2.7-5-3.6c-0.2,0.5-0.4,0.9-0.6,1.4C496.1,98.1,497.7,99.4,499.3,100.7z M495.3,108
							c-0.2,0.4-0.4,0.8-0.6,1.2c0.8,3.3,3.1,2.8,4.8,4c0.2-0.4,0.4-0.9,0.6-1.3C498.5,110.6,496.9,109.3,495.3,108z"/>
						<path class="st4" d="M550.8,132.2c0.1,9.2,0.2,18.4,0.3,27.7c0,5.4,0,10.8,0,16.6c-15,0-29.7,0-44.8,0c0-14.9,0-29.6,0-44.2
							C521.1,132.2,536,132.2,550.8,132.2z M546.2,138.8c-9.8,0-19.4,0-29.1,0c1.9,2.4,3.9,5.3,6.1,5.5c7.6,0.6,15.2,0.2,22.9,0.2
							C546.2,142.3,546.2,140.6,546.2,138.8z M539.6,170.3c0.1-0.3,0.2-0.5,0.3-0.8c-2-1.6-4-4.5-6.1-4.7
							c-7.4-0.6-14.9-0.2-22.4-0.2c0,2.2,0,3.8,0,5.7C520.9,170.3,530.2,170.3,539.6,170.3z M511.4,155.4c0,2.5,0,4.4,0,6.4
							c6.5,0,12.7,0,19.1,0C525.3,152.9,518.2,155.5,511.4,155.4z M546.3,147.3c-6.8,0-13.2,0-20.1,0c5.9,8.9,13.2,4.5,20.1,5.7
							C546.3,150.8,546.3,149.2,546.3,147.3z M535.6,155.5c3.2,3.1,5.6,8.4,10.6,6.1c0-1.9,0-3.9,0-6.1
							C542.6,155.5,539.1,155.5,535.6,155.5z M520.3,152.6c-2.7-2.7-4.8-7.1-8.9-5.2c0,1.7,0,3.3,0,5.2
							C514.5,152.6,517.4,152.6,520.3,152.6z"/>
						<path class="st4" d="M486.2,218c-8.6-3.6-12.2-8.7-11.7-16.3c0.5-7.4,5.9-13.4,12.7-14.1c7.3-0.7,14.1,4.4,15.5,11.5
							c1.6,7.7-2.1,15.1-8.9,17.8c-0.9,0.4-1.8,0.7-2.6,1.1C489.5,218,487.8,218,486.2,218z M496.2,202.8c0-4.4-3.3-8-7.3-8.1
							c-4.1-0.1-7.8,3.8-7.7,8.2c0.1,4.3,3.5,7.9,7.6,7.9C492.9,210.8,496.2,207.2,496.2,202.8z"/>
						<path class="st4" d="M424.6,217.5c-4.2-1.6-7.7-4.2-9.3-9.2c-2.3-7.2,0.7-15,6.9-17.9c6.2-2.9,13.4,0.6,15.9,7.7
							c2.5,7.1-0.3,15-6.4,18.1c-0.8,0.4-1.6,0.8-2.4,1.3C427.8,217.5,426.2,217.5,424.6,217.5z M426.8,195.8c-3.8,0-7,3.5-6.9,7.8
							c0.1,4,3.2,7.6,6.7,7.7c3.8,0.1,6.8-3.4,6.8-7.9C433.4,199,430.6,195.8,426.8,195.8z"/>
						<path class="st4" d="M507.1,128.6c0-14.7,0-29.2,0-44c13.5,0,27,0,40.9,0c0,14.5,0,29.2,0,44
							C534.3,128.6,520.8,128.6,507.1,128.6z M517.1,90.7c-0.1,0.3-0.2,0.5-0.4,0.8c1.8,1.6,3.5,4.4,5.4,4.5
							c7.2,0.5,14.4,0.2,21.6,0.2c0-2.1,0-3.7,0-5.5C534.7,90.7,525.9,90.7,517.1,90.7z M538.4,122.5c0.1-0.3,0.2-0.5,0.4-0.8
							c-1.9-1.7-3.7-4.6-5.6-4.7c-6.9-0.6-13.8-0.2-20.8-0.2c0,2.1,0,3.8,0,5.7C521.1,122.5,529.8,122.5,538.4,122.5z M529.1,113.7
							c-4.9-9-11.4-6.4-17.6-6.4c0,2.4,0,4.3,0,6.4C517.4,113.7,523.2,113.7,529.1,113.7z M543.7,99.3c-6.3,0-12.4,0-18.6,0
							c5.4,8.8,12.2,4.7,18.6,5.6C543.7,102.7,543.7,101.1,543.7,99.3z M543.7,113.4c0-1.9,0-3.9,0-5.9c-3.4,0-6.7,0-10.7,0
							C536.8,110.7,539.2,115.6,543.7,113.4z M511.4,104.6c3.1,0,5.7,0,9.1,0c-3.2-2.9-5.3-7.1-9.1-5.2
							C511.4,101.1,511.4,102.7,511.4,104.6z"/>
						<path class="st4" d="M455.4,147.8c-0.8-1.2-1.4-2.1-2.2-3.3c3.8-2.9,7.5-5.6,11.4-8.6c0.7,1.1,1.3,2.1,2.1,3.3
							C463,142.1,459.4,144.8,455.4,147.8z"/>
					</g>
				</g>
				<rect x="500.8" y="178.9" class="st4" width="45.4" height="6.6"/>
			</g>
			<g id="Layer_9">
				<g id="Yi7mKX_1_">
					<g>
						<path class="st9" d="M493.3,167.8c0-22,0-43.8,0-65.5c-7.6-2.2-49.7-1.3-53.9,1.3c-0.1-1.7-0.2-3.2-0.3-5.2
							c10.1,0,19.9,0.5,29.6-0.1c15.9-0.9,30.9,1.1,45.3,8.5c10.4,5.4,21.7,9.2,32.5,13.9c1.4,0.6,3,2.7,3,4.1
							c0.2,14.1,0.1,28.3,0.1,42.9C531.1,167.8,512.5,167.8,493.3,167.8z"/>
						<path class="st9" d="M488.9,111.9c-3.8,1.9-7.7,4-12.3,6.3c3.4,0.6,6.2,1.1,9.6,1.7c0,11.7-0.1,23.3,0.1,35
							c0.1,4.6-1.6,9.5,3,13.4c1.2,1.1,0.4,4.5,0.5,7.7c-6.5-6.3-6.5-6.2-12.7-1.5c-0.6,0.5-1.5,0.9-2.2,0.9c-19,0.1-37.9,0-57.5,0
							c0.4-16.5-4.3-32.9,3.8-49.1c-2-0.1-3.5-0.4-4.8-0.3c-1.4,0.1-2.7,0.6-4.1,1c0.6,1.4,1.5,2.7,1.6,4.1
							c0.3,3.9,0.7,7.8,0.3,11.6c-0.3,2.7-1.9,5.2-2.7,7.4c-4.9-5.6-4.5-12.6-2-20.6c1.9-6.2,5.3-5.5,9.6-5.6c1.4,0,3.4-0.2,4.1-1.1
							c2.5-3.1,5.2-4.8,9.3-4.7c0.9,0,2.3-1.7,2.8-2.9c2.8-8,7.9-11.9,16.9-11.2c9.3,0.7,18.7,0.2,28,0.2
							C486.9,104.3,486.9,104.3,488.9,111.9z M469.2,149.5c-0.1,0.7-0.2,1.4-0.2,2.1c2.5,0.3,5.1,1.1,7.6,0.9
							c1.7-0.1,4.4-1.2,4.8-2.4c1.5-5.4,2.9-11,3.1-16.5c0.2-6.2-3.6-10.3-8-10.3c-15.8-0.1-31.6,0-47.4-0.2c-2.7,0-4.5,0.6-5.2,3.4
							c-1.3,4.8-2.6,9.6-4,14.3c-1.2,3.8-0.2,5.2,3.9,6c14.1,2.7,28.1,2.3,42.1-0.4c1.5-0.3,3.4-2.5,3.6-4c0.8-5,0.9-10.2,1.3-15.3
							c2.9,0,5.5,0,9,0c-6.9,7.4-3.3,14.6-0.3,22.1C475.3,149.2,472.3,149.4,469.2,149.5z"/>
						<path class="st9" d="M417.3,192.4c0-4.5,0-8.4,0-12.6c19.2,0,38.1,0,57.8,0c0,3.5,0.4,7-0.2,10.3c-0.2,1.2-2.7,2.9-4.2,2.9
							c-11.8,0.5-23.6,0.8-35.4,0.8C429.3,193.7,423.4,192.9,417.3,192.4z M422.7,180.1c-1.7,1.2-2.9,2-4,2.9c1.5,0.9,3,2.1,4.7,2.5
							c0.7,0.2,1.8-1.4,2.8-2.2C425.1,182.3,424.1,181.4,422.7,180.1z M464.7,180.4c-3.1,0.9-5.3,1.6-7.6,2.2c0.6,1,1.1,2.8,1.7,2.8
							C461.3,185.5,464.3,185.9,464.7,180.4z"/>
						<path class="st9" d="M470.3,196.7c8.8,0.6,8.5-5.3,8-11.3c-0.1-1.3,0-2.8,0.6-3.9c1.3-2.4,3-4.6,4.6-6.9
							c1.4,2.2,3.8,4.4,4,6.8c0.4,5.6,0.2,11.2-0.5,16.8c-0.7,5.9-5.5,5.1-9.6,5.1C473.3,203.2,470.4,201.9,470.3,196.7z
							 M484.1,179.3c-0.5,0-0.9,0-1.4,0c-2,6.4-2.1,12.7,0.1,19c0.4,0,0.9,0,1.3,0C484.1,192,484.1,185.7,484.1,179.3z"/>
						<path class="st9" d="M529.5,177.3c-11.5,0.6-23,1.3-34.9,2c-0.1-1.6-0.1-3-0.2-4.1c11.9,0,23.5,0,35.1,0
							C529.4,175.9,529.5,176.6,529.5,177.3z"/>
						<path class="st9" d="M535.1,170.8c4,4.9,5.3,16.2,2,19c-1.9,1.6-5.5,1.4-8.3,1.3c-1.6-0.1-3.1-1.9-5.5-3.5
							c9.3-2,9.2-2,10-10.4C533.4,175.2,534.3,173.4,535.1,170.8z"/>
						<path class="st9" d="M529.4,182.7c-11.2,2.9-23,3.2-34.8,5.6c-0.1-1.6-0.2-3-0.4-4.5c11.9-1.1,23.3-2.2,34.8-3.3
							C529.2,181.3,529.3,182,529.4,182.7z"/>
						<path class="st9" d="M542.1,170.9c4,2.8,5.5,10.4,3.6,15.6c-0.5,1.5-2.7,2.3-4.1,3.5c-0.5-0.3-0.9-0.6-1.4-1
							C540.8,183.1,541.4,177.3,542.1,170.9z"/>
						<path class="st9" d="M441.7,196.9c-0.5,7.3-5.4,5.6-9.2,5.9c-4.4,0.3-5.8-2.1-6-5.9C431.5,196.9,436.4,196.9,441.7,196.9z"/>
					</g>
				</g>
			</g>
		</g>
		<g id="Layer_2_2_" class="st1">
			<g id="eOTZNW_1_">
				<g>
					<path class="st10" d="M855.1,315.3c-28.1-31.9-55.7-63.2-83.6-94.9c11.1-12.6,22.1-25.1,33.4-38c16.7,18.9,33.3,37.7,50.2,57
						c33.5-38,66.8-75.8,100.5-114c11.2,12.6,22.1,25,33.5,37.9C944.5,213.8,900,264.2,855.1,315.3z"/>
				</g>
			</g>
			<g id="Ohuny6_1_">
				<g>
					<path class="st10" d="M666.8-229.7c5.7,0,11.3,0,17,0c1.1,0.3,2.2,0.6,3.4,0.8c46.9,6.4,78.4,31.9,94.6,76.1
						c3.1,8.6,4.1,18,6,27.1c0,5.7,0,11.3,0,17c-0.3,1.3-0.7,2.5-0.8,3.8C781.1-61,757.6-30.1,717-13c-10.4,4.4-22,5.6-33.1,8.3
						c-5.7,0-11.3,0-17,0c-1.1-0.3-2.2-0.6-3.3-0.8c-47-6.4-78.6-31.9-94.7-76.2c-3.1-8.6-4.1-18-6-27c0-5.7,0-11.3,0-17
						c0.3-1.4,0.7-2.8,0.9-4.3c6.7-46.3,32.1-77.7,76-93.7C648.4-226.8,657.8-227.8,666.8-229.7z M749.8-143.3
						c-1-1.5-1.7-2.8-2.7-3.8c-2.9-3-5.8-6-8.8-8.9c-4.7-4.7-5.7-4.7-10.5,0.1c-19.6,19.5-39.1,39.1-58.7,58.6c-4,4-5.6,4-9.5,0
						c-8.1-8.2-16.2-16.3-24.1-24.7c-3.2-3.4-6-3.5-9.3-0.2c-3,2.9-6.1,5.7-9.2,8.4c-3,2.6-3.3,5.2-0.6,8.1
						c14.6,15,29.2,30.1,43.8,45.2c2.7,2.8,5.2,3.2,8.1,0.3c26.2-26.3,52.5-52.5,78.8-78.9C748.1-140.1,748.8-141.7,749.8-143.3z"/>
				</g>
			</g>
		</g>
		<g id="Layer_3_1_" class="st1">
			<g id="jSJOsi_1_">
				<g>
					<path class="st11" d="M265.8,162c-6.5,20.4-13.2,40.7-19.6,61.1c-11.1,35.1-22.2,70.3-33.2,105.5c-2.5,7.8-7.4,9-13,3.1
						c-34.2-36.1-68.5-72.2-102.7-108.4c-6.1-6.4-5-11.4,3-14.2c51.2-18,102.4-36,153.6-54c4.8-1.7,8.8-1.9,12,3
						C265.8,159.3,265.8,160.7,265.8,162z M203.1,314.6c13.3-42.1,26.4-83.6,39.2-124.1c-25.9,27.2-52.2,54.9-78.5,82.5
						C176.4,286.5,189.4,300.2,203.1,314.6z"/>
					<path class="st11" d="M53.5,368.1c17.1-18.2,34.2-36.4,51.4-54.5c3-3.2,7-3.2,9.6-0.4c2.7,2.8,2.6,6.8-0.6,10.1
						c-16.9,17.9-34,35.8-51,53.7c-3.1,0-6.3,0-9.4,0C53.5,374.1,53.5,371.1,53.5,368.1z"/>
					<path class="st11" d="M53.5,312.3c1-1.2,1.9-2.8,3.2-3.5c3.3-1.9,6.5-1.5,8.8,1.8c2.1,3.1,1.7,6.4-1.1,8.9
						c-3,2.6-6.1,2.4-8.9-0.5c-0.8-0.8-1.3-1.8-1.9-2.7C53.5,315,53.5,313.7,53.5,312.3z"/>
					<path class="st11" d="M110.1,377.1c-0.5-0.6-1-1.2-1.5-1.8c-2.5-3.3-2.4-7.3,0.2-9.7c2.6-2.4,7.1-2.1,9.3,0.6
						c2.2,2.8,1.9,6.8-1,9.7c-0.4,0.5-0.9,0.8-1.4,1.2C113.9,377.1,112,377.1,110.1,377.1z"/>
					<path class="st11" d="M160.3,328.1c-1.5,2.6-2.2,4.7-3.6,6.1c-6,6.5-12.1,12.9-18.2,19.3c-3.3,3.4-7.3,3.7-9.9,0.8
						c-2.7-2.8-2.4-7.1,0.8-10.5c6.1-6.6,12.2-13.3,18.7-19.5c1.7-1.6,5.2-2.3,7.5-1.7C157.4,323,158.6,326,160.3,328.1z"/>
					<path class="st11" d="M107.4,271.8c-1.5,2.6-2.2,4.6-3.5,6.1c-6.1,6.7-12.3,13.2-18.6,19.7c-3.4,3.5-7.1,3.6-9.9,0.5
						c-2.7-3-2.5-6.6,0.7-10.1c6.2-6.7,12.5-13.6,19-19.9c1.6-1.5,4.9-2.3,7.1-1.7C104.1,266.9,105.5,269.7,107.4,271.8z"/>
					<path class="st11" d="M126.3,307.3c-3.7-0.1-6.4-3.2-6.2-7.2c0.2-3.6,3.1-6.5,6.5-6.5c3.6,0.1,6.4,3.4,6.2,7.2
						S129.8,307.4,126.3,307.3z"/>
				</g>
			</g>
			<g id="_x38_cYwIc_1_">
				<g>
					<path class="st11" d="M718.2,255.4c-0.5,1.9-1.2,5.5-2.5,8.8c-25.2,65.1-50.4,130.2-75.8,195.2c-1.5,3.9-2.2,9.2-7.7,9.3
						c-5.1,0.1-6.3-4.8-8.1-8.3c-13.1-25-25.9-50-39.1-74.9c-1.4-2.6-3.9-5.1-6.4-6.6c-24.3-13.3-48.8-26.3-73.1-39.5
						c-3.6-2-8.8-3.2-8.6-8.7s5.4-6.2,9.2-7.8c63.2-25.5,126.5-50.9,189.8-76.3c3.9-1.6,8.2-2.8,12.4-3
						C714.8,243.3,718.2,247.1,718.2,255.4z M679.6,271.3c-0.2-0.3-0.4-0.5-0.6-0.8c-50.8,20.5-101.7,40.9-153.1,61.6
						c1.7,1.1,2.8,1.8,3.9,2.4c17.6,9.5,35.3,18.9,52.8,28.6c3.7,2.1,5.7,1.3,8.4-1.5c28.4-29.1,57-58.1,85.5-87.1
						C677.6,273.5,678.6,272.4,679.6,271.3z M598.7,377.7c10.4,19.9,21,40.4,32.2,61.8c20.5-52.9,40.6-104.6,60.7-156.3
						C660.7,314.6,629.9,346,598.7,377.7z"/>
				</g>
			</g>
			<polygon class="st11" points="708.2,243.8 515.9,335 587.9,375.1 			"/>
			<g>
				<path class="st12" d="M367,92.7c20.8-1.2,33-24.5,21.6-42.3c-6.1-9.5-1.4-15,5-21.3c6.6-6.5,12.5-7.9,20.4-1.8
					c11.4,8.8,36.6-0.6,40.4-14.6C458-0.5,471.9-6.8,484.1-0.2c2.6,1.4,4.6,5.5,5.1,8.7c2.7,17.1,24.6,29.2,39.8,20.5
					c9.2-5.3,15.5-5.1,22.6,2.8c6.8,7.5,8.4,14.1,2.3,23.2c-7,10.4,4.7,35.3,17.2,37.6c11.1,2,15.8,8.3,14.8,19.3
					c-0.9,9.8-3.8,16.5-16,16.1c-3.8-0.1-8.8,5.1-11.5,9c-3.1,4.4-5.1,9.9-6.1,15.2c-0.8,4.2-1.1,10.2,1.2,13.1
					c6.5,7.9,9.3,14.5,0.5,22.4c-7.7,6.9-14.1,15-25.2,3.9c-6.6-6.6-37.8,3.1-38.5,12.2c-1.2,16.9-11.3,17.3-23.6,16.1
					c-3.1-0.3-6.3-0.5-11-0.9c2.6-16.8-7.3-23.4-21.1-28.2c-8.4-2.9-15-4.7-22.5,1.9c-8.4,7.3-15,2-21.2-4.6
					c-5.1-5.3-9.1-9.6-3.6-17.6c12.2-18.3,1.5-41.2-20.3-44.6C367,114.8,367,103.8,367,92.7z M471.5,67.4
					c-23.1,0.2-42.1,19.3-42.1,42.2c0,23.1,20.7,43.7,43.3,43.1c22.4-0.6,42.4-20.9,42.3-42.9C515,86.5,495.1,67.2,471.5,67.4z"/>
			</g>
		</g>
	</g>
	<g id="_x36_IyQjJ_1_">
		<g>
			<path class="st13" d="M180.2,198.7c-34.6,30.8-83.9,34.8-122.3,10.1C18.4,183.3,0.1,133.1,15.1,87.4c16-48.8,58.4-71.2,93.7-72.2
				c0,0.6,0,1.2,0,1.8c0,35.7,0,71.4,0,107c0,1.1,0.3,1.9,1,2.6c23.1,23.7,46.2,47.4,69.4,71C179.6,197.9,179.9,198.3,180.2,198.7z
				 M95,30.9c-0.5,0.1-0.7,0.1-0.9,0.2c-11,2.5-21.3,6.8-30.6,13.2c-28.9,19.9-45.3,54.9-37.9,93.9c3.4,17.7,11.6,32.9,24.1,45.6
				c21.5,21.8,47.4,30.2,77.3,25.8c11-1.6,21.2-5.8,30.9-11.4c1.3-0.7,1.4-1,0.4-2.2c-1.6-1.9-3.3-3.7-4.9-5.5
				c-18.7-19.2-37.5-38.5-56.2-57.7c-1.1-1.1-1.6-2.2-1.6-3.8c0-32.1-0.1-64.2-0.2-96.3C95,32.2,95,31.6,95,30.9z"/>
			<path class="st13" d="M116.1,116.2c0-0.4-0.1-0.7-0.1-1c0-30.1,0.1-60.1,0.1-90.2c0-2.9,0.1-5.9,0.1-8.8c0-0.8,0.3-1.1,1.1-1
				c23.3,1.6,44,9.8,61.7,25.5c19.2,17.2,30.9,38.6,34.7,64.5c0.4,2.9,0.7,5.7,1,8.6c0.1,0.7,0.2,1.6,0.3,2.4
				C182,116.2,149.1,116.2,116.1,116.2z"/>
			<path class="st13" d="M185.5,193.5c-22.7-23.3-45.4-46.4-68-69.7c32.4,0,64.9,0,97.4,0C213.5,150.8,203.7,174,185.5,193.5z"/>
		</g>
	</g>
	<rect x="293.9" y="302.1" class="st14" width="41.5" height="141.2"/>
	<rect x="355.1" y="286.2" class="st14" width="41.5" height="157.1"/>
	<rect x="411.9" y="297.6" class="st14" width="41.5" height="145.7"/>
	<g id="_x35_PnmA7_1_">
		<g>
			<path class="st14" d="M507,150.8c0-19.7,0.2-39.3-0.1-59c-0.1-6.5,1.7-9,7.1-8.6c5.7,0.4,11.4,0.2,17.1,0c4-0.1,6,1.6,6,6.6
				c0,41.3,0,82.5,0,123.8c0,4.5-1.6,6.5-5.4,6.4c-6.2-0.2-12.4-0.3-18.5,0c-4.9,0.3-6.3-2.3-6.3-7.9
				C507.1,191.8,507,171.3,507,150.8z"/>
			<path class="st14" d="M437.2,151.6c0,19.7-0.3,39.3,0.1,59c0.2,7.9-2.1,10.2-8.2,9.6c-5.2-0.5-10.5-0.3-15.8-0.1
				c-4.2,0.2-5.6-2-5.6-6.9c0.1-41,0.1-82,0-122.9c0-5.5,1.8-7.3,6.2-7.1c5.7,0.3,11.4,0.4,17.1,0c4.9-0.4,6.3,2.2,6.2,7.8
				C437.1,111.2,437.2,131.4,437.2,151.6z"/>
			<path class="st14" d="M486.3,165.8c0,15.5-0.1,31,0.1,46.5c0.1,5.6-1.4,8.1-6.3,7.8c-5.9-0.4-11.9-0.3-17.8,0
				c-4.6,0.2-6-2.2-6-7.4c0.1-31,0.1-62,0-93.1c0-5.5,1.4-8.3,6.3-8c5.9,0.3,11.9,0.2,17.8,0c4.5-0.2,6,2.4,6,7.6
				C486.2,134.8,486.3,150.3,486.3,165.8z"/>
			<path class="st14" d="M364,174.1c0-12.2,0.1-24.4-0.1-36.6c-0.1-5.4,1.7-7.5,6.1-7.3c5.9,0.2,11.9,0.2,17.9,0
				c4-0.1,6,1.7,5.9,6.7c-0.1,25.5-0.1,51,0,76.5c0,4.9-1.6,7-5.7,6.8c-6.2-0.3-12.4-0.3-18.5,0c-4.2,0.2-5.7-2-5.6-6.9
				C364.1,200.2,364,187.2,364,174.1z"/>
			<path class="st14" d="M587,175.2c0,12.7-0.1,25.5,0.1,38.2c0.1,5.1-1.5,6.9-5.6,6.8c-6.2-0.3-12.3-0.2-18.5,0
				c-3.8,0.1-5.3-1.7-5.3-6.4c0.1-25.7,0.1-51.5,0-77.2c0-4.7,1.6-6.4,5.3-6.4c6.2,0.1,12.3,0.2,18.5,0c4.1-0.1,5.7,1.9,5.6,6.9
				C586.8,149.8,587,162.5,587,175.2z"/>
		</g>
	</g>
</g>
<g id="Layer_2_3_">
	<rect x="364" y="84.4" class="st14" width="32.7" height="135.8"/>
	<rect x="406.2" y="26.3" class="st14" width="32.7" height="193.9"/>
	<rect x="455" y="53.2" class="st14" width="32.7" height="167"/>
	<rect x="505.6" y="26.3" class="st14" width="32.7" height="193.4"/>
	<rect x="555.9" y="53.2" class="st14" width="32.7" height="166.8"/>
</g>
</svg>
