<?xml version="1.0" encoding="utf-8"?>
<!-- Generator: Adobe Illustrator 24.3.0, SVG Export Plug-In . SVG Version: 6.00 Build 0)  -->
<svg version="1.1" id="Layer_1" xmlns="http://www.w3.org/2000/svg" xmlns:xlink="http://www.w3.org/1999/xlink" x="0px" y="0px"
	 viewBox="0 0 1000 1000" style="enable-background:new 0 0 1000 1000;" xml:space="preserve">
<style type="text/css">
	.st0{display:none;}
	.st1{display:inline;}
	.st2{fill:#FCFAFA;}
	.st3{fill:#D8527C;}
	.st4{fill:#9D9E9E;}
</style>
<g id="Layer_1_1_" class="st0">
	<g class="st1">
		<path class="st2" d="M475,0c16.7,0,33.3,0,50,0c0.7,1.4,2,0.9,3.1,0.9c13.6,0.8,27.2,2.1,40.8,3.9c76,10.4,146.3,36.3,209.5,79.8
			c126,86.6,199.1,206,218.9,357.8c0.9,7.2,0.7,14.5,2.7,21.6c0,24.7,0,49.3,0,74c-1.3,0.7-0.9,2-1,3.1c-1.4,17.3-3.7,34.4-6.9,51.5
			c-19.4,102-65.8,189.9-139.6,262.8C764.8,941.9,658.9,989.5,536,999.2c-1.3,0.3-2.5,0.8-3.8,0.8c-22.4,0-44.9-0.1-67.3-0.1
			c-0.8-1.2-2.1-0.8-3.2-0.9c-19.1-1.6-38.1-3.9-56.9-7.8C268.2,963.1,160.7,891,83,775.3c-50.4-75-76.9-158.5-81.9-248.8
			C1,525.3,1.7,523.8,0,523c0-4,0-8,0-12c0.3-8.7,1-17.3,0-26c0-2.7,0-5.3,0-8c1.9-1.1,1-3,1.1-4.5c2.8-46.3,11.5-91.4,26.6-135.3
			C92.2,149.4,262.8,17.4,461,1.7C465.6,1.3,470.5,2.1,475,0z M500.3,835.7c48.7,0,94.8-9.8,139.5-33.7
			c101.5-54.3,158.7-139.2,167.7-254.1c6.4-81.3-18.7-153.8-70.3-217c-23.5-28.8-51.8-52.2-84.1-70.7c-12.3-7-26.9-4.5-35.9,5.9
			c-8.7,10-9.1,24.7-1.2,35.6c3.9,5.3,9.6,8.1,15,11.4c88,52.6,136.1,159.6,116.7,259.9c-26.9,139.2-158.1,227.9-297,200.9
			c-120.3-23.4-207.8-135.6-200.9-258.1c4.3-75.3,36.4-136.7,94.6-184.6c10.2-8.4,21.3-15.4,32.6-22.2c10.4-6.3,15.1-16,13.5-28
			s-8.6-20-20.3-23.6c-9.7-3-18.2,0.3-26.5,5.3C234.2,328,176.4,452.1,196.8,578.2C220.7,725.7,350.4,835.7,500.3,835.7z
			 M532.1,284.6c0-29.3,0-58.6,0-87.9c0-2.6-0.1-5.4-0.7-7.9c-3.9-17-18.8-26-39-23.6c-15.5,1.8-26.8,14.7-26.8,30.9
			c-0.1,59.1,0,118.2,0,177.4c0,2.8,0.3,5.7,1,8.4c3.8,15,16.2,23.2,34.2,23c18.4-0.3,31.3-13.3,31.3-31.7
			C532.1,343.6,532.1,314.1,532.1,284.6z"/>
	</g>
</g>
<g id="Layer_2_1_" class="st0">
	<g id="yc79AF.tif" class="st1">
		<g>
			<path d="M499.8,562.2c-137.7,0-249.7-112-249.8-249.8c0-138.2,112.2-250.2,250.5-250.1c137.6,0.2,249.4,112.4,249.3,250.3
				C749.7,450.4,637.6,562.3,499.8,562.2z"/>
			<path d="M507.4,937.8c-84.6-1.9-161-8.2-234.3-34c-20.6-7.3-40.2-18.2-58.7-30.1c-19.2-12.3-28.1-31.3-27.1-55
				c1.4-36.5,3.6-72.8,14-108c11.2-38,32.7-69.5,62.9-94.4c26.3-21.7,53.9-41.9,81.3-62.3c2.2-1.7,7.9-0.9,10.7,0.8
				c44.6,25.8,92.6,39.2,144.2,39c50.9-0.1,98.4-13,142.1-39c5.6-3.3,9.2-3.4,14.4,0.7c24.3,19,49.4,37.2,73.6,56.4
				c46.9,37.2,71.2,86.9,77.6,145.8c2.2,20.7,2.7,41.5,4.1,62.3c1.6,22.1-7.2,40.2-24.9,52.1c-17.3,11.7-36,22.3-55.5,29.9
				c-48.8,19.1-100.4,26.7-152.3,31.4C553.2,935.8,526.5,936.7,507.4,937.8z"/>
		</g>
	</g>
</g>
<g id="Layer_3">
	<g id="Dulr9D_1_">
		<g>
			<path class="st3" d="M-616.1,218.1C-683.8,150.7-746.7,88-809.5,25.3c-25.5-25.4-25.4-37.2,0.2-62.8
				c38.2-38.3,76.4-76.5,114.7-114.6c23.6-23.5,36.4-23.6,59.7-0.3c63.1,63.3,126.3,126.8,191.6,192.3
				c47.8-48.4,94.5-95.6,141.2-142.8c17.7-17.9,35.3-35.9,53.4-53.4c18.8-18.2,33.1-18.2,51.7,0.2C-155.4-115-114-73.6-72.9-32
				C-54-12.9-54.4,1.6-74.1,21.3c-59,59.3-118.2,118.4-177.5,177.3c-5.1,5.1-12.3,8.1-19.9,13c67.7,67.5,130.6,130.1,193.4,192.8
				c25.5,25.4,25.4,37.2-0.2,62.8c-38.2,38.3-76.4,76.5-114.7,114.6c-23.6,23.6-36.2,23.6-59.6,0.2
				c-63.2-63.2-126.3-126.6-191.7-192.2c-47.8,48.4-94.5,95.6-141.2,142.8c-17.7,17.9-35.3,35.9-53.4,53.4
				c-18.8,18.2-33.1,18.2-51.7-0.2c-41.6-41.1-83-82.5-124.1-124.1c-18.9-19.1-18.5-33.6,1.2-53.3c59-59.3,118.2-118.4,177.5-177.3
				C-630.8,226-623.7,223-616.1,218.1z"/>
		</g>
	</g>
</g>
<path class="st4" d="M976.3,476.8c-11.3-60.6-25.7-73.4-86.3-73.7c-21.5-0.1-43.1,0-69.7,0c0-56.3-1.8-108.9,0.5-161.3
	c2.1-49.3-4-91.1-66.8-99.8c0-45.5,0-87.5,0-129.5C645.2-0.7,429.8-10.5,317.6,21c-86.3,24.2-71.7,101.1-71.7,121
	c-61.8,8.4-69.1,49.3-66.8,98.7c2.4,52.3,0.5,104.9,0.5,162.4c-27.8,0-51.8-0.2-75.8,0c-52.5,0.5-68.9,14.9-79.3,67.1
	c-7.6,38-16.3,75.8-24.5,113.6c0,100.6,0,201.3,0,301.9c36.6,62.5,100.6,33.9,153.2,43.8c-6.4,23.2-12.4,44.8-19.6,70.5
	c36.5,0,694.9,0,733.1,0c-6.7-23.7-13.1-46.2-20-70.5c52.8-9.7,116.6,18.6,153.3-43.7c0-97.9,0-195.9,0-293.8
	C992.1,553.6,983.5,515.3,976.3,476.8z M221,205.7c1.1-15.5,14.1-34.5,38.7-56.3c0-14.2-5.9-77,89.8-101.3
	c102.9-26.2,282.8-5.6,367.3-5.6c0,43.2,1.2,69.1,1.2,112.4c53.3,5.8,65.1,34.5,63,78c-2.8,57.4,2.2,124,2.2,181.5c-6,0.7,6-0.7,0,0
	c-10.6-65.6-23.5-153.7-34.1-219.3c-2,0-5.5,159.1-2.9,227.3c1.4,35.5-8.8,46.6-45.5,46c-135-2.2-270.1-1.8-405.1-0.2
	c-32.3,0.4-42.8-8.8-41.8-41.2c2.2-69.8-6.5-172.4-12.6-242.5c-10.3,65.7-13.5,164-23.8,229.6c-5.8-0.6,8.3-3,2.5-3.5
	C220,338.4,215.9,277.7,221,205.7z M822.2,963.2c-67.2,0-102.4,0.4-162.9-0.6c-5.6-0.1-27.4-33.4-75.4-35.2
	c-58.7-2.3-117.5-1-176.1,1.3c-15.4,0.6-39.4,9.4-43.6,20.5c-10.8,28.4-60.1,17.2-84.6,16.7c-50.3-1.1-21.2,1.3-80.2,1.3
	c15-64,2.6-91.2,28.5-136.9c5-8.9,91.1-22.5,102.3-22.6c159.7-1,202.1-2.3,355.4,4.4c11.2,0.5,81.5,9.5,86.5,18.4
	C798.1,876.1,799.3,903.8,822.2,963.2z M948.6,836.3c-0.2,13.7-12.5,37.8-21.6,39c-41.3,5.5-51.3,9.9-93.1,9
	c-4.1-0.1-10.8-19.4-11.3-30c-4.5-105.9-4.2-105.9-112-105.9c-151.5,0-302.9-0.1-454.4,0.1c-67.2,0.1-77.9,11.3-78.4,77.8
	c-0.5,63.3,11.9,61.6-60.9,61.7c-98.8,0.1-71.7-2.1-71.5-98.7c0.2-104.2-5.2-208.6,22.2-311.3c13.9-51.8-9.9-41.2,42.8-42
	c20.3-0.3,40.5-0.1,65.4-0.1c0,25.6,3,26.5,3,48.7c214,0,425.8,0,640.4,0c0.9-20.5,0.5-23.4,1.6-47.5c32.2,0,98.3-7.1,102.7,23.4
	C941.8,587.3,950.4,710.4,948.6,836.3z"/>
<g id="nJfsIe_1_">
	<g>
		<path class="st4" d="M1250.4,195.6c-4.1-1.4-7.7-3.1-11.6-3.9c-7.5-1.5-8.7-6.2-8.7-12.4c0.2-65.2,0-130.3,0.2-195.5
			c0-4.4,2.3-9.5,5.2-12.9c12.2-13.9,24.7-27.4,37.4-40.5c2.3-2.5,6.8-4.2,10.4-4.2c54.8-0.2,109.8-0.2,164.8-0.2
			c8.9,0,13.3,4.6,14.5,14.7c0.2,2.1,0,4.4,0,7.7c5.6,0.4,11,0.8,16.2,1c8.9,0.2,10.6,1.7,10.6,10.2c0,15.4,0,30.7,0,46.1
			c0,66.2,0,132.6,0,198.8c0,12.9-1.9,14.7-15.4,14.7c-67.4,0-134.5-0.2-201.9,0.2c-16,0-23.7-4.6-21.4-19.5
			C1250.9,198.3,1250.6,196.8,1250.4,195.6z M1443.9,176.5c0-79.1,0-157.3,0-235.8c-52.3,0-104.4,0-157.1,0
			c-0.8,12.9-1.5,25.7-2.1,38.6c-0.4,7.1-2.9,9.5-10.6,9.1c-2.5-0.2-5.2-0.6-7.7-0.8c-6.8-0.4-13.5-1-20.1-1.4c0,64.1,0,127,0,190.1
			C1312.3,176.5,1377.9,176.5,1443.9,176.5z M1473.8,202.6c0-80.3,0-159.8,0-239.1c-4.1,0-7.3,0-11.2,0c0,2.9,0,5.4,0,7.9
			c0,40.5,0,80.9,0,121.4c0,30.1,0,60,0,90.1c0,8.5-2.7,11.2-11.8,11.6c-2.1,0-4.2,0-6.4,0c-56.5,0-113.1,0-169.8,0
			c-2.7,0-5.6,0-8.3,0c0,3.3,0,5.6,0,8.3C1335.9,202.6,1404.6,202.6,1473.8,202.6z M1269.8-25.9c0.4-7.1,0.8-13.3,1.2-20.8
			c-6.2,6.8-11.6,12.5-17.9,19.7C1259.6-26.5,1264.3-26.3,1269.8-25.9z"/>
		<path class="st4" d="M1347-8c21.4,0,42.8-0.2,64.3,0.2c2.5,0,5,1.9,7.5,2.9c-2.7,1.2-5.2,3.5-7.9,3.5c-42.5,0.2-85.1,0.2-127.6,0
			c-2.9,0-5.6-1.9-8.5-3.1c2.7-1.2,5.4-3.1,8.1-3.3C1304.2-8,1325.6-8,1347-8z"/>
		<path class="st4" d="M1263.1,50.5c1.9-0.6,3.9-1.9,5.8-1.9c51.5-0.2,103.3-0.2,154.8,0c1.7,0,3.7,1.7,5.4,2.7
			c-1.7,0.8-3.5,2.1-5.2,2.1c-51.9,0.2-103.6,0.2-155.6,0c-1.5,0-3.1-0.6-4.6-1C1263.5,51.9,1263.3,51.3,1263.1,50.5z"/>
		<path class="st4" d="M1263.3,149.3c1.9-0.8,3.9-1.9,5.8-1.9c51.5-0.2,103.3-0.2,154.8,0c1.9,0,3.7,0.8,5.6,1.2
			c0,0.8,0,1.4,0.2,2.1c-2.1,0.6-4.2,1.5-6.6,1.5c-51.1,0-102.3,0-153.2,0c-1.9,0-3.9-0.4-6-0.8
			C1263.5,150.7,1263.5,150.1,1263.3,149.3z"/>
		<path class="st4" d="M1429.3,114c-2.1,0.4-4.2,1-6.4,1c-51.1,0-102.1,0-153.2,0c-1.9,0-3.9-1.4-5.8-2.1c1.9-0.8,3.9-2.3,5.6-2.3
			c51.1-0.2,102.1-0.2,153.2,0c2.1,0,4.2,0.6,6.4,1C1429.3,112.3,1429.3,113.2,1429.3,114z"/>
		<path class="st4" d="M1431,161.1c-6.4,4.2-161.5,4.4-169.3,0.8c3.5-1,5.6-2.1,7.9-2.1c51.3,0,102.5,0,153.8,0
			C1425.4,159.7,1427.3,160.5,1431,161.1z"/>
		<path class="st4" d="M1263.3,13.3c2.3-0.4,4.6-1.4,6.9-1.4c50.9,0,101.7,0,152.7,0c1.9,0,4.1,1.7,6,2.7c-1.9,0.8-3.9,2.3-5.8,2.3
			c-51.1,0.2-102.1,0.2-153.2,0c-2.1,0-4.4-1.2-6.6-1.7C1263.3,14.6,1263.3,13.8,1263.3,13.3z"/>
		<path class="st4" d="M1263.1,99.7c2.3-0.6,4.8-1.9,7.1-1.9c50.6-0.2,101.3-0.2,151.9,0c2.1,0,4.4,1.9,6.6,3.1
			c-2.1,0.8-4.4,2.1-6.6,2.1c-50.6,0.2-101.3,0.2-151.9,0c-2.3,0-4.6-0.8-6.9-1.2C1263.3,101.3,1263.3,100.5,1263.1,99.7z"/>
		<path class="st4" d="M1428.9,138.9c-55,0-110,0-165,0c-0.2-0.6-0.4-1.4-0.4-1.9c1.9-0.6,3.7-1.7,5.6-1.7c51.5-0.2,103.1,0,154.8,0
			c1.9,0,3.9,1,5.8,1.5C1429.3,137.4,1429.1,138.1,1428.9,138.9z"/>
		<path class="st4" d="M1429.6,26.4c-6,3.3-161.5,3.1-165.8,0C1268.1,23.3,1423.7,23.1,1429.6,26.4z"/>
		<path class="st4" d="M1428.7,40.5c-54.8,0-109.8,0-164.6,0c-0.2-0.8-0.4-1.5-0.6-2.3c2.3-0.6,4.8-1.7,7.1-1.7
			c19.7-0.2,39.4,0,59.1,0c30.7,0,61.4,0,91.9,0c2.5,0,5,0.8,7.7,1.2C1429.1,38.6,1428.9,39.5,1428.7,40.5z"/>
		<path class="st4" d="M1262.3,64.6c5-3.9,157.3-5,167.1-0.4c-2.3,0.6-4.8,1.5-7.1,1.5c-26.2,0.2-52.3,0-78.5,0
			c-24.3,0-48.4,0-72.8,0C1268.5,65.8,1266,65.2,1262.3,64.6z"/>
		<path class="st4" d="M1429.1,76.8c-55.2,1-110.4,1.4-165.6,0C1268.1,72.7,1423.7,72.3,1429.1,76.8z"/>
		<path class="st4" d="M1263.7,87.8c5-3.1,160.8-3.1,165.6,0.2C1424.6,91.6,1268.1,91.4,1263.7,87.8z"/>
		<path class="st4" d="M1428.9,126.6c-55,0-110,0-165,0c-0.2-0.8-0.2-1.4-0.4-2.1c2.1-0.6,4.2-1.5,6.4-1.5c51.3,0,102.7,0,154,0
			c1.9,0,3.9,1.2,5.8,1.7C1429.3,125.4,1429.1,126,1428.9,126.6z"/>
	</g>
</g>
<rect x="300.5" y="165.2" class="st4" width="398.6" height="10.7"/>
<rect x="300.5" y="222.2" class="st4" width="398.6" height="10.7"/>
<rect x="300.5" y="269.8" class="st4" width="398.6" height="10.7"/>
<rect x="300.5" y="331.6" class="st4" width="398.6" height="10.7"/>
<rect x="300.5" y="377.5" class="st4" width="398.6" height="10.7"/>
<path class="st4" d="M371.3,124.9l-111.6,24.5c0,0-53.1-110.9,102.4-132L371.3,124.9z"/>
<polygon class="st4" points="89.1,547 482.4,527.1 937.2,547 "/>
<rect x="279.5" y="840.5" class="st4" width="434.2" height="12.6"/>
<rect x="248.7" y="875.3" class="st4" width="505.2" height="12.6"/>
<ellipse class="st4" cx="707.5" cy="610" rx="27.5" ry="27.3"/>
<ellipse class="st4" cx="781.5" cy="610" rx="27.5" ry="27.3"/>
<circle class="st4" cx="849.9" cy="610" r="25.8"/>
<g>
	<path class="st4" d="M408.2,69.6H429v66.8h-20.8V69.6z"/>
	<path class="st4" d="M442.6,88H460v7.9c2.6-3.2,5.2-5.5,7.9-6.9c2.7-1.4,5.9-2.1,9.7-2.1c5.2,0,9.2,1.5,12.1,4.6
		c2.9,3.1,4.4,7.8,4.4,14.2v30.8h-18.7v-26.6c0-3-0.6-5.2-1.7-6.4c-1.1-1.3-2.7-1.9-4.8-1.9c-2.3,0-4.1,0.9-5.5,2.6
		c-1.4,1.7-2.1,4.8-2.1,9.2v23.2h-18.6V88z"/>
	<path class="st4" d="M506.5,69.6h51.3v14.4h-30.4v11.7h26v13.5h-26v27.3h-20.8V69.6z"/>
	<path class="st4" d="M562.2,112.3c0-7.4,2.5-13.5,7.5-18.3c5-4.8,11.8-7.2,20.3-7.2c9.7,0,17.1,2.8,22.1,8.4c4,4.5,6,10.1,6,16.7
		c0,7.4-2.5,13.5-7.4,18.3c-5,4.8-11.8,7.1-20.6,7.1c-7.8,0-14.1-2-19-5.9C565.2,126.7,562.2,120.2,562.2,112.3z M580.9,112.3
		c0,4.3,0.9,7.5,2.6,9.6c1.8,2.1,4,3.1,6.6,3.1c2.7,0,4.9-1,6.6-3.1c1.7-2,2.6-5.3,2.6-9.8c0-4.2-0.9-7.3-2.6-9.4
		c-1.7-2.1-3.9-3.1-6.5-3.1c-2.7,0-5,1-6.7,3.1C581.8,104.8,580.9,108,580.9,112.3z"/>
</g>
<rect x="89.1" y="582.7" class="st4" width="208.9" height="35.3"/>
<rect x="89.1" y="624.7" class="st4" width="208.9" height="17.8"/>
<g id="Layer_9">
	<g id="Yi7mKX_1_">
		<g>
			<path class="st4" d="M1740.4,694.2c0-26.6,0-52.9,0-79.1c-7.6-2.7-49.7-1.6-53.9,1.6c-0.1-2.1-0.2-3.9-0.3-6.3
				c10.1,0,19.9,0.6,29.7-0.1c15.9-1.1,30.9,1.3,45.4,10.3c10.5,6.5,21.7,11.1,32.5,16.9c1.4,0.7,3,3.2,3,4.9
				c0.2,17.1,0.1,34.2,0.1,51.9C1778.2,694.2,1759.7,694.2,1740.4,694.2z"/>
			<path class="st4" d="M1736,626.7c-3.8,2.4-7.7,4.8-12.3,7.7c3.4,0.7,6.2,1.3,9.6,2c0,14.1-0.1,28.2,0.1,42.2
				c0.1,5.5-1.6,11.5,3,16.2c1.2,1.3,0.4,5.5,0.5,9.3c-6.5-7.6-6.5-7.5-12.7-1.8c-0.6,0.6-1.5,1-2.2,1c-19,0.1-38,0-57.6,0
				c0.4-20-4.3-39.7,3.8-59.3c-2-0.2-3.5-0.5-4.8-0.4c-1.4,0.1-2.7,0.8-4.1,1.2c0.6,1.7,1.5,3.3,1.6,5c0.3,4.7,0.7,9.4,0.3,14.1
				c-0.3,3.2-1.9,6.2-2.7,8.9c-4.9-6.8-4.5-15.2-2-24.9c1.9-7.5,5.3-6.7,9.6-6.7c1.4,0,3.4-0.2,4.1-1.3c2.5-3.7,5.2-5.8,9.4-5.6
				c0.9,0,2.3-2.1,2.8-3.5c2.8-9.7,7.9-14.4,16.9-13.6c9.3,0.8,18.7,0.2,28,0.2C1733.9,617.5,1733.9,617.5,1736,626.7z
				 M1716.3,672.1c-0.1,0.8-0.2,1.7-0.2,2.5c2.5,0.4,5.1,1.3,7.6,1.1c1.7-0.1,4.4-1.5,4.8-2.9c1.5-6.5,2.9-13.2,3.1-19.9
				c0.2-7.5-3.6-12.4-8-12.4c-15.8-0.1-31.7,0-47.5-0.2c-2.7,0-4.5,0.8-5.2,4.1c-1.3,5.8-2.6,11.5-4.1,17.2
				c-1.3,4.5-0.3,6.2,3.7,7.2c14.1,3.3,28.2,2.8,42.1-0.5c1.5-0.4,3.4-3,3.6-4.9c0.8-6.1,0.9-12.3,1.3-18.5c2.9,0,5.5,0,9,0
				c-6.9,9-3.3,17.7-0.3,26.7C1722.4,671.7,1719.3,671.9,1716.3,672.1z"/>
			<path class="st4" d="M1664.3,723.9c0-5.5,0-10.2,0-15.2c19.2,0,38.1,0,57.8,0c0,4.2,0.4,8.4-0.2,12.4c-0.2,1.5-2.7,3.5-4.2,3.5
				c-11.8,0.6-23.6,0.9-35.4,0.9C1676.4,725.5,1670.4,724.5,1664.3,723.9z M1669.7,709c-1.7,1.5-2.9,2.5-4,3.4
				c1.5,1.1,3,2.6,4.7,3.1c0.7,0.2,1.9-1.7,2.8-2.7C1672.1,711.7,1671.1,710.6,1669.7,709z M1711.8,709.4c-3.1,1.1-5.3,1.9-7.6,2.7
				c0.6,1.2,1.1,3.4,1.7,3.4C1708.3,715.6,1711.4,716,1711.8,709.4z"/>
			<path class="st4" d="M1717.3,729.1c8.8,0.7,8.5-6.4,8-13.7c-0.1-1.6,0-3.4,0.6-4.7c1.3-2.9,3-5.5,4.6-8.3c1.4,2.7,3.8,5.3,4,8.2
				c0.4,6.7,0.2,13.6-0.5,20.3c-0.7,7.1-5.5,6.2-9.7,6.1C1720.4,736.9,1717.5,735.4,1717.3,729.1z M1731.2,708.1c-0.5,0-1,0-1.4,0
				c-2,7.7-2.1,15.3,0.1,22.9c0.4,0,0.9,0,1.3,0C1731.2,723.4,1731.2,715.7,1731.2,708.1z"/>
			<path class="st4" d="M1776.6,705.6c-11.5,0.8-23,1.6-35,2.4c-0.1-2-0.1-3.6-0.2-4.9c12,0,23.5,0,35.1,0
				C1776.6,704,1776.6,704.8,1776.6,705.6z"/>
			<path class="st4" d="M1782.2,697.7c4,5.9,5.3,19.6,2,23c-1.9,1.9-5.5,1.8-8.3,1.5c-1.6-0.1-3.1-2.3-5.5-4.2
				c9.3-2.4,9.2-2.4,10-12.6C1780.5,703.1,1781.4,701,1782.2,697.7z"/>
			<path class="st4" d="M1776.6,712.2c-11.3,3.5-23,3.9-34.9,6.8c-0.1-2-0.2-3.6-0.4-5.5c11.9-1.4,23.4-2.7,34.8-4
				C1776.3,710.4,1776.5,711.3,1776.6,712.2z"/>
			<path class="st4" d="M1789.2,697.9c4,3.4,5.5,12.5,3.6,18.8c-0.5,1.8-2.7,2.8-4.1,4.2c-0.5-0.4-0.9-0.8-1.4-1.2
				C1788,712.7,1788.6,705.6,1789.2,697.9z"/>
			<path class="st4" d="M1688.7,729.3c-0.5,8.8-5.4,6.7-9.3,7.1c-4.4,0.4-5.8-2.5-6-7.1C1678.5,729.3,1683.4,729.3,1688.7,729.3z"/>
		</g>
	</g>
</g>
</svg>
