<?xml version="1.0" encoding="utf-8"?>
<!-- Generator: Adobe Illustrator 24.3.0, SVG Export Plug-In . SVG Version: 6.00 Build 0)  -->
<svg version="1.1" id="Layer_1" xmlns="http://www.w3.org/2000/svg" xmlns:xlink="http://www.w3.org/1999/xlink" x="0px" y="0px"
	 viewBox="0 0 225 225" style="enable-background:new 0 0 225 225;" xml:space="preserve">
<style type="text/css">
	.st13{fill:#9E9E9E;}
</style>

<path class="st13" d="M82.7,204.9c-20.2,0-42.1,0.3-62-0.1c-10.6-0.2-17.3-9.4-17.4-22.2C3.2,152.7,3.2,123,3.2,93.2
	c0-15.6,0-31.3,0-46.8c0.1-16.2,7.1-24,21.4-24c2.9,0,5.8,0,9,0c0.2,1.8,0.4,2.9,0.4,4.2c0,5.2,0,3.6,0,9.4c-4.2,0.2-13,2.7-17.1,3
	c0,46.6,1,151.5,1,151.5c18.4,0,45.8,0,64.3,0C83.5,197.7,81.5,197.5,82.7,204.9z"/>
<path class="st13" d="M77.6,53.4c-9.6,0-19.2,0-28.8,0c-6.6,0-8.3-1.6-8.4-8c-0.1-6.5,0.1-12.9-0.1-19.4c-0.1-3,1-4.3,3.8-5
	c7-1.7,12.1-5.4,16.3-11.8C68.6-3.1,86.7-3.1,95.1,9.4c4,6,8.6,9.7,15.3,11.2c3.5,0.8,5.1,2.6,4.8,6.6c-0.4,6.4-0.2,12.9-0.1,19.4
	c0.1,5-2.3,7-7.1,6.9C97.9,53.3,87.8,53.4,77.6,53.4z M88.1,22.4c0.1-5.9-4.4-10.7-10.1-10.9c-5.6-0.1-10.7,4.7-10.9,10.3
	c-0.2,5.8,4.5,10.6,10.3,10.7C83.5,32.6,88,28.4,88.1,22.4z"/>
<path class="st13" d="M115,78.8c0,4,0,4.4,0,8.4c-24.8,0-49.4,0-74.2,0c0-3.7,0-4.3,0-8.4C65.3,78.8,89.9,78.8,115,78.8z"/>
<path class="st13" d="M40.8,103.4c24.9,0,49.3,0,73.7,0c1.7,10.2,1,8.3-7.2,8.7c-22,1.1-44.1,0.4-66.5,0.4
	C40.8,108.4,40.8,107.7,40.8,103.4z"/>
<path class="st13" d="M40.8,128.9c16.9,0,33.4,0,50.6,0c-2.4,3.8-9.1,9-10.4,9C67.7,138,54.5,138,40.8,138
	C40.8,133.9,40.8,133.1,40.8,128.9z"/>
<path class="st13" d="M40.8,156.1H80c1.1,0,1.9,1,1.6,2.1c-0.6,2.5,0.3,5-0.7,5c-13.3,0.1-26.5,0.1-40.2,0.1V156.1z"/>


<path class="st13" d="M199.7,43.4c1.4,1.2,2.7,2.4,4.2,3.4c1,0.7,1.3,1.4,0.6,2.6c-0.7,1.5-1.3,3.1-2.1,4.6
	c-0.9,1.5-0.3,2.5,0.5,3.7c1.7,2.8,3.6,3.2,6.7,2c3.5-1.4,7.7,2.6,7,6.2c-0.1,0.5-0.7,1.1-1.2,1.5c-0.9,0.7-1.8,1.4-2.8,2
	c-2.5,1.7-3.3,4.7-2,7.4c0.1,0.2,0.4,0.5,0.7,0.6c0.9,0.3,1.7,0.7,2.6,1c4.9,1.5,6,3.4,4.3,8.3c-0.2,0.6-0.6,0.9-1.2,1.2
	c-1.1,0.5-2.2,0.6-3.4,0.7c-4.8,0.2-4.9,0.3-6.3,4.8c-0.2,0.7-0.1,1.3,0.3,1.8c0.5,0.6,1.1,1.3,1.6,1.9c3.7,4.3,3.6,4.3-0.1,8.7
	c-1,1.1-2,1.4-3,0.7c-1-0.6-2-0.6-2.9-1.3c-2.1-1.7-4-1.4-6,0.4c-1.5,1.3-2.4,2.4-1.7,4.3c0.3,0.9,0.3,1.8,0.4,2.7
	c0.5,3.7,0.2,3.7-3.1,5.2c-2.9,1.4-4.5,0.5-5.7-2c-0.2-0.3-0.4-0.6-0.7-1.1c-2.4-3.3-4-3.7-7.7-2.1c-0.6,0.3-0.7,0.7-1,1.4
	c-0.4,1.4-1.2,2.7-1.4,4.1c-0.5,2.8-2.4,3-4.6,2.7c-4.2-0.7-4.2-0.7-4.5-5c0-0.4,0-0.9-0.1-1.3c-0.2-1.2,0.2-2.8-0.6-3.3
	c-1.6-0.9-3.3-1.4-4.9-2.2c-0.4-0.2-0.7,0.3-1.1,0.5c-0.7,0.6-1.5,1.3-2.2,1.9c-4,3.2-5.6,3.1-9-0.7c-0.5-0.6-0.7-1.3-0.3-2
	c0.3-0.7,0.5-1.6,1-2.4c2.2-3.2,1.8-6-1.1-8.4c-0.7-2-1.6-0.6-2.5,0c-1.1-0.1-2.1-0.4-3.3,0.1c-1.1-0.4-1.8,0-2.4,1
	c-0.2,0-0.5,0-0.7,0h-0.2c-0.2-0.3-0.4-0.6-0.5-1c-0.1-0.1-0.1-0.2-0.2-0.3c-0.7-1-0.7-2.5-1.8-3.2c-1.1-2.1-0.3-3.6,1.6-4.8
	c0.7-0.4,1.4-1,2-1.4c1-0.7,2.7-1.7,2.6-2c-0.6-1.7,0.2-3.6-0.7-5.2c-1.1-1.8-3.2-1.3-4.7-2.1c-3.3-1.9-4.1-0.5-2.9-5.5
	c0.2-0.9,0-1.8,0-2.7c0.2-0.3,0.9-0.3,0.5-0.9c0.5-0.1,1-0.3,1.5-0.4c2.5,0.4,4.8,0.4,7-1h0.2c0.4,0,0.6-0.2,0.6-0.6l0,0
	c0.1-0.2,0.2-0.4,0.3-0.6c2.4-4-0.3-6.5-2.7-9c-1.2-1.2-1.4-2.1-0.1-3.5c1.2-1.4,1.9-3.5,3.5-4.1c1.5-0.5,3.1,1.1,4.6,1.9
	c3,1.6,5.8,0.7,7.7-2.1c1.1-1.6-0.3-3.1-0.4-4.7c-0.1-2-1.1-4.2,1.7-5.1c0.6-0.3,1.7,0.1,1.9-1.1l0,0c2.4-0.6,4.2,0,5.3,2.4
	c0.4,0.9,1.1,1.5,1.5,2.2c1.5,2.8,4.1,1,6.1,1.3c1.8,0.2,1.5-1.6,1.9-2.7c0.1-0.2,0.2-0.4,0.3-0.6c2-5.3,2-5.2,7.8-4.7
	c1.3,0.1,1.8,0.6,1.9,1.8c0.2,1.8,0.4,3.6,0.6,5.6c0.1,1.2,0.4,2.5,1.6,2.6c1.9,0.1,3.4,2.6,5.7,0.4
	C195.5,45.9,197.1,43.8,199.7,43.4z M176.6,102c13,0.2,23.2-10.8,23-23.1c-0.2-13.6-10.2-23-23-23.1s-23,9.6-23.1,23.2
	C153.4,91.4,163.6,102.2,176.6,102z"/>
<path class="st13" d="M139.6,94c-0.9-2.3,0.3-4.8-1-6.9c-1-1.7-2.8-1.9-4.4-2.2c0,4.4,0,8.9,0,13.3c0.7-0.5,1.4-1,2-1.4
   C137.5,95.7,139.8,94.4,139.6,94z"/>
<path class="st13" d="M136.2,72.1c2.2,0.1,2.3-0.3,4.3-1.6h0.3c0.6,0,0.9-0.3,0.9-0.9c0.1-0.3,0.3-0.6,0.4-0.9
   c3.1-5.2-0.4-8.6-3.5-11.9c-1.6-1.6-1.8-2.8-0.1-4.7c1.6-1.8,2.6-4.7,4.7-5.4c2-0.7,4.1,1.4,6.1,2.6c1.1,0.6,2.2,0.9,3.2,1
   c0-4.1-0.1-8.2-0.2-12.3c-0.2-7.3-5-13-12.3-14.7c-5.7-1.3-11.8-1-17.8-1.4c0,6.9,0,7.6,0,13.5c4.2,0.2,10.8-0.7,15.1-0.5
   C137.2,45.4,136.2,61.8,136.2,72.1z"/>
<path class="st13" d="M146.9,109.5c-1-2.7-2.1-0.9-3.3,0c-1.3-0.1-2.6-0.5-4,0c3,0.5,5.9,1.1,8.9,1.6
   C148,110.5,147.5,110,146.9,109.5z"/>

<path class="st13" d="M137.4,118.2c-22.6,0-40.8,18.3-40.8,40.8s18.3,40.8,40.8,40.8s40.8-18.3,40.8-40.8S160,118.2,137.4,118.2z
	 M137.4,187.6c-15.8,0-28.6-12.8-28.6-28.6s12.8-28.6,28.6-28.6S166,143.2,166,159S153.2,187.6,137.4,187.6z"/>
</svg>
